<?xml version="1.0" encoding="utf-8"?>
<!-- Generator: Adobe Illustrator 25.0.0, SVG Export Plug-In . SVG Version: 6.00 Build 0)  -->
<svg version="1.1" id="圖層_1" xmlns="http://www.w3.org/2000/svg" xmlns:xlink="http://www.w3.org/1999/xlink" x="0px" y="0px"
	 viewBox="0 0 23.65 23.65" style="enable-background:new 0 0 23.65 23.65;" xml:space="preserve">
<style type="text/css">
	.st0{fill:#F8B11B;}
</style>
<path id="Path_397" class="st0" d="M11.82,0C5.29,0,0,5.29,0,11.82s5.29,11.82,11.82,11.82s11.82-5.29,11.82-11.82l0,0
	C23.65,5.29,18.36,0,11.82,0z M16.2,16.1l-3.46,3.46c-0.51,0.51-1.33,0.51-1.84,0L7.45,16.1c-2.42-2.77-2.42-6.9,0-9.67l0,0
	c2.42-2.42,6.34-2.42,8.76,0c0,0,0,0,0,0l0,0C18.62,9.2,18.62,13.33,16.2,16.1z"/>
<circle id="Ellipse_2" class="st0" cx="11.83" cy="11.72" r="2.25"/>
</svg>
