<?xml version="1.0" encoding="utf-8"?>
<!-- Generator: Adobe Illustrator 25.0.0, SVG Export Plug-In . SVG Version: 6.00 Build 0)  -->
<svg version="1.1" id="圖層_1" xmlns="http://www.w3.org/2000/svg" xmlns:xlink="http://www.w3.org/1999/xlink" x="0px" y="0px"
	 viewBox="0 0 14.8 14.8" style="enable-background:new 0 0 14.8 14.8;" xml:space="preserve">
<style type="text/css">
	.st0{fill:#1A1311;}
</style>
<path id="Icon_ionic-ios-arrow-dropright-circle" class="st0" d="M14.8,7.4c0-4.1-3.3-7.4-7.4-7.4l0,0C3.3,0,0,3.3,0,7.4
	s3.3,7.4,7.4,7.4S14.8,11.5,14.8,7.4L14.8,7.4z M8.9,10.2C8.9,10.3,8.9,10.3,8.9,10.2c0.3,0.3,0.3,0.8,0,1c-0.3,0.3-0.7,0.2-1,0
	L4.6,7.9c-0.2-0.3-0.2-0.7,0-0.9L8,3.5c0,0,0,0,0,0c0.3-0.3,0.7-0.2,1,0c0.3,0.3,0.2,0.7,0,1L6.1,7.4L8.9,10.2z"/>
</svg>
