<?xml version="1.0" encoding="utf-8"?>
<!-- Generator: Adobe Illustrator 25.0.0, SVG Export Plug-In . SVG Version: 6.00 Build 0)  -->
<svg version="1.1" id="圖層_1" xmlns="http://www.w3.org/2000/svg" xmlns:xlink="http://www.w3.org/1999/xlink" x="0px" y="0px"
	 viewBox="0 0 61.82 44.78" style="enable-background:new 0 0 61.82 44.78;" xml:space="preserve">
<style type="text/css">
	.st0{fill:#1A1311;}
</style>
<path id="motorcycle-delivery-single-box-svgrepo-com" class="st0" d="M14.92-0.02c1.99-0.11,3.94,0.57,5.43,1.89h7.39
	c0.7-0.02,1.28,0.53,1.3,1.23c0.02,0.7-0.53,1.28-1.23,1.3c-0.02,0-0.05,0-0.07,0h-6.64c-0.49,1.81-3.02,3.15-6.19,3.15
	c-1.04,0.11-2.07-0.19-2.89-0.84c-0.59-0.77-0.85-1.74-0.71-2.7V3.76V3.52c-0.14-0.96,0.11-1.93,0.71-2.7
	C12.84,0.17,13.88-0.14,14.92-0.02L14.92-0.02z M19.86,9.04c-1.09,8.28,0.54,16.3,4.31,20.83c1.66,2.2,4.25,3.51,7.01,3.54
	c1.01-0.02,1.93-0.6,2.38-1.51c1.08-1.86,1.27-5.51-1.17-10.4c2.02,0.4,4.08,0.59,6.14,0.55c1.49,0,4.9-0.01,7.17-1.22
	c0.23-0.12,0.45-0.26,0.65-0.41c0.39-0.28,0.73-0.63,1-1.03c0.09,0.04,0.17,0.09,0.26,0.13h12.9c0.7-0.02,1.28,0.53,1.3,1.23
	c0.02,0.7-0.53,1.28-1.23,1.3c-0.02,0-0.05,0-0.07,0h-9c2.32,1.92,4.1,4.41,5.18,7.22c0.19,0.67-0.2,1.37-0.87,1.56
	c-0.03,0.01-0.05,0.01-0.08,0.02l-19.02,5.08H22.62c0.05-0.42,0.07-0.84,0.07-1.26c0-6.72-6.48-12.62-13.88-12.62
	c-0.23,0-0.44,0.01-0.66,0.02c0.53-4.45,2.28-8.66,5.07-12.16c0.56,0.1,1.13,0.15,1.7,0.15C16.63,10.09,18.31,9.74,19.86,9.04z
	 M44.11,15.83c0.12,0,0.25,0.04,0.35,0.1l0,0c0.15,0.09,0.29,0.2,0.4,0.34c0.02,0.02,0.03,0.04,0.05,0.06
	c0.13,0.17,0.25,0.35,0.34,0.54c0.13,0.27,0.23,0.55,0.3,0.84c0.02,0.09,0.03,0.18,0.05,0.27c0.02,0.12,0.06,0.24,0.07,0.36
	c-0.01,0-0.02-0.01-0.03-0.01c0.03,0.16,0.05,0.32,0.06,0.48c0,1.28-2.35,2.06-6.86,2.06s-8.28-0.77-8.28-2.06s0.72-2.99,1.62-2.99
	L44.11,15.83z M8.82,24.58c5.71,0,11.35,4.51,11.35,10.09c0,3.46-1.5,3.78-2.52,3.78c-2.09,0-1.26-4.29-6.31-6.31
	c-1.37-0.53-2.82-0.8-4.29-0.78c-2.28,0-4.26,0.53-5.53,0.53c-0.96,0-1.53-0.3-1.53-1.37C-0.01,29.62,1.62,24.58,8.82,24.58z
	 M7.33,33.9c1.05,0.01,2.09,0.21,3.08,0.59c0.22,0.09,0.44,0.19,0.65,0.3c0.63,1.24,0.15,2.76-1.09,3.39s-2.76,0.15-3.39-1.09
	C6.01,35.98,6.33,34.63,7.33,33.9L7.33,33.9z M53.99,33.94c1.11,4.74-1.83,9.49-6.58,10.6c-4.56,1.07-9.16-1.62-10.48-6.11
	c0.15-0.01,0.3-0.02,0.45-0.06l3.24-0.87c0.86,2.64,3.7,4.09,6.34,3.22c2.07-0.68,3.48-2.61,3.47-4.8c0-0.34-0.04-0.68-0.11-1.02
	L53.99,33.94z M4.11,34.16c-0.99,2.59,0.31,5.5,2.9,6.49c2.59,0.99,5.5-0.31,6.49-2.9c0.02-0.05,0.03-0.09,0.05-0.14
	c0.03,0.06,0.06,0.12,0.09,0.18c0.47,1.26,1.39,2.3,2.59,2.91c-2.58,4.12-8,5.36-12.12,2.78c-3.12-1.95-4.69-5.64-3.94-9.25
	c0.44,0.13,0.89,0.19,1.35,0.19c0.79-0.02,1.57-0.1,2.35-0.23C3.95,34.18,4.04,34.17,4.11,34.16z M47.89,35.57
	c0.02,0.12,0.03,0.24,0.04,0.36c0,1.39-1.12,2.52-2.51,2.52c-1.04,0-1.97-0.63-2.35-1.6L47.89,35.57z"/>
</svg>
