<?xml version="1.0" encoding="utf-8"?>
<!-- Generator: Adobe Illustrator 25.0.0, SVG Export Plug-In . SVG Version: 6.00 Build 0)  -->
<svg version="1.1" id="圖層_1" xmlns="http://www.w3.org/2000/svg" xmlns:xlink="http://www.w3.org/1999/xlink" x="0px" y="0px"
	 viewBox="0 0 29.34 23.92" style="enable-background:new 0 0 29.34 23.92;" xml:space="preserve">
<style type="text/css">
	.st0{fill-rule:evenodd;clip-rule:evenodd;fill:#1A1311;}
</style>
<g id="reserve-svgrepo-com" transform="translate(2.668 -2.11)">
	<path id="Path_12" class="st0" d="M16.89,13.31v1.07c3.75,1.72,6.31,5.31,6.72,9.41h1.93c0.62,0,1.12,0.5,1.12,1.12
		c0,0.62-0.5,1.12-1.12,1.12H-1.54c-0.62,0-1.12-0.5-1.12-1.12c0-0.62,0.5-1.12,1.12-1.12H0.4c0.41-4.11,2.96-7.69,6.72-9.41v-1.07
		c0.03-1.26,0.61-2.44,1.59-3.23c0.92-0.79,2.09-1.24,3.3-1.26c1.21,0.02,2.38,0.47,3.3,1.26C16.28,10.87,16.86,12.05,16.89,13.31z
		 M9.37,13.31c0.03-0.6,0.33-1.16,0.81-1.53c0.51-0.44,1.15-0.69,1.83-0.72c0.67,0.02,1.32,0.27,1.83,0.72
		c0.48,0.37,0.77,0.93,0.81,1.53v0.3c-1.73-0.4-3.53-0.4-5.26,0L9.37,13.31z"/>
	<path id="Path_13" class="st0" d="M12,2.11c0.57,0,1.03,0.46,1.03,1.02c0,0,0,0,0,0v2.05c0,0.57-0.46,1.03-1.03,1.03
		c-0.57,0-1.03-0.46-1.03-1.03V3.13C10.97,2.57,11.43,2.11,12,2.11C12,2.11,12,2.11,12,2.11z M5.1,5.22c0.4-0.4,1.05-0.4,1.46,0
		l1.29,1.28c0.4,0.4,0.4,1.04,0.01,1.44c0,0,0,0-0.01,0.01c-0.4,0.4-1.05,0.4-1.45,0L5.1,6.67C4.7,6.27,4.7,5.63,5.1,5.22
		C5.1,5.23,5.1,5.22,5.1,5.22z M18.9,5.22c0.4,0.4,0.4,1.04,0.01,1.44c0,0,0,0-0.01,0.01l-1.29,1.28c-0.4,0.4-1.05,0.4-1.45,0
		c-0.4-0.4-0.4-1.04-0.01-1.44c0,0,0,0,0.01-0.01l1.29-1.28C17.85,4.82,18.5,4.82,18.9,5.22z"/>
</g>
</svg>
