<?xml version="1.0" encoding="utf-8"?>
<!-- Generator: Adobe Illustrator 25.0.0, SVG Export Plug-In . SVG Version: 6.00 Build 0)  -->
<svg version="1.1" id="圖層_1" xmlns="http://www.w3.org/2000/svg" xmlns:xlink="http://www.w3.org/1999/xlink" x="0px" y="0px"
	 viewBox="0 0 23.66 23.66" style="enable-background:new 0 0 23.66 23.66;" xml:space="preserve">
<style type="text/css">
	.st0{fill:#1A1311;}
</style>
<path id="drawer-qa-svgrepo-com" class="st0" d="M6.79,10.29c-0.62-0.01-1.22,0.14-1.76,0.44c-0.51,0.29-0.93,0.72-1.21,1.24
	c-0.3,0.56-0.45,1.19-0.44,1.83c-0.01,0.63,0.14,1.25,0.44,1.81c0.28,0.52,0.7,0.94,1.22,1.23c0.54,0.3,1.14,0.45,1.75,0.44
	c0.55,0.01,1.09-0.11,1.58-0.35L6.2,14.74h1.75l1.42,1.4c0.24-0.27,0.44-0.58,0.57-0.92c0.18-0.45,0.27-0.93,0.26-1.42
	c0.01-0.63-0.14-1.26-0.44-1.82c-0.28-0.52-0.7-0.95-1.22-1.24C8.01,10.44,7.4,10.28,6.79,10.29z M20.75,2.53H19.4
	c-0.16,0-0.32-0.04-0.46-0.12c-0.14-0.07-0.26-0.18-0.34-0.31L17.68,0.4c-0.09-0.12-0.21-0.23-0.34-0.3C17.2,0.03,17.05,0,16.91,0
	c-0.15,0-0.3,0.04-0.44,0.11c-0.14,0.07-0.25,0.17-0.33,0.3l-0.92,1.7c-0.1,0.13-0.22,0.23-0.35,0.31
	c-0.14,0.08-0.29,0.12-0.45,0.12h-1.37c-0.51,0-1.01,0.13-1.44,0.39c-0.44,0.26-0.8,0.62-1.05,1.07c-0.26,0.44-0.39,0.94-0.39,1.45
	v1.33H2.91C2.39,6.76,1.89,6.9,1.44,7.16c-0.44,0.25-0.8,0.62-1.05,1.05C0.13,8.65-0.01,9.15,0,9.65v8.57
	c0,0.51,0.13,1.01,0.39,1.45c0.25,0.44,0.61,0.81,1.05,1.07c0.44,0.26,0.95,0.4,1.47,0.39h1.63c0.17,0,0.33,0.04,0.47,0.12
	c0.14,0.08,0.26,0.18,0.36,0.31l0.61,1.7c0.09,0.12,0.21,0.23,0.34,0.3c0.27,0.14,0.6,0.14,0.88,0c0.13-0.07,0.24-0.17,0.32-0.3
	l0.64-1.7c0.1-0.13,0.22-0.23,0.35-0.31c0.14-0.08,0.29-0.12,0.45-0.12h1.66c0.51,0,1.01-0.13,1.44-0.39
	c0.44-0.26,0.8-0.62,1.05-1.07c0.26-0.44,0.4-0.94,0.41-1.45V16.9h7.22c0.52,0.01,1.02-0.13,1.47-0.39c0.44-0.25,0.8-0.62,1.05-1.05
	c0.26-0.44,0.39-0.94,0.39-1.44V5.44c0-0.51-0.13-1.01-0.39-1.45c-0.25-0.44-0.61-0.81-1.05-1.07C21.77,2.66,21.27,2.52,20.75,2.53z
	 M10.08,18.6l-0.69-0.71c-0.78,0.49-1.68,0.73-2.6,0.71c-0.87,0.01-1.72-0.2-2.47-0.63c-0.72-0.41-1.32-1-1.73-1.73
	c-0.84-1.53-0.84-3.37,0-4.9c0.41-0.72,1-1.32,1.72-1.74c0.75-0.43,1.6-0.65,2.46-0.64C7.64,8.96,8.5,9.18,9.25,9.61
	c0.73,0.41,1.33,1.01,1.74,1.74c0.42,0.75,0.64,1.59,0.63,2.45c0.02,1.23-0.43,2.42-1.28,3.31l1.49,1.49H10.08z M21.98,14.01
	c0,0.32-0.13,0.63-0.37,0.85c-0.23,0.23-0.54,0.36-0.86,0.35h-7.24v-1.23h0.33l0.99-2.22h3.98l0.97,2.22h1.52l-4.38-9.8l-3.41,7.22
	V9.65c0-0.55-0.16-1.09-0.45-1.55c-0.29-0.47-0.72-0.85-1.23-1.08V5.44c0-0.67,0.54-1.2,1.21-1.21h1.66
	c0.28,0.01,0.56-0.04,0.82-0.17c0.2-0.12,0.37-0.29,0.48-0.5c0.14-0.23,0.25-0.48,0.33-0.73c0.11-0.28,0.2-0.49,0.26-0.63
	c0.05-0.13,0.18-0.21,0.32-0.2c0.13-0.01,0.26,0.06,0.3,0.19l0.24,0.64c0.09,0.29,0.21,0.58,0.35,0.85
	c0.11,0.19,0.27,0.34,0.46,0.43c0.28,0.09,0.57,0.13,0.86,0.12h1.63c0.32,0,0.64,0.12,0.86,0.36c0.24,0.22,0.37,0.53,0.37,0.85
	L21.98,14.01z M15.42,10.41l1.42-3.12l1.4,3.12H15.42z"/>
</svg>
