<?xml version="1.0" encoding="utf-8"?>
<!-- Generator: Adobe Illustrator 25.0.0, SVG Export Plug-In . SVG Version: 6.00 Build 0)  -->
<svg version="1.1" id="圖層_1" xmlns="http://www.w3.org/2000/svg" xmlns:xlink="http://www.w3.org/1999/xlink" x="0px" y="0px"
	 viewBox="0 0 22.65 22.65" style="enable-background:new 0 0 22.65 22.65;" xml:space="preserve">
<style type="text/css">
	.st0{fill:#1A1311;}
</style>
<g id="Group_867" transform="translate(-113.329 -23.259)">
	<path id="Icon_metro-phone" class="st0" d="M129.27,37.21c-1.45,1.45-1.45,2.9-2.9,2.9c-1.45,0-2.9-1.45-4.35-2.9
		c-1.45-1.45-2.9-2.9-2.9-4.35c0-1.45,1.45-1.45,2.9-2.9c1.45-1.45-2.9-5.8-4.35-5.8c-1.45,0-4.34,4.35-4.34,4.35
		c0,2.9,2.98,8.77,5.8,11.59s8.7,5.8,11.59,5.8c0,0,4.35-2.9,4.35-4.35C135.07,40.11,130.72,35.76,129.27,37.21z"/>
	<path id="Icon_metro-phone-in-talk" class="st0" d="M133.36,35.04h2.62c0-6.51-5.27-11.78-11.78-11.78v2.62
		C129.26,25.88,133.36,29.98,133.36,35.04z M128.12,35.04h2.62c0-3.61-2.93-6.54-6.54-6.54v2.62
		C126.37,31.11,128.12,32.87,128.12,35.04L128.12,35.04z"/>
</g>
</svg>
