<?xml version="1.0" encoding="utf-8"?>
<!-- Generator: Adobe Illustrator 25.0.0, SVG Export Plug-In . SVG Version: 6.00 Build 0)  -->
<svg version="1.1" id="圖層_1" xmlns="http://www.w3.org/2000/svg" xmlns:xlink="http://www.w3.org/1999/xlink" x="0px" y="0px"
	 viewBox="0 0 31.78 23.02" style="enable-background:new 0 0 31.78 23.02;" xml:space="preserve">
<style type="text/css">
	.st0{fill:#1A1311;}
</style>
<path id="motorcycle-delivery-single-box-svgrepo-com" class="st0" d="M7.68-0.01C8.7-0.07,9.7,0.28,10.47,0.96h3.8
	c0.36,0,0.65,0.29,0.65,0.65c0,0.36-0.29,0.65-0.65,0.65h-3.41C10.61,3.19,9.3,3.88,7.68,3.88C7.15,3.94,6.61,3.79,6.2,3.45
	c-0.3-0.39-0.44-0.9-0.36-1.39V1.82C5.76,1.32,5.89,0.82,6.2,0.43C6.61,0.09,7.14-0.07,7.68-0.01L7.68-0.01z M10.22,4.65
	c-0.56,4.26,0.28,8.38,2.22,10.71c0.86,1.13,2.19,1.8,3.61,1.82c0.52-0.01,0.99-0.31,1.23-0.77c0.56-0.96,0.65-2.83-0.6-5.34
	c1.04,0.21,2.1,0.3,3.16,0.28c1.26,0.06,2.52-0.15,3.69-0.63c0.12-0.06,0.23-0.13,0.34-0.21c0.2-0.14,0.38-0.32,0.52-0.53
	c0.05,0.02,0.09,0.05,0.13,0.07h6.63c0.36,0,0.65,0.29,0.65,0.65s-0.29,0.65-0.65,0.65H26.5c1.19,0.99,2.11,2.27,2.66,3.71
	c0.1,0.35-0.1,0.7-0.45,0.8c-0.01,0-0.03,0.01-0.04,0.01l-9.78,2.61h-7.26c0.02-0.22,0.04-0.43,0.04-0.65
	c0-3.45-3.33-6.49-7.13-6.49c-0.12,0-0.23,0.01-0.34,0.01C4.47,9.07,5.37,6.9,6.81,5.1c0.29,0.05,0.58,0.08,0.87,0.08
	C8.55,5.19,9.42,5.01,10.22,4.65z M22.68,8.14c0.06,0,0.13,0.02,0.18,0.05l0,0c0.08,0.05,0.15,0.1,0.21,0.18L23.1,8.4
	c0.07,0.09,0.13,0.18,0.17,0.28c0.07,0.14,0.12,0.28,0.15,0.43c0.01,0.05,0.02,0.09,0.03,0.14s0.03,0.12,0.04,0.18
	c0,0-0.01,0-0.01,0c0.02,0.08,0.03,0.16,0.03,0.25c0,0.66-1.2,1.06-3.52,1.06s-4.26-0.4-4.26-1.06s0.37-1.53,0.83-1.53L22.68,8.14z
	 M4.54,12.64c2.93,0,5.84,2.32,5.84,5.19c0,1.78-0.77,1.95-1.3,1.95c-1.08,0-0.65-2.21-3.24-3.24c-0.7-0.27-1.45-0.41-2.2-0.4
	c-1.17,0-2.19,0.27-2.85,0.27C0.29,16.4,0,16.25,0,15.7C0,15.23,0.84,12.64,4.54,12.64L4.54,12.64z M3.78,17.43
	c0.54,0,1.08,0.11,1.58,0.3c0.11,0.05,0.23,0.1,0.33,0.16c0.33,0.64,0.07,1.42-0.56,1.74s-1.42,0.07-1.74-0.56
	C3.1,18.5,3.26,17.81,3.78,17.43L3.78,17.43z M27.76,17.45c0.54,2.45-1.01,4.86-3.45,5.4c-2.31,0.51-4.62-0.84-5.31-3.1
	c0.08,0,0.16-0.01,0.23-0.03l1.67-0.45c0.44,1.36,1.9,2.1,3.26,1.66c1.07-0.35,1.79-1.34,1.78-2.46c0-0.18-0.02-0.35-0.06-0.52
	L27.76,17.45z M2.12,17.56c-0.51,1.33,0.16,2.83,1.5,3.33s2.83-0.16,3.33-1.5c0.01-0.02,0.02-0.04,0.02-0.06l0.05,0.09
	c0.24,0.65,0.71,1.18,1.33,1.5c-1.33,2.11-4.12,2.75-6.23,1.42c-1.6-1.01-2.4-2.9-2.02-4.75c0.23,0.07,0.46,0.1,0.69,0.1
	C1.2,17.69,1.6,17.65,2,17.58L2.12,17.56z M24.63,18.29c0.01,0.06,0.02,0.12,0.02,0.19c0,0.72-0.58,1.3-1.29,1.3
	c-0.53,0-1.01-0.33-1.21-0.82L24.63,18.29z"/>
</svg>
