<?xml version="1.0" encoding="utf-8"?>
<!-- Generator: Adobe Illustrator 25.0.0, SVG Export Plug-In . SVG Version: 6.00 Build 0)  -->
<svg version="1.1" id="圖層_1" xmlns="http://www.w3.org/2000/svg" xmlns:xlink="http://www.w3.org/1999/xlink" x="0px" y="0px"
	 viewBox="0 0 30 30" style="enable-background:new 0 0 30 30;" xml:space="preserve">
<style type="text/css">
	.st0{fill:#1A1311;}
</style>
<path id="motorcycle-delivery-single-box-svgrepo-com" class="st0" d="M7.64,4.68c0.92-0.05,1.82,0.26,2.5,0.87h3.41
	c0.32,0,0.58,0.26,0.58,0.58c0,0.32-0.26,0.58-0.58,0.58h-3.06C10.27,7.55,9.1,8.17,7.64,8.17C7.16,8.22,6.69,8.08,6.31,7.78
	c-0.27-0.35-0.39-0.8-0.33-1.24V6.31C5.92,5.87,6.04,5.42,6.31,5.07C6.68,4.77,7.16,4.63,7.64,4.68L7.64,4.68z M9.92,8.85
	c-0.5,3.81,0.25,7.51,1.99,9.59c0.77,1.01,1.96,1.62,3.23,1.63c0.47-0.01,0.89-0.28,1.1-0.69c0.5-0.86,0.58-2.54-0.54-4.79
	c0.93,0.19,1.88,0.27,2.83,0.25c1.13,0.06,2.26-0.13,3.31-0.56c0.1-0.06,0.21-0.12,0.3-0.19c0.18-0.13,0.34-0.29,0.46-0.47
	c0.04,0.02,0.08,0.04,0.12,0.06h5.94c0.32,0,0.58,0.26,0.58,0.58s-0.26,0.58-0.58,0.58h-4.15c1.07,0.89,1.89,2.03,2.38,3.33
	c0.09,0.31-0.09,0.63-0.4,0.72c-0.01,0-0.02,0.01-0.04,0.01l-8.76,2.34h-6.5c0.02-0.19,0.03-0.39,0.03-0.58
	c0-3.1-2.99-5.81-6.39-5.81c-0.1,0-0.21,0.01-0.31,0.01c0.24-2.05,1.05-3.99,2.34-5.6C7.12,9.3,7.38,9.33,7.64,9.33
	C8.43,9.34,9.2,9.18,9.92,8.85z M21.09,11.98c0.06,0,0.11,0.02,0.16,0.04l0,0c0.07,0.04,0.13,0.09,0.19,0.16l0.02,0.03
	c0.06,0.08,0.11,0.16,0.16,0.25c0.06,0.12,0.1,0.25,0.14,0.39c0.01,0.04,0.02,0.08,0.03,0.13c0.01,0.04,0.03,0.11,0.03,0.16
	c0,0-0.01,0-0.01,0c0.01,0.07,0.02,0.15,0.03,0.22c0,0.59-1.08,0.95-3.16,0.95s-3.81-0.36-3.81-0.95s0.33-1.38,0.75-1.38
	L21.09,11.98z M4.83,16.01c2.63,0,5.23,2.08,5.23,4.65c0,1.59-0.69,1.74-1.16,1.74c-0.96,0-0.58-1.98-2.91-2.91
	c-0.63-0.25-1.3-0.37-1.98-0.36c-1.05,0-1.96,0.24-2.55,0.24c-0.45,0-0.71-0.14-0.71-0.63C0.76,18.33,1.52,16.01,4.83,16.01
	L4.83,16.01z M4.15,20.31c0.48,0,0.96,0.1,1.42,0.27c0.1,0.04,0.2,0.09,0.3,0.14c0.29,0.57,0.07,1.27-0.5,1.56
	c-0.57,0.29-1.27,0.07-1.56-0.5C3.54,21.27,3.68,20.64,4.15,20.31L4.15,20.31z M25.64,20.33c0.48,2.19-0.9,4.36-3.1,4.84
	c-2.07,0.45-4.14-0.75-4.76-2.78c0.07,0,0.14-0.01,0.21-0.03l1.49-0.4c0.4,1.22,1.71,1.88,2.92,1.48c0.95-0.31,1.6-1.2,1.6-2.21
	c0-0.16-0.02-0.31-0.05-0.47L25.64,20.33z M2.66,20.42c-0.45,1.2,0.15,2.53,1.34,2.99c1.2,0.45,2.53-0.15,2.99-1.34
	c0.01-0.02,0.01-0.04,0.02-0.06l0.04,0.08c0.21,0.58,0.64,1.06,1.19,1.34c-1.19,1.89-3.69,2.46-5.59,1.27
	c-1.43-0.9-2.15-2.6-1.81-4.25c0.2,0.06,0.41,0.09,0.62,0.09c0.36-0.01,0.72-0.05,1.08-0.11L2.66,20.42z M22.83,21.07
	c0.01,0.06,0.02,0.11,0.02,0.17c0,0.64-0.52,1.16-1.16,1.16c-0.48,0-0.91-0.29-1.08-0.74L22.83,21.07z"/>
</svg>
