<?xml version="1.0" encoding="utf-8"?>
<!-- Generator: Adobe Illustrator 25.0.0, SVG Export Plug-In . SVG Version: 6.00 Build 0)  -->
<svg version="1.1" id="圖層_1" xmlns="http://www.w3.org/2000/svg" xmlns:xlink="http://www.w3.org/1999/xlink" x="0px" y="0px"
	 viewBox="0 0 30 30" style="enable-background:new 0 0 30 30;" xml:space="preserve">
<path id="thumbs-up-svgrepo-com" d="M8.77,13.69H5.48c-0.54,0-0.98,0.44-0.98,0.98c0,0,0,0,0,0v9.84c0,0.54,0.44,0.98,0.98,0.98
	c0,0,0,0,0,0h3.28c0.54,0,0.98-0.44,0.98-0.98v-9.84C9.75,14.13,9.31,13.69,8.77,13.69C8.77,13.69,8.77,13.69,8.77,13.69z
	 M7.12,23.86c-0.54,0-0.98-0.44-0.98-0.98c0-0.54,0.44-0.98,0.98-0.98s0.98,0.44,0.98,0.98l0,0C8.11,23.42,7.67,23.86,7.12,23.86z
	 M20.25,7.84c0,1.74-1.07,2.72-1.36,3.88h4.17c1.32,0,2.41,1.06,2.44,2.38c0,0.75-0.29,1.47-0.8,2.02l0,0
	c0.44,1.08,0.29,2.31-0.38,3.26c0.32,1.07,0.06,2.23-0.67,3.07c0.19,0.62,0.1,1.29-0.25,1.83c-0.84,1.2-2.91,1.22-4.67,1.22h-0.12
	c-1.71-0.07-3.38-0.52-4.9-1.3c-0.68-0.35-1.41-0.57-2.16-0.66c-0.27,0-0.48-0.22-0.48-0.49v-8.76c0-0.13,0.05-0.26,0.15-0.35
	c1.62-1.61,2.32-3.31,3.65-4.64c0.56-0.7,0.92-1.53,1.04-2.42c0.18-0.76,0.56-2.37,1.39-2.37C18.28,4.5,20.25,4.83,20.25,7.84z"/>
</svg>
