<?xml version="1.0" encoding="utf-8"?>
<!-- Generator: Adobe Illustrator 25.0.0, SVG Export Plug-In . SVG Version: 6.00 Build 0)  -->
<svg version="1.1" id="圖層_1" xmlns="http://www.w3.org/2000/svg" xmlns:xlink="http://www.w3.org/1999/xlink" x="0px" y="0px"
	 viewBox="0 0 30 30" style="enable-background:new 0 0 30 30;" xml:space="preserve">
<style type="text/css">
	.st0{fill:#1A1311;}
</style>
<g id="Group_867" transform="translate(-113.329 -23.259)">
	<path id="Icon_metro-phone" class="st0" d="M133.18,41.84c-1.59,1.59-1.59,3.19-3.19,3.19c-1.59,0-3.19-1.59-4.78-3.19
		s-3.19-3.19-3.19-4.78c0-1.59,1.59-1.59,3.19-3.19s-3.19-6.37-4.78-6.37s-4.77,4.78-4.77,4.78c0,3.19,3.27,9.64,6.37,12.74
		c3.1,3.1,9.56,6.37,12.74,6.37c0,0,4.78-3.19,4.78-4.78S134.77,40.25,133.18,41.84z"/>
	<path id="Icon_metro-phone-in-talk" class="st0" d="M137.67,39.45h2.88c0-7.15-5.8-12.94-12.94-12.94v2.88
		C133.17,29.39,137.67,33.89,137.67,39.45z M131.92,39.45h2.88c0-3.97-3.22-7.19-7.19-7.19v2.88
		C129.99,35.14,131.92,37.07,131.92,39.45L131.92,39.45z"/>
</g>
</svg>
