<?xml version="1.0" encoding="utf-8"?>
<!-- Generator: Adobe Illustrator 25.0.0, SVG Export Plug-In . SVG Version: 6.00 Build 0)  -->
<svg version="1.1" id="圖層_1" xmlns="http://www.w3.org/2000/svg" xmlns:xlink="http://www.w3.org/1999/xlink" x="0px" y="0px"
	 viewBox="0 0 30 30" style="enable-background:new 0 0 30 30;" xml:space="preserve">
<style type="text/css">
	.st0{fill:#1A1311;}
</style>
<g id="map-svgrepo-com" transform="translate(-2 -2.106)">
	<path id="Path_638" class="st0" d="M6.93,10.36c-0.46,0.52-0.46,1.42-0.46,3.21v9.89c0,1.27,0,1.9,0.33,2.38
		c0.33,0.48,0.91,0.68,2.07,1.08l1.36,0.47c0.74,0.26,1.31,0.45,1.78,0.58c0.26,0.06,0.52-0.09,0.58-0.35
		c0.01-0.04,0.02-0.09,0.01-0.13V11.54c-0.01-0.26-0.19-0.49-0.45-0.55c-0.41-0.11-0.9-0.27-1.58-0.51
		C8.95,9.92,8.13,9.63,7.51,9.92C7.29,10.03,7.09,10.18,6.93,10.36z"/>
	<path id="Path_639" class="st0" d="M17.65,8.6l-1.62,1.12c-0.59,0.41-1.01,0.7-1.38,0.92c-0.18,0.1-0.29,0.28-0.29,0.48v15.84
		c-0.01,0.26,0.19,0.49,0.45,0.5c0.1,0,0.2-0.02,0.28-0.08c0.35-0.23,0.76-0.51,1.25-0.84l1.62-1.12c0.59-0.41,1.01-0.7,1.38-0.92
		c0.18-0.1,0.29-0.28,0.29-0.48V8.18c0.01-0.26-0.19-0.49-0.45-0.5c-0.1,0-0.2,0.02-0.28,0.08C18.55,7.99,18.14,8.27,17.65,8.6z"/>
	<path id="Path_640" class="st0" d="M25.13,8.23l-1.36-0.47c-0.74-0.26-1.31-0.45-1.78-0.58c-0.26-0.06-0.52,0.09-0.58,0.35
		c-0.01,0.04-0.02,0.09-0.01,0.13v15.95c0.01,0.26,0.19,0.49,0.45,0.55c0.41,0.11,0.9,0.27,1.58,0.51c1.64,0.57,2.45,0.85,3.08,0.56
		c0.22-0.1,0.42-0.25,0.58-0.44c0.46-0.52,0.46-1.42,0.46-3.21v-9.89c0-1.27,0-1.91-0.33-2.38S26.29,8.62,25.13,8.23z"/>
</g>
</svg>
