<?xml version="1.0" encoding="utf-8"?>
<!-- Generator: Adobe Illustrator 25.0.0, SVG Export Plug-In . SVG Version: 6.00 Build 0)  -->
<svg version="1.1" id="圖層_1" xmlns="http://www.w3.org/2000/svg" xmlns:xlink="http://www.w3.org/1999/xlink" x="0px" y="0px"
	 viewBox="0 0 21 21" style="enable-background:new 0 0 21 21;" xml:space="preserve">
<path id="thumbs-up-svgrepo-com" d="M4.27,9.19H0.98C0.44,9.19,0,9.63,0,10.17c0,0,0,0,0,0v9.84C0,20.56,0.44,21,0.98,21
	c0,0,0,0,0,0h3.28c0.54,0,0.98-0.44,0.98-0.98v-9.84C5.25,9.63,4.81,9.19,4.27,9.19C4.27,9.19,4.27,9.19,4.27,9.19z M2.62,19.36
	c-0.54,0-0.98-0.44-0.98-0.98c0-0.54,0.44-0.98,0.98-0.98s0.98,0.44,0.98,0.98l0,0C3.61,18.92,3.17,19.36,2.62,19.36z M15.75,3.34
	c0,1.74-1.07,2.72-1.36,3.88h4.17c1.32,0,2.41,1.06,2.44,2.38c0,0.75-0.29,1.47-0.8,2.02l0,0c0.44,1.08,0.29,2.31-0.38,3.26
	c0.32,1.07,0.06,2.23-0.67,3.07c0.19,0.62,0.1,1.29-0.25,1.83c-0.84,1.2-2.91,1.22-4.67,1.22h-0.12c-1.71-0.07-3.38-0.52-4.9-1.3
	c-0.68-0.35-1.41-0.57-2.16-0.66c-0.27,0-0.48-0.22-0.48-0.49V9.77c0-0.13,0.05-0.26,0.15-0.35c1.62-1.61,2.32-3.31,3.65-4.64
	c0.56-0.7,0.92-1.53,1.04-2.42C11.59,1.61,11.97,0,12.8,0C13.78,0,15.75,0.33,15.75,3.34z"/>
</svg>
