<?xml version="1.0" encoding="utf-8"?>
<!-- Generator: Adobe Illustrator 25.0.0, SVG Export Plug-In . SVG Version: 6.00 Build 0)  -->
<svg version="1.1" id="圖層_1" xmlns="http://www.w3.org/2000/svg" xmlns:xlink="http://www.w3.org/1999/xlink" x="0px" y="0px"
	 viewBox="0 0 30 30" style="enable-background:new 0 0 30 30;" xml:space="preserve">
<style type="text/css">
	.st0{fill:#1A1311;}
</style>
<path id="drawer-qa-svgrepo-com" class="st0" d="M9.96,13.46C9.34,13.45,8.74,13.6,8.2,13.9c-0.51,0.29-0.93,0.72-1.21,1.24
	c-0.3,0.56-0.45,1.19-0.44,1.83c-0.01,0.63,0.14,1.25,0.44,1.81c0.28,0.52,0.7,0.94,1.22,1.23c0.54,0.3,1.14,0.45,1.75,0.44
	c0.55,0.01,1.09-0.11,1.59-0.35l-2.18-2.18h1.75l1.42,1.4c0.24-0.27,0.44-0.58,0.57-0.92c0.18-0.45,0.27-0.93,0.26-1.42
	c0.01-0.63-0.14-1.26-0.44-1.82c-0.28-0.52-0.7-0.95-1.22-1.24C11.18,13.61,10.57,13.45,9.96,13.46z M23.92,5.7h-1.35
	c-0.16,0-0.32-0.04-0.46-0.12c-0.14-0.07-0.26-0.18-0.34-0.31l-0.92-1.71c-0.09-0.12-0.21-0.23-0.34-0.3
	c-0.13-0.07-0.28-0.1-0.43-0.1c-0.15,0-0.3,0.04-0.44,0.11c-0.14,0.07-0.25,0.17-0.33,0.3l-0.92,1.7c-0.1,0.13-0.22,0.23-0.35,0.31
	c-0.14,0.08-0.29,0.12-0.45,0.12h-1.37c-0.51,0-1.01,0.13-1.44,0.39c-0.44,0.26-0.8,0.62-1.05,1.07c-0.26,0.44-0.39,0.94-0.39,1.45
	v1.33H6.08c-0.52-0.01-1.02,0.13-1.47,0.39c-0.44,0.25-0.8,0.62-1.05,1.05c-0.26,0.44-0.39,0.94-0.39,1.44v8.57
	c0,0.51,0.13,1.01,0.39,1.45c0.25,0.44,0.61,0.81,1.05,1.07c0.44,0.26,0.95,0.4,1.47,0.39h1.63c0.17,0,0.33,0.04,0.47,0.12
	c0.14,0.08,0.26,0.18,0.36,0.31l0.61,1.7c0.09,0.12,0.21,0.23,0.34,0.3c0.27,0.14,0.6,0.14,0.88,0c0.13-0.07,0.24-0.17,0.32-0.3
	l0.64-1.7c0.1-0.13,0.22-0.23,0.35-0.31c0.14-0.08,0.29-0.12,0.45-0.12h1.66c0.51,0,1.01-0.13,1.44-0.39
	c0.44-0.26,0.8-0.62,1.05-1.07c0.26-0.44,0.4-0.94,0.41-1.45v-1.32h7.22c0.52,0.01,1.02-0.13,1.47-0.39
	c0.44-0.25,0.8-0.62,1.05-1.05c0.26-0.44,0.39-0.94,0.39-1.44V8.61c0-0.51-0.13-1.01-0.39-1.46c-0.25-0.44-0.61-0.81-1.05-1.07
	C24.94,5.83,24.44,5.69,23.92,5.7z M13.25,21.77l-0.69-0.71c-0.78,0.49-1.68,0.73-2.6,0.71c-0.87,0.01-1.72-0.2-2.47-0.63
	c-0.72-0.41-1.32-1-1.73-1.73c-0.84-1.53-0.84-3.37,0-4.9c0.41-0.72,1-1.32,1.72-1.74c0.75-0.43,1.6-0.65,2.46-0.64
	c0.87-0.01,1.72,0.21,2.47,0.64c0.73,0.41,1.33,1.01,1.74,1.74c0.42,0.75,0.64,1.59,0.63,2.45c0.02,1.23-0.43,2.42-1.28,3.31
	L15,21.77H13.25z M25.15,17.18c0,0.32-0.13,0.63-0.37,0.85c-0.23,0.23-0.54,0.36-0.86,0.35h-7.24v-1.23h0.33l0.99-2.22h3.98
	l0.97,2.22h1.52l-4.38-9.8l-3.41,7.22v-1.75c0-0.55-0.16-1.09-0.45-1.55c-0.29-0.47-0.72-0.85-1.23-1.08V8.61
	c0-0.67,0.54-1.2,1.21-1.21h1.66c0.28,0.01,0.56-0.04,0.82-0.17c0.2-0.12,0.37-0.29,0.48-0.5C19.31,6.51,19.42,6.26,19.5,6
	c0.11-0.28,0.2-0.49,0.26-0.63c0.05-0.13,0.18-0.21,0.32-0.2c0.13-0.01,0.26,0.06,0.3,0.19l0.24,0.64c0.09,0.29,0.21,0.58,0.35,0.85
	c0.11,0.19,0.27,0.34,0.46,0.43C21.71,7.38,22,7.42,22.3,7.4h1.63c0.32,0,0.64,0.12,0.86,0.36c0.24,0.22,0.37,0.53,0.37,0.85
	L25.15,17.18z M18.59,13.58l1.42-3.12l1.4,3.12H18.59z"/>
</svg>
