<?xml version="1.0" encoding="utf-8"?>
<!-- Generator: Adobe Illustrator 25.0.0, SVG Export Plug-In . SVG Version: 6.00 Build 0)  -->
<svg version="1.1" id="圖層_1" xmlns="http://www.w3.org/2000/svg" xmlns:xlink="http://www.w3.org/1999/xlink" x="0px" y="0px"
	 viewBox="0 0 204.62 119.71" style="enable-background:new 0 0 204.62 119.71;" xml:space="preserve">
<style type="text/css">
	.st0{fill:none;stroke:#1A1311;stroke-width:2.9723;stroke-miterlimit:10;}
	.st1{fill:#1A1311;}
	.st2{fill:#1A1311;stroke:#221613;stroke-width:0.3728;stroke-miterlimit:10;}
	.st3{fill:#1A1311;stroke:#1A1311;stroke-width:0.5;stroke-miterlimit:10;}
	.st4{font-family:'jf-openhuninn-1.1';}
	.st5{font-size:25.9105px;}
</style>
<ellipse class="st0" cx="164.26" cy="13.75" rx="12.15" ry="11.92"/>
<path class="st1" d="M134.97,8.23h-7.94c-0.85,0-1.54-0.69-1.54-1.54V5.46c0-0.85,0.69-1.54,1.54-1.54h7.94
	c0.85,0,1.54,0.69,1.54,1.54v1.23C136.51,7.54,135.82,8.23,134.97,8.23z"/>
<polygon class="st2" points="134.73,8.13 151.62,14.42 151.47,12.29 135.24,6.35 "/>
<path class="st1" d="M193.33,8.23h7.94c0.85,0,1.54-0.69,1.54-1.54V5.46c0-0.85-0.69-1.54-1.54-1.54h-7.94
	c-0.85,0-1.54,0.69-1.54,1.54v1.23C191.79,7.54,192.48,8.23,193.33,8.23z"/>
<polygon class="st2" points="193.57,8.13 176.68,14.42 176.82,12.29 193.06,6.35 "/>
<path class="st1" d="M166.03,119.56h-3.19c-2.19,0-3.97-1.78-3.97-3.97V74.94c0-2.19,1.78-3.97,3.97-3.97h3.19
	c2.19,0,3.97,1.78,3.97,3.97v40.64C170,117.78,168.22,119.56,166.03,119.56z"/>
<path class="st1" d="M180.83,24.67h-32.36c-4.27,0-7.73,3.46-7.73,7.73v55.34c0,4.27,3.46,7.73,7.73,7.73h8.06l0.16-19.2
	c0.03-4.23,3.48-7.64,7.71-7.64c4.26,0,7.71,3.45,7.71,7.71v19.13h8.73c4.27,0,7.73-3.46,7.73-7.73V32.41
	C188.56,28.14,185.1,24.67,180.83,24.67z M165.58,62.12c0,0.61-0.49,1.1-1.1,1.1c-0.61,0-1.1-0.49-1.1-1.1V33.95
	c0-0.61,0.49-1.1,1.1-1.1c0.61,0,1.1,0.49,1.1,1.1V62.12z"/>
<g>
	<path class="st1" d="M44.45,71.7H32.4L17.34,49.87V71.7l-8.02,0V19.01h7.98l0.05,16.27l14.55-16.27h11.35L23.43,41.77L44.45,71.7z"
		/>
</g>
<rect x="5.31" y="19.01" class="st1" width="1.66" height="52.69"/>
<g>
	<path class="st1" d="M117.91,71.7c-3.36,0-5.86-1.16-7.5-3.47c-1.36-1.94-2.04-4.51-2.04-7.7c0-3.04,0.69-5.55,2.08-7.53
		c1.64-2.37,4.06-3.56,7.27-3.56c1.74,0,3.26,0.4,4.54,1.21c1.72,1.08,3.45,3.6,3.07,6.25l-3.84-0.05c-0.1-2.45-1.97-3.69-3.92-3.68
		c-2.92,0.02-4.38,2.4-4.38,7.14c0,2.06,0.29,3.73,0.88,5.03c0.79,1.76,2.08,2.27,3.85,2.27c0.77,0,1.04,0.02,2-0.3
		c0.44-0.29,0.71-0.63,0.81-1v-2.88h-4.27v-4.39h9.04v10.08C123.45,71.09,121.04,71.7,117.91,71.7z"/>
</g>
<g>
	<path class="st1" d="M87.05,71.63h-4.69l-2.21-5.55h-7.34l-2.12,5.55h-4.51l8.33-22.19h3.83L87.05,71.63z M78.85,61.65l-1.46-2.98
		c-0.42-0.87-0.75-1.61-1.01-2.21h-0.04c-0.16,0.56-0.43,1.23-0.82,2.03l-1.5,3.16H78.85z"/>
</g>
<g>
	<path class="st1" d="M86.56,29.55c0,3.32-0.86,5.99-2.58,8.02c-1.84,2.13-4.34,3.2-7.5,3.2c-3.07,0-5.51-1.07-7.33-3.2
		c-1.76-2.05-2.64-4.75-2.64-8.08c0-3.12,0.8-5.68,2.39-7.7c1.8-2.31,4.34-3.46,7.64-3.46c3.12,0,5.6,1.08,7.44,3.23
		C85.7,23.59,86.56,26.26,86.56,29.55z M82,29.5c0-2.1-0.49-3.77-1.46-5c-0.94-1.22-2.28-1.83-4-1.83c-1.52,0-2.76,0.5-3.72,1.5
		c-1.17,1.2-1.75,2.99-1.75,5.38c0,2.32,0.58,4.09,1.73,5.33c0.97,1.05,2.22,1.58,3.74,1.58c2.08,0,3.6-0.89,4.56-2.68
		C81.7,32.65,82,31.22,82,29.5z"/>
</g>
<g>
	<path class="st1" d="M63.8,30.8c0,3.01-0.33,5.17-0.99,6.48c-1.21,2.33-3.6,3.49-7.16,3.49c-3.59,0-5.98-1.15-7.19-3.46
		c-0.7-1.31-1.05-3.45-1.05-6.42v-12h3.8v11.37c0,2.15,0.2,3.66,0.59,4.52c0.68,1.49,1.7,1.86,3.82,1.86c2.08,0,3.08-0.31,3.76-1.68
		c0.43-0.86,0.65-2.39,0.65-4.58V18.89h3.77V30.8z"/>
</g>
<g>
	<path class="st1" d="M63.8,61.66c0,3.01-0.33,5.17-0.99,6.48c-1.21,2.33-3.6,3.49-7.16,3.49c-3.59,0-5.98-1.15-7.19-3.46
		c-0.7-1.31-1.05-3.45-1.05-6.42v-12h3.8v11.37c0,2.15,0.2,3.66,0.59,4.52c0.68,1.49,1.7,1.86,3.82,1.86c2.08,0,3.08-0.31,3.76-1.68
		c0.43-0.86,0.65-2.39,0.65-4.58V49.75h3.77V61.66z"/>
</g>
<g>
	<path class="st1" d="M105.56,71.63h-3.77V60.14c0-2.19-0.22-3.72-0.65-4.58c-0.68-1.37-1.68-1.68-3.76-1.68
		c-2.11,0-3.14,0.37-3.82,1.86c-0.4,0.86-0.59,2.37-0.59,4.52v11.37h-3.8v-12c0-2.97,0.35-5.11,1.05-6.42
		c1.21-2.31,3.6-3.46,7.19-3.46c3.57,0,5.95,1.16,7.16,3.49c0.66,1.31,0.99,3.47,0.99,6.48V71.63z"/>
</g>
<text transform="matrix(0.9965 0 0 1 4.3211 106.0248)" class="st3 st4 st5">國光租車</text>
</svg>
