<?xml version="1.0" encoding="utf-8"?>
<!-- Generator: Adobe Illustrator 25.0.0, SVG Export Plug-In . SVG Version: 6.00 Build 0)  -->
<svg version="1.1" id="圖層_1" xmlns="http://www.w3.org/2000/svg" xmlns:xlink="http://www.w3.org/1999/xlink" x="0px" y="0px"
	 viewBox="0 0 28 38.75" style="enable-background:new 0 0 28 38.75;" xml:space="preserve">
<style type="text/css">
	.st0{fill:#1A1311;}
</style>
<g id="motorcycle-svgrepo-com" transform="translate(0)">
	<path id="Path_394" class="st0" d="M13.87,25.02c-1.87,0-3.39,1.52-3.39,3.39v6.94c0,1.88,1.52,3.4,3.39,3.4s3.4-1.52,3.4-3.4
		v-6.94C17.26,26.55,15.74,25.03,13.87,25.02L13.87,25.02z"/>
	<path id="Path_395" class="st0" d="M26.17,4.24h-6.53c-1-3.19-4.39-4.96-7.57-3.96C10.18,0.86,8.71,2.33,8.11,4.2L8.1,4.24H1.65
		C0.71,4.29,0,5.09,0.05,6.03C0.09,6.9,0.79,7.59,1.65,7.64h6.53c0.41,1.41,1.34,2.62,2.6,3.38l0.03,0.02
		c-4.7,1.4-7.94,5.7-7.97,10.6v8.91c0.01,1.54,1.26,2.79,2.8,2.8h2.29V28.5c0-3.33,2.7-6.02,6.02-6.02c3.33,0,6.02,2.7,6.02,6.02
		v4.84h2.29c1.54-0.01,2.79-1.26,2.8-2.8v-8.82c0-4.89-3.22-9.19-7.9-10.59l-0.08-0.02c1.26-0.75,2.2-1.95,2.62-3.35l0.01-0.04h6.53
		c0.94,0,1.7-0.76,1.7-1.7v0c-0.04-0.97-0.81-1.74-1.78-1.78l0,0L26.17,4.24z M13.87,9.41c-1.88,0-3.4-1.52-3.4-3.39
		s1.52-3.4,3.39-3.4s3.4,1.52,3.4,3.39v0c0,0.03,0,0.06,0,0.1c0,1.82-1.48,3.3-3.3,3.3c0,0,0,0,0,0
		C13.93,9.42,13.89,9.42,13.87,9.41L13.87,9.41L13.87,9.41z"/>
</g>
</svg>
