<?xml version="1.0" encoding="utf-8"?>
<!-- Generator: Adobe Illustrator 25.0.0, SVG Export Plug-In . SVG Version: 6.00 Build 0)  -->
<svg version="1.1" id="圖層_1" xmlns="http://www.w3.org/2000/svg" xmlns:xlink="http://www.w3.org/1999/xlink" x="0px" y="0px"
	 viewBox="0 0 39 43.3" style="enable-background:new 0 0 39 43.3;" xml:space="preserve">
<style type="text/css">
	.st0{enable-background:new    ;}
	.st1{fill:#1A1311;}
</style>
<g id="TOP" transform="translate(-1809.262 -2986.04)">
	<g class="st0">
		<path class="st1" d="M1813.8,3016h-4v-2.4h11v2.4h-4v10.2h-2.9V3016z"/>
		<path class="st1" d="M1821.3,3019.9c0-3.7,2.9-6.5,6.9-6.5c4,0,6.9,2.8,6.9,6.5s-2.9,6.5-6.9,6.5
			C1824.3,3026.5,1821.3,3023.7,1821.3,3019.9z M1832.2,3019.9c0-2.4-1.7-4-3.9-4s-3.9,1.6-3.9,4s1.7,4,3.9,4
			S1832.2,3022.3,1832.2,3019.9z"/>
		<path class="st1" d="M1848.3,3018.2c0,2.8-2.1,4.6-5.5,4.6h-2.5v3.5h-2.9v-12.6h5.5C1846.1,3013.6,1848.3,3015.4,1848.3,3018.2z
			 M1845.3,3018.2c0-1.4-0.9-2.2-2.7-2.2h-2.4v4.4h2.4C1844.4,3020.4,1845.3,3019.6,1845.3,3018.2z"/>
	</g>
	<path id="Icon_ionic-md-arrow-dropup" class="st1" d="M1811.7,3004.5l16.5-16.5l16.5,16.5H1811.7z"/>
</g>
</svg>
