<?xml version="1.0" encoding="utf-8"?>
<!-- Generator: Adobe Illustrator 25.0.0, SVG Export Plug-In . SVG Version: 6.00 Build 0)  -->
<svg version="1.1" id="圖層_1" xmlns="http://www.w3.org/2000/svg" xmlns:xlink="http://www.w3.org/1999/xlink" x="0px" y="0px"
	 viewBox="0 0 48 49.14" style="enable-background:new 0 0 48 49.14;" xml:space="preserve">
<style type="text/css">
	.st0{fill:#167EE6;}
	.st1{fill:#2860CC;}
	.st2{fill:#E6F3FF;}
	.st3{fill:#1470CC;}
	.st4{fill:#2354B3;}
	.st5{fill:#3199FF;}
</style>
<g id="business-google-svgrepo-com" transform="translate(-5.954)">
	<path id="Path_472" class="st0" d="M9.34,11.75v33.96c0,1.89,1.53,3.43,3.42,3.43c0,0,0.01,0,0.01,0h34.37
		c1.89,0,3.43-1.53,3.43-3.42c0,0,0-0.01,0-0.01V11.75c-0.44,0-10.35-11.71-10.35-11.71H20.11C20.11,0.04,9.78,11.75,9.34,11.75z"/>
	<path id="Path_473" class="st1" d="M47.14,49.14c1.89,0,3.43-1.53,3.43-3.42c0,0,0-0.01,0-0.01V18.16H29.95v30.98H47.14z"/>
	<path id="Path_474" class="st2" d="M40.64,45.94c-3.54,0-6.41-2.87-6.41-6.41c0-3.54,2.87-6.41,6.41-6.41
		c0.86,0,1.71,0.17,2.5,0.51c0.81,0.35,1.19,1.29,0.85,2.1c-0.35,0.81-1.29,1.19-2.1,0.85l0,0c-0.39-0.17-0.81-0.25-1.24-0.25
		c-1.77,0-3.2,1.44-3.2,3.21s1.44,3.2,3.21,3.2c1.15,0,2.2-0.61,2.78-1.6h-1.17c-0.89,0-1.6-0.72-1.6-1.6c0-0.89,0.72-1.6,1.6-1.6
		h3.2c0.88,0,1.6,0.72,1.6,1.6l0,0C47.04,43.06,44.18,45.93,40.64,45.94z"/>
	<path id="Path_475" class="st3" d="M48.04,1.9l5.91,18.67l-5.68,0.21l-5.75-0.21L39.1,0h5.89C46.28,0,47.46,0.74,48.04,1.9z"/>
	<path id="Path_476" class="st4" d="M42.53,20.57h11.43c-0.04,3.16-2.63,5.68-5.79,5.64C45.07,26.17,42.57,23.67,42.53,20.57z"/>
	<path id="Path_477" class="st5" d="M39.1,0l3.43,20.57l-6.38,0.21l-6.2-0.21V0H39.1z"/>
	<path id="Path_478" class="st0" d="M42.53,20.57c-0.33,3.47-3.41,6.02-6.88,5.69c-3.02-0.29-5.41-2.67-5.69-5.69H42.53z"/>
	<path id="Path_479" class="st3" d="M29.96,0v20.57l-6.2,0.21l-6.38-0.21L20.81,0H29.96z"/>
	<path id="Path_480" class="st4" d="M29.96,20.57c-0.33,3.47-3.41,6.02-6.88,5.69c-3.02-0.29-5.41-2.67-5.69-5.69H29.96z"/>
	<path id="Path_481" class="st5" d="M20.81,0l-3.43,20.57l-6.07,0.21l-5.36-0.21L11.86,1.9C12.44,0.74,13.63,0,14.93,0H20.81z"/>
	<path id="Path_482" class="st0" d="M17.38,20.57c0,3.16-2.56,5.71-5.71,5.71s-5.71-2.56-5.71-5.71H17.38z"/>
</g>
</svg>
