<?xml version="1.0" encoding="utf-8"?>
<!-- Generator: Adobe Illustrator 25.0.0, SVG Export Plug-In . SVG Version: 6.00 Build 0)  -->
<svg version="1.1" id="圖層_1" xmlns="http://www.w3.org/2000/svg" xmlns:xlink="http://www.w3.org/1999/xlink" x="0px" y="0px"
	 viewBox="0 0 52 50.14" style="enable-background:new 0 0 52 50.14;" xml:space="preserve">
<style type="text/css">
	.st0{fill:#2CCF54;}
	.st1{fill:#FFFFFF;}
</style>
<g id="line-svgrepo-com" transform="translate(-2 -3)">
	<path id="Path_419" class="st0" d="M54,24.35C54,12.58,42.34,3,28,3S2,12.58,2,24.35c0,10.56,9.25,19.4,21.74,21.07
		c0.85,0.19,2,0.56,2.29,1.3c0.2,0.78,0.23,1.59,0.08,2.38c0,0-0.31,1.86-0.37,2.25c-0.11,0.67-0.52,2.6,2.25,1.42
		s14.97-8.92,20.43-15.28C52.2,33.31,54,29.06,54,24.35z"/>
	<path id="Path_420" class="st1" d="M22.72,18.64h-1.82c-0.28,0-0.51,0.23-0.51,0.51c0,0,0,0,0,0v11.45c0,0.28,0.23,0.51,0.51,0.51
		c0,0,0,0,0,0h1.82c0.28,0,0.51-0.23,0.51-0.51V19.15C23.22,18.87,23,18.64,22.72,18.64z"/>
	<path id="Path_421" class="st1" d="M35.27,18.64h-1.82c-0.28,0-0.51,0.23-0.51,0.51v6.8l-5.19-7.09c-0.1-0.14-0.25-0.22-0.42-0.23
		H25.5c-0.28,0-0.51,0.23-0.51,0.51c0,0,0,0,0,0v11.46c0,0.28,0.23,0.51,0.51,0.51c0,0,0,0,0,0h1.82c0.28,0,0.51-0.23,0.51-0.51
		c0,0,0,0,0,0v-6.8l5.2,7.1c0.1,0.13,0.25,0.22,0.42,0.22h1.82c0.28,0,0.51-0.23,0.51-0.51c0,0,0,0,0,0V19.15
		C35.78,18.87,35.55,18.64,35.27,18.64C35.27,18.64,35.27,18.64,35.27,18.64z"/>
	<path id="Path_422" class="st1" d="M18.32,28.25h-4.96v-9.09c0-0.28-0.22-0.51-0.51-0.51c0,0,0,0,0,0h-1.82
		c-0.28,0-0.51,0.23-0.51,0.51c0,0,0,0,0,0v11.45c0,0.28,0.22,0.51,0.51,0.51h7.29c0.28,0,0.51-0.23,0.5-0.51v-1.85
		C18.83,28.48,18.6,28.25,18.32,28.25C18.32,28.25,18.32,28.25,18.32,28.25z"/>
	<path id="Path_423" class="st1" d="M45.34,21.51c0.28,0,0.51-0.23,0.51-0.51c0,0,0,0,0,0v-1.84c0-0.28-0.22-0.51-0.51-0.51
		c0,0,0,0,0,0h-7.28c-0.28,0-0.51,0.23-0.51,0.51v11.45c0,0.28,0.22,0.51,0.51,0.51h7.29c0.28,0,0.51-0.23,0.51-0.51c0,0,0,0,0,0
		v-1.84c0-0.28-0.22-0.51-0.51-0.51c0,0,0,0,0,0h-4.95v-1.93h4.95c0.28,0,0.51-0.23,0.51-0.51c0,0,0,0,0,0v-1.85
		c0-0.28-0.22-0.51-0.51-0.51c0,0,0,0,0,0h-4.95v-1.94H45.34z"/>
</g>
</svg>
