<?xml version="1.0" encoding="utf-8"?>
<!-- Generator: Adobe Illustrator 25.0.0, SVG Export Plug-In . SVG Version: 6.00 Build 0)  -->
<svg version="1.1" id="圖層_1" xmlns="http://www.w3.org/2000/svg" xmlns:xlink="http://www.w3.org/1999/xlink" x="0px" y="0px"
	 viewBox="0 0 20.35 20.35" style="enable-background:new 0 0 20.35 20.35;" xml:space="preserve">
<style type="text/css">
	.st0{fill:#F8B11B;}
</style>
<g id="Group_871" transform="translate(-56 -901.999)">
	<path id="Icon_metro-phone" class="st0" d="M70.33,914.54c-1.3,1.3-1.3,2.6-2.6,2.6c-1.3,0-2.6-1.3-3.91-2.6
		c-1.31-1.3-2.6-2.6-2.6-3.91c0-1.31,1.3-1.3,2.6-2.6c1.3-1.3-2.61-5.21-3.91-5.21c-1.3,0-3.91,3.91-3.91,3.91
		c0,2.6,2.68,7.88,5.21,10.42c2.53,2.53,7.81,5.21,10.42,5.21c0,0,3.91-2.6,3.91-3.91C75.53,917.14,71.63,913.23,70.33,914.54z"/>
	<path id="Icon_metro-phone-in-talk" class="st0" d="M74,912.58h2.35c0-5.85-4.74-10.58-10.58-10.58v2.35
		C70.31,904.35,74,908.04,74,912.58z M69.3,912.58h2.35c0-3.25-2.63-5.88-5.88-5.88v2.35C67.72,909.06,69.29,910.63,69.3,912.58
		L69.3,912.58z"/>
</g>
</svg>
