<?xml version="1.0" encoding="utf-8"?>
<!-- Generator: Adobe Illustrator 25.0.0, SVG Export Plug-In . SVG Version: 6.00 Build 0)  -->
<svg version="1.1" id="圖層_1" xmlns="http://www.w3.org/2000/svg" xmlns:xlink="http://www.w3.org/1999/xlink" x="0px" y="0px"
	 viewBox="0 0 23.65 23.65" style="enable-background:new 0 0 23.65 23.65;" xml:space="preserve">
<style type="text/css">
	.st0{fill:#F8B11B;}
	.st1{fill:#FFFFFF;}
</style>
<path id="Path_397" class="st0" d="M11.82,0C5.29,0,0,5.29,0,11.82s5.29,11.82,11.82,11.82s11.82-5.29,11.82-11.82l0,0
	C23.65,5.29,18.36,0,11.82,0z"/>
<path id="Icon_weather-time-10" class="st1" d="M5.31,11.84C5.3,10.69,5.6,9.55,6.19,8.56c0.57-0.99,1.39-1.81,2.38-2.38
	c1.77-1.02,3.91-1.16,5.79-0.36c0.78,0.33,1.48,0.8,2.08,1.39c0.6,0.6,1.07,1.3,1.39,2.08c1.41,3.29-0.11,7.09-3.39,8.5
	c-0.02,0.01-0.05,0.02-0.07,0.03c-1.62,0.69-3.45,0.69-5.07,0c-1.57-0.65-2.82-1.89-3.47-3.46C5.48,13.57,5.3,12.71,5.31,11.84z
	 M6.74,11.84c-0.01,1.35,0.53,2.64,1.5,3.58c1.62,1.64,4.14,1.97,6.13,0.82c0.77-0.45,1.41-1.08,1.86-1.85
	c0.92-1.57,0.92-3.52,0-5.09c-0.45-0.77-1.09-1.41-1.86-1.86c-1.57-0.91-3.51-0.91-5.08,0C8.52,7.88,7.88,8.52,7.43,9.29
	C6.97,10.06,6.73,10.94,6.74,11.84z M9.01,10.64c-0.04-0.12-0.02-0.25,0.04-0.36c0.06-0.12,0.17-0.2,0.3-0.23
	c0.12-0.04,0.26-0.02,0.37,0.04L11.33,11V7.98c0-0.27,0.22-0.48,0.48-0.48s0.48,0.22,0.48,0.48v3.86c0,0.26-0.22,0.48-0.48,0.48
	c-0.12,0-0.23-0.04-0.32-0.12l-2.26-1.25C9.13,10.87,9.05,10.77,9.01,10.64z"/>
</svg>
