<?xml version="1.0" encoding="utf-8"?>
<!-- Generator: Adobe Illustrator 25.0.0, SVG Export Plug-In . SVG Version: 6.00 Build 0)  -->
<svg version="1.1" id="圖層_1" xmlns="http://www.w3.org/2000/svg" xmlns:xlink="http://www.w3.org/1999/xlink" x="0px" y="0px"
	 viewBox="0 0 429.76 98.41" style="enable-background:new 0 0 429.76 98.41;" xml:space="preserve">
<style type="text/css">
	.st0{fill:none;stroke:#171714;stroke-miterlimit:10;}
	.st1{fill:#1A1311;}
	.st2{font-family:'YuGothicUI-Bold';}
	.st3{font-size:35px;}
	.st4{letter-spacing:3;}
</style>
<g id="結帳方式" transform="translate(-938.022 -2475.797)">
	<path id="Path_462" class="st0" d="M980.48,2476.75c-2.88,3.55-13.96,15.78-30.11,16c-1.09,0.02-2.04,0.72-2.39,1.75l-9.83,28.97
		c-0.18,0.53-0.18,1.1-0.01,1.63l9.8,30.33c0.33,1.04,1.28,1.76,2.37,1.79c5.01,0.16,19.42,1.87,28.5,15.76
		c0.48,0.75,1.3,1.21,2.19,1.21h342.22c0.82,0,1.59-0.39,2.08-1.05c2.78-3.73,13.31-16.11,30.28-16.09c1.1-0.01,2.08-0.72,2.43-1.77
		l9.62-28.78c0.17-0.52,0.18-1.09,0.01-1.61l-9.65-30.21c-0.33-1.03-1.26-1.75-2.34-1.8c-5.01-0.22-19.55-2.07-29.01-15.93
		c-0.48-0.72-1.29-1.16-2.16-1.17h-342C981.71,2475.8,980.98,2476.15,980.48,2476.75z"/>
	<text transform="matrix(1 0 0 1 1104.3296 2539.2976)" class="st1 st2 st3 st4">結帳方式</text>
	<path id="Path_463" d="M1067.14,2541.66c9.2,0,16.66-7.46,16.66-16.66c0-9.2-7.46-16.66-16.66-16.66c-9.2,0-16.66,7.46-16.66,16.66
		c0,0,0,0,0,0C1050.49,2534.2,1057.94,2541.65,1067.14,2541.66z M1067.14,2510.19c8.18,0,14.81,6.63,14.81,14.81
		c0,8.18-6.63,14.81-14.81,14.81c-8.18,0-14.81-6.63-14.81-14.81C1052.34,2516.83,1058.96,2510.2,1067.14,2510.19z"/>
	<path id="Path_464" d="M1067.13,2529.63c-1.02,0-1.85-0.83-1.85-1.85c0.02-0.51-0.38-0.94-0.9-0.96c-0.51-0.02-0.94,0.38-0.96,0.9
		c0,0.02,0,0.04,0,0.06c0.01,1.68,1.15,3.15,2.78,3.57v0.13c-0.02,0.51,0.38,0.94,0.9,0.96c0.51,0.02,0.94-0.38,0.96-0.9
		c0-0.02,0-0.04,0-0.06v-0.13c1.98-0.51,3.17-2.52,2.66-4.5c-0.42-1.63-1.89-2.77-3.58-2.77c-1.02,0-1.85-0.83-1.85-1.85
		c0-1.02,0.83-1.85,1.85-1.85c1.02,0,1.85,0.83,1.85,1.85c-0.02,0.51,0.38,0.94,0.9,0.96s0.94-0.38,0.96-0.9c0-0.02,0-0.04,0-0.06
		c-0.01-1.68-1.15-3.15-2.78-3.57v-0.13c-0.02-0.51-0.44-0.91-0.96-0.9c-0.49,0.02-0.88,0.41-0.9,0.9v0.13
		c-1.98,0.51-3.17,2.52-2.66,4.5c0.42,1.63,1.89,2.77,3.58,2.77c1.02-0.03,1.88,0.77,1.91,1.79c0.03,1.02-0.77,1.88-1.79,1.91
		C1067.21,2529.63,1067.17,2529.63,1067.13,2529.63z"/>
</g>
</svg>
