<?xml version="1.0" encoding="utf-8"?>
<!-- Generator: Adobe Illustrator 25.0.0, SVG Export Plug-In . SVG Version: 6.00 Build 0)  -->
<svg version="1.1" id="圖層_1" xmlns="http://www.w3.org/2000/svg" xmlns:xlink="http://www.w3.org/1999/xlink" x="0px" y="0px"
	 viewBox="0 0 162 162" style="enable-background:new 0 0 162 162;" xml:space="preserve">
<style type="text/css">
	.st0{fill:#FFFFFF;}
	.st1{stroke:#000000;stroke-width:2;}
</style>
<g id="money-svgrepo-com" transform="translate(42.983 42.569)">
	<circle id="Ellipse_9" class="st0" cx="38.02" cy="38.43" r="81"/>
	<g id="Group_32" transform="translate(0 0.009)">
		<path id="Path_442" class="st1" d="M51.23,46.11c12.73,0,23.05-10.32,23.05-23.05S63.96,0,51.23,0C38.5,0,28.18,10.32,28.18,23.05
			c0,0,0,0,0,0C28.19,35.78,38.5,46.09,51.23,46.11z M51.23,2.56c11.32,0,20.49,9.17,20.49,20.49s-9.17,20.49-20.49,20.49
			s-20.49-9.17-20.49-20.49l0,0C30.75,11.74,39.92,2.57,51.23,2.56L51.23,2.56z"/>
		<path id="Path_443" class="st1" d="M51.23,29.46c-1.41,0-2.56-1.15-2.56-2.56c-0.02-0.71-0.61-1.26-1.32-1.24
			c-0.68,0.02-1.23,0.57-1.24,1.24c0.01,2.33,1.59,4.36,3.84,4.94v0.18c-0.02,0.71,0.54,1.3,1.24,1.32c0.71,0.02,1.3-0.54,1.32-1.24
			c0-0.02,0-0.05,0-0.07v-0.18c2.73-0.7,4.38-3.49,3.68-6.22c-0.58-2.27-2.63-3.85-4.96-3.84c-1.41,0-2.56-1.15-2.56-2.56
			s1.15-2.56,2.56-2.56c1.41,0,2.56,1.15,2.56,2.56c-0.02,0.71,0.54,1.3,1.24,1.32c0.71,0.02,1.3-0.54,1.32-1.24
			c0-0.02,0-0.05,0-0.07c-0.01-2.33-1.59-4.36-3.85-4.94v-0.18c-0.02-0.71-0.61-1.26-1.32-1.24c-0.68,0.02-1.23,0.57-1.24,1.24v0.18
			c-2.73,0.7-4.38,3.49-3.68,6.22c0.58,2.27,2.63,3.85,4.96,3.84c1.41,0,2.56,1.15,2.56,2.56S52.64,29.45,51.23,29.46L51.23,29.46
			L51.23,29.46z"/>
		<path id="Path_445" class="st1" d="M6.4,68.52c0-1.06-0.86-1.92-1.92-1.92c-1.06,0-1.92,0.86-1.92,1.92
			c0,1.06,0.86,1.92,1.92,1.92c0,0,0,0,0,0C5.54,70.44,6.4,69.58,6.4,68.52z"/>
		<path id="Path_446" class="st1" d="M76.16,53.79c-1.39-2.42-4.48-3.28-6.92-1.92L54.5,59.05c-2.29,1.15-4.6,1.15-9.67,1.15
			c-4.22-0.15-8.43-0.57-12.6-1.26c-0.7-0.12-1.36,0.36-1.47,1.05s0.36,1.36,1.05,1.47c4.31,0.72,8.65,1.16,13.02,1.3
			c5.32,0,7.99,0,10.81-1.41l14.81-7.21c1.23-0.7,2.8-0.27,3.49,0.96c0.7,1.23,0.27,2.8-0.96,3.49L55.65,69.37
			c-0.04,0.02-3.73,2.35-12.1,2.35c-7.26,0-18.48-6.18-18.64-6.27c-0.12-0.06-2.89-1.42-8.26-1.42c-0.71-0.02-1.3,0.54-1.32,1.24
			c-0.02,0.71,0.54,1.3,1.24,1.32c0.02,0,0.05,0,0.07,0c2.41-0.1,4.81,0.28,7.06,1.12l0,0c0.48,0.27,11.91,6.57,19.83,6.57
			c9.25,0,13.35-2.66,13.48-2.76l17.25-10.74C76.74,59.37,77.58,56.24,76.16,53.79C76.16,53.79,76.16,53.79,76.16,53.79L76.16,53.79
			z"/>
		<path id="Path_447" class="st1" d="M16.65,48.67H26.9c1.5,0,4.03,1.91,6.28,3.59c2.81,2.11,5.47,4.1,7.81,4.1h7.69
			c1.06-0.06,2.1,0.26,2.94,0.9c0.51,0.49,1.32,0.47,1.81-0.05c0.47-0.49,0.47-1.27,0-1.76c-1.31-1.14-3.01-1.73-4.75-1.66h-7.68
			c-1.5,0-4.03-1.91-6.28-3.59c-2.81-2.11-5.47-4.1-7.81-4.1H16.65c-0.71,0.02-1.26,0.61-1.24,1.32
			C15.42,48.1,15.97,48.65,16.65,48.67L16.65,48.67z"/>
		<path id="Path_448" class="st1" d="M8.97,40.98H1.28C0.57,41,0.02,41.59,0.04,42.3c0.02,0.68,0.57,1.23,1.24,1.24h7.68
			c0.71,0,1.28,0.57,1.28,1.28V73c0,0.71-0.57,1.28-1.28,1.28H1.28c-0.71,0.02-1.26,0.61-1.24,1.32c0.02,0.68,0.57,1.23,1.24,1.24
			h7.68c2.12,0,3.84-1.72,3.84-3.84V44.82C12.8,42.7,11.09,40.99,8.97,40.98z"/>
	</g>
</g>
</svg>
