<?xml version="1.0" encoding="utf-8"?>
<!-- Generator: Adobe Illustrator 25.0.0, SVG Export Plug-In . SVG Version: 6.00 Build 0)  -->
<svg version="1.1" id="圖層_1" xmlns="http://www.w3.org/2000/svg" xmlns:xlink="http://www.w3.org/1999/xlink" x="0px" y="0px"
	 viewBox="0 0 429.76 98.41" style="enable-background:new 0 0 429.76 98.41;" xml:space="preserve">
<style type="text/css">
	.st0{fill:none;stroke:#171714;stroke-miterlimit:10;}
	.st1{enable-background:new    ;}
	.st2{fill:#1A1311;}
</style>
<g id="訂購人資料" transform="translate(-938.022 -2475.797)">
	<path id="Path_462" class="st0" d="M980.48,2477.06c-2.88,3.55-13.96,15.78-30.11,16c-1.09,0.02-2.04,0.72-2.39,1.75l-9.83,28.97
		c-0.18,0.53-0.18,1.1-0.01,1.63l9.8,30.33c0.33,1.04,1.28,1.76,2.37,1.79c5.01,0.16,19.42,1.87,28.5,15.76
		c0.48,0.75,1.3,1.21,2.19,1.22h342.22c0.82,0,1.59-0.39,2.08-1.05c2.78-3.73,13.31-16.11,30.28-16.09c1.1-0.01,2.08-0.72,2.43-1.77
		l9.62-28.78c0.17-0.52,0.18-1.09,0.01-1.61l-9.65-30.21c-0.33-1.03-1.26-1.75-2.34-1.8c-5.01-0.22-19.55-2.07-29.01-15.93
		c-0.48-0.72-1.29-1.16-2.16-1.17h-342C981.71,2476.11,980.98,2476.46,980.48,2477.06z"/>
	<g class="st1">
		<path class="st2" d="M1086.27,2516.4h5.79l3.69-0.07c0.18,0,0.29,0.02,0.32,0.07c0.03,0.05,0.05,0.15,0.05,0.31v2.5
			c0,0.19-0.02,0.31-0.07,0.36c-0.04,0.03-0.15,0.05-0.31,0.05l-3.69-0.07h-5.79l-3.64,0.07c-0.19,0-0.31-0.02-0.34-0.07
			c-0.03-0.06-0.05-0.17-0.05-0.34v-2.5c0-0.18,0.02-0.29,0.07-0.32c0.05-0.03,0.15-0.05,0.32-0.05L1086.27,2516.4z
			 M1094.96,2541.39c0,0.18-0.02,0.3-0.07,0.34c-0.05,0.03-0.15,0.05-0.33,0.05h-2.72c-0.19,0-0.31-0.02-0.34-0.07
			c-0.03-0.04-0.05-0.15-0.05-0.32v-0.97h-4.17v1.64c0,0.26-0.11,0.39-0.34,0.39h-2.7c-0.21,0-0.33-0.02-0.38-0.07
			c-0.03-0.05-0.05-0.15-0.05-0.33l0.07-5.28v-2.31l-0.07-3.28c0-0.19,0.03-0.31,0.09-0.34c0.05-0.03,0.16-0.05,0.34-0.05l3.11,0.07
			h4.03l3.18-0.07c0.19,0,0.31,0.02,0.34,0.07c0.04,0.05,0.05,0.15,0.05,0.32l-0.07,2.68v2.5L1094.96,2541.39z M1087.42,2511.68
			h3.67l3.11-0.07c0.21,0,0.33,0.02,0.38,0.07c0.03,0.05,0.05,0.15,0.05,0.31v2.36c0,0.18-0.03,0.29-0.08,0.32
			c-0.05,0.03-0.16,0.05-0.34,0.05l-3.11-0.07h-3.67l-3.11,0.07c-0.18,0-0.3-0.02-0.34-0.07c-0.03-0.05-0.05-0.15-0.05-0.31v-2.36
			c0-0.18,0.03-0.29,0.09-0.32c0.03-0.03,0.14-0.05,0.31-0.05L1087.42,2511.68z M1087.52,2521.41h3.67l2.87-0.07
			c0.21,0,0.33,0.02,0.38,0.07c0.03,0.05,0.05,0.15,0.05,0.31v2.26c0,0.18-0.03,0.29-0.08,0.32c-0.05,0.03-0.16,0.05-0.34,0.05
			l-2.87-0.07h-3.67l-2.91,0.07c-0.18,0-0.29-0.02-0.32-0.07c-0.03-0.05-0.05-0.15-0.05-0.31v-2.26c0-0.18,0.02-0.29,0.07-0.32
			c0.05-0.03,0.15-0.05,0.31-0.05L1087.52,2521.41z M1087.52,2526.09h3.67l2.87-0.07c0.21,0,0.33,0.02,0.38,0.07
			c0.03,0.04,0.05,0.15,0.05,0.31v2.29c0,0.16-0.03,0.26-0.08,0.29c-0.05,0.03-0.16,0.05-0.34,0.05l-2.87-0.07h-3.67l-2.91,0.07
			c-0.25,0-0.38-0.11-0.38-0.34v-2.29c0-0.18,0.02-0.29,0.07-0.32c0.05-0.03,0.15-0.05,0.31-0.05L1087.52,2526.09z M1091.45,2533.83
			h-4.17v3.61h4.17V2533.83z M1101.81,2516.2l-4.41,0.07c-0.19,0-0.31-0.03-0.34-0.09c-0.04-0.05-0.05-0.16-0.05-0.34v-2.87
			c0-0.19,0.02-0.31,0.07-0.36c0.04-0.03,0.15-0.05,0.33-0.05l4.41,0.07h7.59l4.41-0.07c0.18,0,0.29,0.03,0.32,0.09
			c0.03,0.05,0.05,0.15,0.05,0.32v2.87c0,0.21-0.02,0.33-0.07,0.38c-0.04,0.03-0.15,0.05-0.31,0.05l-4.41-0.07h-0.56v15.64
			c0,0.43,0.03,2.3,0.1,5.61c0,0.96-0.1,1.69-0.29,2.2c-0.19,0.49-0.53,0.91-1.01,1.26c-0.79,0.6-2.69,0.91-5.72,0.91
			c-0.59,0-0.94-0.06-1.04-0.17c-0.09-0.1-0.19-0.42-0.29-0.96c-0.17-1-0.47-1.9-0.91-2.68c0.96,0.09,2.23,0.14,3.81,0.14
			c0.65,0,1.08-0.11,1.3-0.33c0.18-0.18,0.27-0.53,0.27-1.04v-20.58H1101.81z"/>
		<path class="st2" d="M1119.77,2540.58c1.45-1.55,2.51-3.22,3.18-5.01c0.18-0.42,0.33-0.92,0.43-1.5c0.92,0.27,1.78,0.6,2.58,0.99
			c0.31,0.14,0.46,0.27,0.46,0.41c0,0.19-0.09,0.38-0.27,0.56c-0.18,0.22-0.36,0.52-0.53,0.91c-0.83,1.97-1.7,3.55-2.6,4.73
			c-0.33,0.44-0.55,0.67-0.65,0.67c-0.14,0-0.36-0.14-0.67-0.43C1121.04,2541.32,1120.39,2540.88,1119.77,2540.58z M1127.97,2511.68
			l3.04-0.07c0.23,0,0.34,0.13,0.34,0.39l-0.07,4.7v11.74l0.07,4.72c0,0.26-0.11,0.39-0.34,0.39l-3.04-0.07h-2.92l-2.97,0.07
			c-0.18,0-0.29-0.02-0.32-0.07c-0.04-0.04-0.05-0.15-0.05-0.33l0.07-4.72v-11.74l-0.07-4.7c0-0.19,0.02-0.31,0.07-0.34
			c0.04-0.03,0.15-0.05,0.31-0.05l2.97,0.07H1127.97z M1124.81,2514.59v3.49h3.47v-3.49H1124.81z M1124.81,2524.24h3.47v-3.37h-3.47
			V2524.24z M1128.28,2530.65v-3.64h-3.47v3.64H1128.28z M1132.89,2539.47c-0.75,0.4-1.38,0.85-1.9,1.37
			c-0.27,0.27-0.48,0.41-0.62,0.41c-0.16,0-0.39-0.25-0.7-0.73c-1.08-1.66-1.94-3.33-2.56-5.01c-0.03-0.1-0.05-0.18-0.05-0.24
			c0-0.12,0.12-0.24,0.38-0.34l1.57-0.7c0.22-0.1,0.36-0.15,0.44-0.15c0.09,0,0.18,0.1,0.26,0.29
			C1130.77,2536.57,1131.83,2538.28,1132.89,2539.47z M1143.45,2539.22c0.88,0.09,1.77,0.14,2.67,0.14c0.47,0,0.78-0.09,0.92-0.26
			c0.11-0.14,0.17-0.38,0.17-0.72v-2.07h-10.34v1.79l0.07,3.88c0,0.24-0.13,0.36-0.38,0.36H1134c-0.25,0-0.38-0.12-0.38-0.36
			l0.07-3.81v-1.83l-1.47,0.03c-0.21,0-0.33-0.02-0.36-0.07c-0.05-0.04-0.07-0.16-0.07-0.34v-1.79c0-0.17,0.02-0.28,0.07-0.32
			c0.04-0.04,0.16-0.06,0.36-0.06c0.01,0,0.17,0.01,0.46,0.02c0.32,0.02,0.65,0.04,1.01,0.05v-3.95l-0.07-3.86
			c0-0.18,0.02-0.29,0.07-0.32c0.04-0.03,0.15-0.05,0.32-0.05l4.36,0.07h2v-1.64h-3.01l-4.72,0.07c-0.19,0-0.31-0.02-0.34-0.07
			c-0.03-0.05-0.05-0.15-0.05-0.32v-1.81c0-0.19,0.02-0.31,0.07-0.34c0.04-0.03,0.15-0.05,0.32-0.05l4.32,0.07v-1.85
			c-0.87,0.01-1.65,0.03-2.34,0.05c-0.47,0.01-0.71,0.02-0.73,0.02c-0.18,0-0.29-0.02-0.32-0.07c-0.04-0.06-0.05-0.18-0.05-0.36
			v-1.64c0-0.23,0.12-0.34,0.38-0.34l3.08,0.07v-1.86c-1.08,0.01-2.04,0.03-2.89,0.05c-0.03,0-0.25,0.01-0.63,0.02
			c-0.11,0-0.19,0-0.22,0c-0.18,0-0.29-0.02-0.33-0.07c-0.03-0.05-0.05-0.15-0.05-0.31v-1.73c0-0.19,0.02-0.31,0.07-0.36
			c0.05-0.03,0.15-0.05,0.31-0.05l3.74,0.07v-0.21c0-1.36-0.07-2.26-0.21-2.7c1.49,0.09,2.56,0.17,3.21,0.24
			c0.35,0.03,0.53,0.14,0.53,0.32c0,0.21-0.06,0.38-0.17,0.53c-0.14,0.22-0.21,0.8-0.21,1.74v0.07h3.57v-0.21
			c0-1.26-0.07-2.16-0.21-2.7c1.48,0.09,2.55,0.17,3.21,0.24c0.35,0.03,0.53,0.14,0.53,0.32c0,0.16-0.06,0.34-0.17,0.53
			c-0.15,0.22-0.22,0.8-0.22,1.74v0.07l4.48-0.07c0.18,0,0.3,0.02,0.34,0.07c0.03,0.06,0.05,0.17,0.05,0.34v1.73
			c0,0.18-0.02,0.29-0.07,0.32c-0.04,0.03-0.15,0.05-0.32,0.05l-4.48-0.07v1.86l3.61-0.07c0.26,0,0.39,0.11,0.39,0.34v1.64
			c0,0.21-0.03,0.33-0.09,0.38c-0.03,0.03-0.14,0.05-0.31,0.05c-0.05,0-0.21-0.01-0.48-0.02c-0.93-0.02-1.98-0.04-3.13-0.05v1.85
			h0.56l4.68-0.07c0.18,0,0.3,0.02,0.34,0.07c0.03,0.05,0.05,0.15,0.05,0.32v1.81c0,0.19-0.02,0.31-0.07,0.34
			c-0.05,0.03-0.15,0.05-0.32,0.05l-4.68-0.07h-4v1.64h2.26l4.39-0.07c0.19,0,0.31,0.02,0.34,0.07c0.03,0.04,0.05,0.15,0.05,0.31
			l-0.07,4.17v3.64c0.46-0.01,0.91-0.03,1.35-0.05c0.28-0.01,0.44-0.02,0.46-0.02c0.19,0,0.31,0.02,0.34,0.07
			c0.04,0.05,0.05,0.15,0.05,0.31v1.79c0,0.18-0.02,0.3-0.06,0.34c-0.04,0.05-0.15,0.07-0.33,0.07l-1.78-0.03
			c0.05,1.12,0.07,1.83,0.07,2.14c0,1.36-0.27,2.29-0.8,2.8c-0.34,0.32-0.82,0.53-1.44,0.63c-0.56,0.1-1.46,0.16-2.7,0.17
			c-0.55,0-0.87-0.06-0.97-0.17c-0.09-0.09-0.19-0.39-0.31-0.91C1144.08,2540.36,1143.81,2539.76,1143.45,2539.22z M1136.87,2529.92
			h3.5v-1.79h-3.5V2529.92z M1136.87,2533.87h3.5v-1.85h-3.5V2533.87z M1140.14,2517.53h3.57v-1.86h-3.57V2517.53z M1140.14,2521.65
			h3.57v-1.85h-3.57V2521.65z M1147.21,2528.12h-3.79v1.79h3.79V2528.12z M1143.42,2533.87h3.79v-1.85h-3.79V2533.87z"/>
		<path class="st2" d="M1190.93,2538.14c-0.8,0.76-1.45,1.67-1.96,2.73c-0.26,0.56-0.47,0.84-0.63,0.84c-0.11,0-0.38-0.14-0.8-0.43
			c-6.49-4.18-10.61-9.76-12.36-16.73c-1.87,7.44-6.09,13.03-12.66,16.77c-0.43,0.24-0.7,0.36-0.8,0.36c-0.17,0-0.4-0.28-0.7-0.84
			c-0.51-0.84-1.19-1.63-2.03-2.36c4.77-2.21,8.35-5.59,10.72-10.13c1.96-3.75,2.92-7.98,2.89-12.68c-0.05-1.97-0.13-3.49-0.24-4.55
			c1.36,0.07,2.79,0.21,4.31,0.43c0.44,0.06,0.67,0.24,0.67,0.55c0,0.22-0.11,0.51-0.34,0.87c-0.19,0.32-0.29,1.09-0.29,2.32
			c-0.02,0.27-0.03,0.69-0.03,1.25c0.81,5.49,2.49,10.04,5.04,13.64C1183.95,2533.36,1187.03,2536.02,1190.93,2538.14z"/>
		<path class="st2" d="M1219.5,2537.2c2.29,1.16,5.47,1.94,9.55,2.34c-0.55,0.51-1.12,1.24-1.71,2.17c-0.3,0.45-0.56,0.67-0.8,0.67
			c-0.24,0-0.52-0.02-0.84-0.07c-1.69-0.25-3.46-0.72-5.33-1.4c-1.64-0.62-3.05-1.29-4.24-2.03c-0.14-0.09-0.21-0.17-0.21-0.24
			c0-0.09,0.13-0.18,0.39-0.27l2.65-1.26h-11.76c0.75,0.3,1.74,0.73,2.97,1.3c0.33,0.09,0.5,0.25,0.5,0.48
			c0,0.21-0.18,0.35-0.53,0.43c-0.25,0.05-0.73,0.26-1.44,0.63c-2.32,1.17-4.98,1.99-7.98,2.44c-0.37,0.04-0.6,0.07-0.7,0.07
			c-0.3,0-0.59-0.25-0.87-0.74c-0.43-0.77-0.96-1.45-1.57-2.02c3.18-0.32,5.8-0.89,7.88-1.73c0.64-0.27,1.16-0.56,1.57-0.87
			l-4.24,0.07c-0.18,0-0.29-0.02-0.33-0.07c-0.03-0.06-0.05-0.18-0.05-0.36l0.07-3.44v-5.98l-0.07-3.47c0-0.18,0.02-0.29,0.07-0.32
			c0.04-0.03,0.15-0.05,0.31-0.05l4.58,0.07c-0.11-0.16-0.22-0.35-0.31-0.56c-0.46-0.77-0.87-1.31-1.23-1.61
			c2.77-0.48,4.86-1.18,6.27-2.1c1.32-0.85,2.26-2.02,2.8-3.49h-2.94c-0.68,0.82-1.43,1.55-2.24,2.19c-0.44,0.33-0.71,0.5-0.8,0.5
			c-0.15,0-0.42-0.23-0.82-0.7c-0.47-0.51-0.98-0.89-1.54-1.15c2.04-1.47,3.57-3.1,4.6-4.9c0.26-0.47,0.48-0.99,0.67-1.57
			c1.08,0.17,2.01,0.35,2.77,0.55c0.4,0.1,0.6,0.23,0.6,0.39c0,0.18-0.11,0.35-0.32,0.5c-0.23,0.14-0.46,0.45-0.7,0.94l-0.39,0.67
			h10.37c0.42,0,0.71-0.05,0.87-0.14c0.18-0.09,0.34-0.14,0.48-0.14c0.21,0,0.64,0.23,1.3,0.7c0.78,0.51,1.16,0.92,1.16,1.23
			c0,0.18-0.1,0.33-0.29,0.44c-0.25,0.15-0.46,0.36-0.62,0.63c-0.38,0.62-0.95,1.44-1.73,2.48c-0.37,0.47-0.64,0.7-0.84,0.7
			c-0.17,0-0.48-0.1-0.94-0.31c-0.79-0.35-1.44-0.59-1.97-0.7c0.8-0.76,1.46-1.53,2-2.31h-5.18c1.29,3.4,4.97,5.37,11.06,5.91
			c-0.38,0.5-0.7,1.26-0.97,2.27c-0.13,0.42-0.23,0.69-0.31,0.8c-0.08,0.11-0.21,0.17-0.39,0.17c-0.11,0-0.35-0.03-0.7-0.1
			c-0.87-0.16-1.79-0.39-2.77-0.7c-0.05,0.6-0.07,1.66-0.07,3.18v5.98l0.07,3.44c0,0.19-0.02,0.31-0.06,0.36
			c-0.04,0.04-0.15,0.07-0.33,0.07l-4.68-0.07L1219.5,2537.2z M1206.85,2517.24c0.02,0.39,0.11,1.05,0.26,2
			c0.09,0.42,0.14,0.7,0.14,0.84c0,0.25-0.29,0.54-0.87,0.85c-1.38,0.73-3.2,1.51-5.47,2.34c-0.49,0.19-0.8,0.36-0.94,0.5
			c-0.19,0.18-0.36,0.27-0.5,0.27c-0.19,0-0.36-0.13-0.5-0.39c-0.37-0.67-0.77-1.66-1.21-2.97c1.03-0.21,1.89-0.42,2.58-0.63
			C1202.96,2519.19,1205.13,2518.25,1206.85,2517.24z M1201.33,2511.12c1.56,0.65,3.17,1.56,4.82,2.73
			c0.17,0.13,0.26,0.23,0.26,0.31c0,0.07-0.09,0.19-0.26,0.36l-1.5,1.71c-0.18,0.22-0.33,0.32-0.43,0.32
			c-0.08,0-0.18-0.05-0.31-0.15c-1.65-1.32-3.24-2.3-4.75-2.94c-0.18-0.11-0.27-0.21-0.27-0.27c0-0.1,0.08-0.23,0.24-0.39l1.47-1.47
			c0.18-0.19,0.32-0.29,0.43-0.29C1201.09,2511.03,1201.19,2511.06,1201.33,2511.12z M1220.86,2526.02h-15.02v1.47h15.02V2526.02z
			 M1205.84,2531.03h15.02v-1.47h-15.02V2531.03z M1220.86,2534.62v-1.52h-15.02v1.52H1220.86z M1219.12,2523.54
			c1.86,0,3.05-0.01,3.57-0.03c-2.72-1.13-4.67-2.72-5.84-4.79c-1.22,2.26-3.55,3.86-7.01,4.82H1219.12z"/>
		<path class="st2" d="M1242.12,2510.28c1.26,0.03,2.45,0.11,3.55,0.24c0.38,0.03,0.56,0.15,0.56,0.36c0,0.16-0.07,0.4-0.22,0.73
			c-0.16,0.32-0.24,1.49-0.24,3.52v6.58h0.27l3.78-0.07c0.19,0,0.31,0.02,0.34,0.07c0.03,0.05,0.05,0.15,0.05,0.32v2.48
			c0,0.24-0.13,0.36-0.39,0.36l-3.55-0.07c1.32,2.18,2.89,4.19,4.72,6.05c-0.5,0.6-0.97,1.37-1.4,2.31
			c-0.21,0.42-0.37,0.63-0.5,0.63c-0.13,0-0.31-0.18-0.55-0.53c-1.19-1.71-2.13-3.38-2.84-5.01l0.24,13.72
			c0,0.18-0.03,0.3-0.08,0.34c-0.05,0.04-0.15,0.05-0.33,0.05h-2.89c-0.18,0-0.29-0.02-0.33-0.07c-0.03-0.05-0.05-0.15-0.05-0.33
			c0-0.09,0.02-0.79,0.05-2.1c0.09-4.04,0.15-7.62,0.19-10.73c-1.09,2.93-2.51,5.58-4.24,7.96c-0.3,0.38-0.51,0.56-0.63,0.56
			c-0.15,0-0.29-0.2-0.41-0.6c-0.38-1.15-0.8-2-1.26-2.55c2.47-2.86,4.35-6.1,5.64-9.72h-0.63l-3.81,0.07
			c-0.26,0-0.39-0.12-0.39-0.36v-2.48c0-0.19,0.02-0.31,0.07-0.34c0.04-0.03,0.15-0.05,0.32-0.05l3.81,0.07h1.44v-6.49
			C1242.41,2513.33,1242.31,2511.68,1242.12,2510.28z M1239.68,2513.05c0.84,1.91,1.47,3.87,1.88,5.88
			c0.02,0.08,0.03,0.14,0.03,0.19c0,0.17-0.16,0.32-0.48,0.44l-1.5,0.56c-0.22,0.08-0.36,0.12-0.43,0.12c-0.1,0-0.17-0.11-0.21-0.34
			c-0.37-1.99-0.96-3.94-1.78-5.84c-0.05-0.11-0.07-0.21-0.07-0.27c0-0.12,0.15-0.24,0.44-0.36l1.47-0.6
			c0.16-0.07,0.27-0.1,0.34-0.1C1239.48,2512.73,1239.57,2512.83,1239.68,2513.05z M1246.43,2519.27c0.69-1.72,1.23-3.48,1.61-5.28
			c0.11-0.55,0.19-1.05,0.22-1.5c1.39,0.47,2.27,0.79,2.65,0.97c0.26,0.14,0.39,0.28,0.39,0.43c0,0.16-0.07,0.27-0.21,0.34
			c-0.17,0.11-0.31,0.38-0.43,0.79c-0.37,1.25-0.9,2.73-1.61,4.44c-0.21,0.49-0.38,0.73-0.53,0.73c-0.11,0-0.35-0.11-0.7-0.32
			C1247.39,2519.64,1246.93,2519.44,1246.43,2519.27z M1255.4,2530.89l5.35-1.04v-14.01c0-2.21-0.1-3.98-0.29-5.31
			c1.37,0.03,2.61,0.11,3.73,0.24c0.35,0.05,0.53,0.18,0.53,0.39c0,0.09-0.07,0.32-0.22,0.7c-0.14,0.33-0.21,1.62-0.21,3.88v13.42
			c0.87-0.18,1.63-0.36,2.31-0.53c0.11-0.02,0.31-0.07,0.58-0.15c0.12-0.02,0.21-0.04,0.26-0.05c0.09-0.02,0.15-0.04,0.19-0.04
			c0.09,0,0.16,0.13,0.21,0.38l0.41,2.73c0.01,0.09,0.02,0.15,0.02,0.17c0,0.13-0.12,0.21-0.36,0.24c-0.07,0.02-0.44,0.1-1.11,0.22
			c-0.81,0.15-1.64,0.31-2.5,0.48v3.26l0.07,6.05c0,0.18-0.02,0.3-0.07,0.34c-0.04,0.04-0.15,0.05-0.32,0.05h-2.91
			c-0.18,0-0.29-0.03-0.33-0.08c-0.03-0.04-0.05-0.14-0.05-0.31l0.07-6.02v-2.6l-4.8,0.96c-1.31,0.25-2.44,0.48-3.4,0.68
			c-0.21,0.04-0.47,0.09-0.8,0.15c-0.15,0.03-0.25,0.06-0.31,0.07c-0.1,0.02-0.18,0.03-0.22,0.03c-0.14,0-0.22-0.1-0.24-0.31
			l-0.44-2.77c-0.02-0.11-0.03-0.19-0.03-0.24c0-0.1,0.11-0.18,0.34-0.22c0.06-0.01,0.28-0.04,0.67-0.1
			C1252.63,2531.4,1253.93,2531.18,1255.4,2530.89z M1253.71,2520.89c1.81,1.25,3.42,2.75,4.84,4.48c0.11,0.15,0.17,0.26,0.17,0.33
			c0,0.08-0.09,0.22-0.27,0.41l-1.73,1.71c-0.19,0.18-0.33,0.27-0.41,0.27c-0.07,0-0.17-0.07-0.29-0.21
			c-1.5-1.91-3.04-3.5-4.61-4.75c-0.16-0.17-0.24-0.27-0.24-0.29c0-0.07,0.09-0.19,0.27-0.38l1.61-1.54
			c0.16-0.17,0.27-0.26,0.32-0.26C1253.42,2520.67,1253.54,2520.75,1253.71,2520.89z M1254.65,2512.79
			c2.04,1.42,3.69,2.91,4.94,4.46c0.1,0.1,0.15,0.2,0.15,0.29c0,0.09-0.09,0.22-0.26,0.38l-1.67,1.64
			c-0.22,0.21-0.36,0.31-0.43,0.31s-0.15-0.07-0.24-0.21c-1.38-1.75-2.97-3.29-4.77-4.6c-0.13-0.08-0.19-0.17-0.19-0.26
			c0-0.11,0.09-0.24,0.26-0.39l1.54-1.47c0.21-0.18,0.34-0.27,0.39-0.27C1254.44,2512.67,1254.53,2512.71,1254.65,2512.79z"/>
	</g>
	<path id="Icon_awesome-file-alt" d="M1049.66,2519.52v-8.6h-12.64c-0.84,0-1.52,0.67-1.52,1.51c0,0,0,0,0,0.01v29.33
		c0,0.84,0.67,1.52,1.51,1.52c0,0,0,0,0.01,0h21.24c0.84,0,1.52-0.67,1.52-1.51c0,0,0,0,0-0.01v-20.74h-8.6
		C1050.34,2521.03,1049.66,2520.36,1049.66,2519.52z M1053.7,2534.44c0,0.42-0.34,0.76-0.76,0.76h-10.62
		c-0.42,0-0.76-0.34-0.76-0.76v-0.51c0-0.42,0.34-0.76,0.76-0.76h10.62c0.42,0,0.76,0.34,0.76,0.76L1053.7,2534.44z M1053.7,2530.4
		c0,0.42-0.34,0.76-0.76,0.76h-10.62c-0.42,0-0.76-0.34-0.76-0.76v-0.51c0-0.42,0.34-0.76,0.76-0.76h10.62
		c0.42,0,0.76,0.34,0.76,0.76L1053.7,2530.4z M1053.7,2525.84v0.51c0,0.42-0.34,0.76-0.76,0.76h-10.62c-0.42,0-0.76-0.34-0.76-0.76
		v-0.51c0-0.42,0.34-0.76,0.76-0.76h10.62C1053.36,2525.09,1053.7,2525.42,1053.7,2525.84L1053.7,2525.84z M1059.77,2518.63v0.39
		h-8.09v-8.09h0.39c0.4,0,0.79,0.16,1.08,0.44l6.19,6.2C1059.61,2517.85,1059.77,2518.23,1059.77,2518.63L1059.77,2518.63z"/>
</g>
</svg>
