<?xml version="1.0" encoding="utf-8"?>
<!-- Generator: Adobe Illustrator 25.0.0, SVG Export Plug-In . SVG Version: 6.00 Build 0)  -->
<svg version="1.1" id="圖層_1" xmlns="http://www.w3.org/2000/svg" xmlns:xlink="http://www.w3.org/1999/xlink" x="0px" y="0px"
	 viewBox="0 0 162 162" style="enable-background:new 0 0 162 162;" xml:space="preserve">
<style type="text/css">
	.st0{fill:#FFFFFF;}
</style>
<g id="order-svgrepo-com" transform="translate(-63.376 28.225)">
	<circle id="Ellipse_10" class="st0" cx="144.31" cy="52.45" r="81"/>
	<path id="Path_449" d="M127.15,49.6h34.38v3.89h-34.38V49.6z M127.15,66.7h21.05v3.89h-21.05V66.7z"/>
	<path id="Path_450" d="M169.11,91.63h-49.6c-1.02,0-2.03-0.2-2.98-0.58c-0.91-0.36-1.73-0.91-2.4-1.62
		c-0.69-0.69-1.24-1.5-1.62-2.4c-0.39-0.95-0.58-1.96-0.58-2.98v-51.6c0-1.02,0.2-2.03,0.58-2.98c0.36-0.91,0.91-1.73,1.62-2.4
		c0.69-0.69,1.5-1.24,2.4-1.62c0.95-0.39,1.96-0.58,2.98-0.58h7.51v3.82h-7.51c-2.11,0-3.82,1.71-3.82,3.82v51.61
		c0,2.11,1.71,3.82,3.82,3.82h49.54c2.11,0,3.82-1.71,3.82-3.82V32.44c0-2.11-1.71-3.82-3.82-3.82h-7.45V24.8h7.51
		c1.02,0,2.03,0.2,2.98,0.58c0.91,0.36,1.73,0.91,2.4,1.62c0.69,0.69,1.24,1.5,1.62,2.4c0.39,0.95,0.58,1.96,0.58,2.98v51.61
		c0,1.02-0.2,2.03-0.58,2.98c-0.36,0.91-0.91,1.73-1.62,2.4c-0.69,0.69-1.5,1.24-2.4,1.62C171.16,91.43,170.14,91.65,169.11,91.63
		L169.11,91.63z"/>
	<path id="Path_451" d="M163.35,36.26h-38.07V23.83c-0.01-2.64,2.13-4.79,4.77-4.79c0.01,0,0.01,0,0.02,0h4.92
		c2.63-5.19,8.97-7.25,14.16-4.62c1.99,1.01,3.61,2.63,4.62,4.62h4.92c2.64,0,4.78,2.13,4.79,4.77c0,0.01,0,0.01,0,0.02
		L163.35,36.26z M129.09,32.44h30.5v-8.61c-0.02-0.53-0.44-0.96-0.97-0.97h-7.58l-0.45-1.3c-1.2-3.47-4.99-5.3-8.46-4.1
		c-1.92,0.67-3.43,2.18-4.1,4.1l-0.45,1.3H130c-0.53,0.02-0.96,0.44-0.97,0.97v8.61H129.09z"/>
</g>
</svg>
