<?xml version="1.0" encoding="utf-8"?>
<!-- Generator: Adobe Illustrator 25.0.0, SVG Export Plug-In . SVG Version: 6.00 Build 0)  -->
<svg version="1.1" id="圖層_1" xmlns="http://www.w3.org/2000/svg" xmlns:xlink="http://www.w3.org/1999/xlink" x="0px" y="0px"
	 viewBox="0 0 162 162" style="enable-background:new 0 0 162 162;" xml:space="preserve">
<style type="text/css">
	.st0{fill:#FFFFFF;}
	.st1{fill:none;stroke:#000000;stroke-width:5.3;stroke-linecap:round;stroke-linejoin:round;}
</style>
<g id="Icon_feather-shopping-cart" transform="translate(44.734 46.656)">
	<circle id="Ellipse_11" class="st0" cx="36.27" cy="34.34" r="81"/>
	<path id="Path_458" class="st1" d="M31.44,61.79c0,2.44-1.98,4.43-4.42,4.43s-4.42-1.98-4.43-4.42c0-2.44,1.98-4.43,4.42-4.43l0,0
		C29.46,57.37,31.44,59.35,31.44,61.79z"/>
	<path id="Path_461" class="st1" d="M68.52,61.79c0,2.44-1.98,4.43-4.43,4.43c-2.44,0-4.42-1.98-4.42-4.42s1.98-4.43,4.42-4.43l0,0
		C66.54,57.37,68.52,59.35,68.52,61.79z"/>
	<path id="Path_460" class="st1" d="M1.5,1.5h12.76l8.55,42.71c0.6,3.03,3.29,5.19,6.38,5.14h31c3.09,0.06,5.78-2.1,6.38-5.14
		l5.1-26.76H17.45"/>
</g>
</svg>
