<?xml version="1.0" encoding="utf-8"?>
<!-- Generator: Adobe Illustrator 25.0.0, SVG Export Plug-In . SVG Version: 6.00 Build 0)  -->
<svg version="1.1" id="圖層_1" xmlns="http://www.w3.org/2000/svg" xmlns:xlink="http://www.w3.org/1999/xlink" x="0px" y="0px"
	 viewBox="0 0 429.76 98.41" style="enable-background:new 0 0 429.76 98.41;" xml:space="preserve">
<style type="text/css">
	.st0{enable-background:new    ;}
	.st1{fill:#1A1311;}
	.st2{fill:#E51F1F;}
	.st3{fill:none;stroke:#171714;stroke-miterlimit:10;}
</style>
<g id="租車注意事項_" transform="translate(-938.022 -2475.797)">
	<g class="st0">
		<path class="st1" d="M1059.89,2510.86c0.9,0.74,1.61,1.46,2.12,2.17c0.21,0.24,0.31,0.44,0.31,0.62c0,0.29-0.2,0.43-0.6,0.43
			c-0.26,0-0.64,0.1-1.15,0.31c-0.51,0.22-1.33,0.51-2.46,0.89v4.82h0.21l3.71-0.07c0.21,0,0.33,0.02,0.38,0.07
			c0.03,0.05,0.05,0.15,0.05,0.33v2.48c0,0.19-0.03,0.31-0.09,0.34c-0.05,0.04-0.16,0.05-0.34,0.05l-3.57-0.07
			c1.04,2.08,2.48,3.99,4.34,5.73c-0.41,0.63-0.78,1.48-1.11,2.56c-0.14,0.38-0.27,0.56-0.39,0.56c-0.13,0-0.31-0.18-0.55-0.53
			c-1.26-1.74-2.18-3.29-2.73-4.65c0.01,3.68,0.06,7.39,0.14,11.12c0.01,0.65,0.04,1.7,0.09,3.14c0.01,0.58,0.02,0.93,0.02,1.06
			c0,0.16-0.03,0.26-0.09,0.29c-0.05,0.04-0.16,0.05-0.34,0.05h-2.8c-0.25,0-0.38-0.11-0.38-0.34c0.16-3.33,0.25-8.17,0.27-14.53
			c-0.91,2.88-2.15,5.45-3.71,7.69c-0.26,0.38-0.45,0.56-0.56,0.56c-0.13,0-0.27-0.2-0.44-0.6c-0.43-1.04-0.9-1.86-1.4-2.48
			c2.48-2.96,4.28-6.18,5.38-9.66h-0.6l-3.71,0.07c-0.19,0-0.31-0.02-0.36-0.07c-0.03-0.04-0.05-0.15-0.05-0.33v-2.48
			c0-0.19,0.02-0.31,0.07-0.34c0.05-0.03,0.16-0.05,0.34-0.05l3.71,0.07h1.2v-3.91c-0.66,0.17-1.48,0.36-2.44,0.56
			c-0.36,0.06-0.6,0.09-0.72,0.09c-0.21,0-0.36-0.07-0.48-0.22c-0.07-0.1-0.19-0.33-0.36-0.7c-0.35-0.8-0.75-1.46-1.18-2
			c3.51-0.46,6.43-1.18,8.75-2.17C1058.9,2511.52,1059.41,2511.23,1059.89,2510.86z M1065.53,2541.58l-4.75,0.07
			c-0.19,0-0.31-0.02-0.34-0.07c-0.03-0.05-0.05-0.15-0.05-0.32v-2.68c0-0.18,0.02-0.29,0.06-0.33s0.15-0.06,0.33-0.06l3.14,0.07
			v-19.55l-0.07-6.19c0-0.21,0.02-0.33,0.07-0.38c0.05-0.04,0.15-0.05,0.31-0.05l4.03,0.07h5.55l4.05-0.07
			c0.19,0,0.31,0.03,0.34,0.08c0.03,0.05,0.05,0.16,0.05,0.34l-0.07,6.19v19.55l2.73-0.07c0.19,0,0.31,0.02,0.36,0.07
			c0.03,0.04,0.05,0.15,0.05,0.32v2.68c0,0.19-0.02,0.31-0.07,0.34c-0.05,0.03-0.16,0.05-0.34,0.05l-4.7-0.07H1065.53z
			 M1074.69,2515.55h-7.26v5.01h7.26V2515.55z M1067.42,2529.05h7.26v-5.16h-7.26V2529.05z M1067.42,2538.24h7.26v-5.86h-7.26
			V2538.24z"/>
		<path class="st1" d="M1092.61,2537.83l-4.34,0.07c-0.23,0-0.34-0.13-0.34-0.38v-2.56c0-0.25,0.11-0.38,0.34-0.38l4.34,0.07h8.96
			v-2.31h-4.39l-4.87,0.07c-0.18,0-0.29-0.02-0.32-0.07c-0.03-0.04-0.05-0.15-0.05-0.32l0.07-3.32v-5.5l-0.07-3.32
			c0-0.21,0.02-0.33,0.07-0.38c0.05-0.04,0.15-0.05,0.31-0.05l4.87,0.07h4.39v-2.17h-8l-4.51,0.07c-0.21,0-0.33-0.02-0.38-0.07
			c-0.03-0.04-0.05-0.16-0.05-0.34v-2.56c0-0.16,0.03-0.26,0.09-0.29c0.05-0.03,0.16-0.05,0.34-0.05l4.51,0.07h8
			c-0.02-1.46-0.11-2.69-0.27-3.71c1.41,0.03,2.65,0.11,3.71,0.24c0.35,0.05,0.53,0.18,0.53,0.39c0,0.26-0.06,0.5-0.19,0.7
			c-0.14,0.25-0.21,1.04-0.21,2.38h8.32l4.56-0.07c0.25,0,0.38,0.11,0.38,0.34v2.56c0,0.19-0.02,0.31-0.07,0.36
			c-0.05,0.03-0.15,0.05-0.31,0.05l-4.56-0.07h-8.32v2.17h4.77l4.85-0.07c0.18,0,0.3,0.03,0.34,0.08c0.03,0.05,0.05,0.16,0.05,0.34
			l-0.07,3.32v5.5l0.07,3.32c0,0.18-0.02,0.29-0.07,0.33c-0.05,0.04-0.15,0.06-0.32,0.06l-4.85-0.07h-4.77v2.31h9.38l4.34-0.07
			c0.23,0,0.34,0.13,0.34,0.38v2.56c0,0.25-0.11,0.38-0.34,0.38l-4.34-0.07h-9.38l0.09,4.31c0,0.18-0.03,0.29-0.09,0.32
			c-0.05,0.03-0.16,0.05-0.34,0.05h-2.91c-0.18,0-0.29-0.02-0.32-0.07c-0.03-0.03-0.05-0.14-0.05-0.31c0-0.04,0-0.23,0-0.58
			c0.02-1.22,0.04-2.46,0.05-3.72H1092.61z M1095.55,2524.57h6.02v-2.27h-6.02V2524.57z M1095.55,2529.58h6.02v-2.27h-6.02V2529.58z
			 M1111.51,2522.3h-6.37v2.27h6.37V2522.3z M1111.51,2529.58v-2.27h-6.37v2.27H1111.51z"/>
		<path class="st1" d="M1128.65,2519.96c1.78,0.98,3.44,2.17,4.97,3.57c0.14,0.14,0.21,0.23,0.21,0.27c0,0.07-0.07,0.21-0.21,0.43
			l-1.57,2.24c-0.1,0.16-0.19,0.24-0.27,0.24c-0.08,0-0.19-0.07-0.32-0.21c-1.52-1.48-3.16-2.75-4.94-3.81
			c-0.16-0.1-0.24-0.19-0.24-0.26c0-0.1,0.07-0.24,0.21-0.41l1.47-1.9c0.16-0.19,0.29-0.29,0.39-0.29
			C1128.41,2519.84,1128.51,2519.88,1128.65,2519.96z M1126.41,2539.87c0.73-0.9,1.34-1.82,1.83-2.77c1.31-2.67,2.46-5.36,3.45-8.08
			c0.69,0.74,1.33,1.34,1.9,1.79c0.51,0.38,0.77,0.67,0.77,0.87c0,0.15-0.07,0.42-0.21,0.8c-1.11,2.92-2.24,5.5-3.4,7.74
			c-0.32,0.63-0.51,1.06-0.56,1.32c-0.07,0.31-0.22,0.46-0.44,0.46c-0.18,0-0.39-0.07-0.63-0.21
			C1128.07,2541.17,1127.17,2540.53,1126.41,2539.87z M1130.22,2511.1c1.66,0.96,3.36,2.2,5.09,3.74c0.14,0.1,0.21,0.21,0.21,0.31
			c0,0.08-0.07,0.22-0.22,0.43l-1.61,2.17c-0.14,0.19-0.24,0.29-0.31,0.29c-0.05,0-0.14-0.06-0.29-0.19
			c-1.73-1.66-3.45-3.01-5.14-4.03c-0.16-0.09-0.24-0.17-0.24-0.24c0-0.08,0.08-0.22,0.24-0.43l1.62-1.88
			c0.15-0.19,0.27-0.29,0.38-0.29C1130.02,2510.98,1130.11,2511.02,1130.22,2511.1z M1139.62,2541.06l-4.87,0.07
			c-0.18,0-0.29-0.02-0.32-0.07c-0.03-0.05-0.05-0.15-0.05-0.31v-2.72c0-0.18,0.02-0.3,0.06-0.34c0.04-0.05,0.15-0.07,0.32-0.07
			l4.87,0.07h4.44v-7.45h-2.34l-4.61,0.07c-0.24,0-0.36-0.13-0.36-0.38v-2.67c0-0.25,0.12-0.38,0.36-0.38l4.61,0.07h2.34v-6.05
			h-3.04l-4.73,0.07c-0.18,0-0.29-0.02-0.32-0.07c-0.03-0.04-0.05-0.15-0.05-0.32v-2.67c0-0.18,0.02-0.29,0.07-0.32
			c0.05-0.04,0.15-0.05,0.31-0.05l4.73,0.07h10.73l4.77-0.07c0.18,0,0.29,0.02,0.32,0.07c0.04,0.05,0.05,0.15,0.05,0.31v2.67
			c0,0.18-0.02,0.3-0.07,0.34c-0.05,0.03-0.15,0.05-0.31,0.05l-4.77-0.07h-3.91v6.05h2.97l4.61-0.07c0.21,0,0.33,0.02,0.38,0.07
			c0.03,0.04,0.05,0.15,0.05,0.31v2.67c0,0.17-0.02,0.28-0.07,0.32c-0.05,0.04-0.17,0.06-0.36,0.06l-4.61-0.07h-2.97v7.45h4.9
			l4.82-0.07c0.18,0,0.29,0.03,0.34,0.08c0.03,0.05,0.05,0.15,0.05,0.33v2.72c0,0.18-0.02,0.29-0.07,0.32
			c-0.05,0.04-0.15,0.05-0.32,0.05l-4.82-0.07H1139.62z M1143.81,2510.54c1.71,0.72,3.7,1.93,5.96,3.64
			c0.16,0.09,0.24,0.18,0.24,0.27c0,0.1-0.1,0.25-0.29,0.43l-1.81,2.03c-0.17,0.18-0.3,0.27-0.38,0.27c-0.08,0-0.18-0.06-0.29-0.17
			c-1.5-1.4-3.49-2.71-5.95-3.93c-0.15-0.07-0.22-0.14-0.22-0.21c0-0.09,0.09-0.22,0.26-0.38l1.74-1.79
			c0.19-0.17,0.34-0.26,0.44-0.26C1143.59,2510.45,1143.68,2510.48,1143.81,2510.54z"/>
		<path class="st1" d="M1168.57,2534.12c0.08-0.16,0.16-0.24,0.24-0.24c0.05,0,0.2,0.05,0.46,0.14l2.12,0.87
			c0.28,0.09,0.43,0.19,0.43,0.31c0,0.06-0.02,0.14-0.07,0.26c-0.75,1.9-2.02,3.89-3.81,5.95c-0.11,0.14-0.22,0.21-0.32,0.21
			s-0.24-0.07-0.41-0.21l-2-1.4c-0.23-0.17-0.34-0.31-0.34-0.43c0-0.08,0.06-0.18,0.17-0.31
			C1166.57,2537.83,1167.75,2536.12,1168.57,2534.12z M1169.82,2521.49l-4.38,0.07c-0.18,0-0.29-0.02-0.33-0.07
			c-0.03-0.05-0.05-0.15-0.05-0.31v-2.26c0-0.18,0.02-0.29,0.07-0.32c0.05-0.03,0.15-0.05,0.31-0.05l4.38,0.07h3.96
			c-0.33-0.91-0.7-1.76-1.09-2.55l-4.72,0.07c-0.21,0-0.33-0.03-0.38-0.09c-0.03-0.04-0.05-0.15-0.05-0.32v-2.1
			c0-0.19,0.03-0.31,0.09-0.34c0.04-0.04,0.16-0.05,0.34-0.05l4.75,0.07h5.74v-0.24c0-1.04-0.08-1.95-0.24-2.73
			c1.23,0,2.52,0.06,3.88,0.17c0.35,0.03,0.53,0.15,0.53,0.34c0,0.13-0.07,0.35-0.21,0.67c-0.1,0.28-0.15,0.8-0.15,1.55v0.24h6.2
			l4.75-0.07c0.19,0,0.31,0.02,0.34,0.07c0.04,0.05,0.05,0.15,0.05,0.33v2.1c0,0.19-0.02,0.31-0.07,0.36
			c-0.05,0.03-0.15,0.05-0.33,0.05l-4.79-0.07h-0.46c-0.17,0.3-0.27,0.5-0.31,0.6c-0.03,0.07-0.17,0.38-0.39,0.94
			c-0.17,0.41-0.32,0.75-0.44,1.01h4.34l4.38-0.07c0.19,0,0.31,0.02,0.36,0.07c0.03,0.04,0.05,0.15,0.05,0.31v2.26
			c0,0.18-0.02,0.29-0.07,0.33c-0.04,0.03-0.16,0.05-0.34,0.05l-4.38-0.07H1169.82z M1186.31,2523l4.84-0.07
			c0.18,0,0.29,0.02,0.32,0.07c0.03,0.04,0.05,0.15,0.05,0.32l-0.07,2.79v3.61l0.07,2.79c0,0.18-0.02,0.29-0.06,0.33
			s-0.15,0.06-0.32,0.06l-4.84-0.07h-11.62l-4.84,0.07c-0.18,0-0.29-0.02-0.32-0.07c-0.03-0.04-0.05-0.15-0.05-0.32l0.07-2.79v-3.61
			l-0.07-2.79c0-0.19,0.02-0.31,0.07-0.34c0.04-0.03,0.15-0.05,0.31-0.05l4.84,0.07H1186.31z M1185.95,2535.85
			c0.72,0.42,1.57,0.77,2.56,1.04c0.38,0.1,0.6,0.19,0.68,0.26c0.09,0.07,0.14,0.19,0.14,0.38c0,0.08-0.02,0.27-0.05,0.56
			c-0.3,1.74-0.89,2.85-1.78,3.32c-1.11,0.54-3.43,0.8-6.97,0.8c-3.13,0-5.13-0.2-5.98-0.6c-0.47-0.25-0.8-0.58-0.99-0.97
			c-0.21-0.43-0.31-1.06-0.31-1.88v-2.2c0-1.09-0.06-2.06-0.17-2.91c1.49,0.05,2.68,0.13,3.55,0.24c0.42,0.07,0.63,0.17,0.63,0.31
			c0,0.18-0.06,0.36-0.17,0.53c-0.14,0.23-0.21,0.72-0.21,1.47v1.33c0,0.71,0.19,1.14,0.56,1.3c0.43,0.16,1.49,0.24,3.18,0.24
			c2.38,0,3.85-0.14,4.41-0.43C1185.61,2538.37,1185.91,2537.45,1185.95,2535.85z M1187.81,2525.34h-14.66v1.5h14.66V2525.34z
			 M1187.81,2530.52v-1.57h-14.66v1.57H1187.81z M1184.14,2516.08h-7.74c0.33,0.68,0.66,1.53,0.99,2.55h5.78
			C1183.6,2517.67,1183.92,2516.82,1184.14,2516.08z M1181.06,2533.22c1.05,0.72,2.05,1.64,3.01,2.77c0.09,0.12,0.14,0.22,0.14,0.27
			c0,0.08-0.09,0.2-0.27,0.36l-1.59,1.32c-0.19,0.17-0.34,0.26-0.44,0.26s-0.22-0.08-0.36-0.24c-0.68-0.92-1.61-1.91-2.77-2.96
			c-0.17-0.1-0.26-0.18-0.26-0.22c0-0.03,0.12-0.15,0.38-0.36l1.37-1.13c0.21-0.15,0.35-0.22,0.44-0.22
			S1180.91,2533.12,1181.06,2533.22z M1191.59,2533.65c1.73,1.5,3.29,3.25,4.68,5.25c0.09,0.13,0.14,0.23,0.14,0.31
			c0,0.09-0.1,0.21-0.31,0.36l-2.17,1.44c-0.21,0.14-0.35,0.21-0.44,0.21c-0.08,0-0.18-0.09-0.29-0.27
			c-0.99-1.87-2.42-3.74-4.29-5.61c-0.13-0.12-0.19-0.21-0.19-0.26c0-0.04,0.12-0.15,0.36-0.31l1.78-1.15
			c0.18-0.11,0.31-0.17,0.39-0.17C1191.31,2533.44,1191.43,2533.51,1191.59,2533.65z"/>
		<path class="st1" d="M1207.85,2532.59l-4.31,0.07c-0.23,0-0.34-0.12-0.34-0.38v-2.1c0-0.26,0.11-0.39,0.34-0.39l4.31,0.07h9.38
			v-1.64h-5.78l-4.75,0.07c-0.26,0-0.39-0.11-0.39-0.34v-1.93c0-0.18,0.03-0.29,0.09-0.33c0.03-0.03,0.14-0.05,0.31-0.05l4.75,0.07
			h5.78v-1.55h-4.51l-4.85,0.07c-0.21,0-0.33-0.03-0.38-0.09c-0.04-0.04-0.05-0.16-0.05-0.34l0.07-1.81v-1.88l-0.07-1.83
			c0-0.19,0.02-0.31,0.07-0.36c0.06-0.03,0.18-0.05,0.36-0.05l4.85,0.07h4.51v-1.54h-8.82l-4.44,0.07c-0.18,0-0.29-0.02-0.32-0.07
			c-0.03-0.04-0.05-0.15-0.05-0.31v-2.22c0-0.18,0.02-0.29,0.07-0.33c0.04-0.03,0.15-0.05,0.31-0.05l4.44,0.07h8.82
			c0-1.23-0.08-2.3-0.24-3.21c1.57,0.03,2.79,0.1,3.64,0.21c0.38,0.05,0.56,0.17,0.56,0.38c0,0.17-0.07,0.39-0.21,0.67
			c-0.15,0.39-0.22,1.04-0.22,1.96h8.89l4.44-0.07c0.19,0,0.31,0.02,0.34,0.07c0.03,0.05,0.05,0.15,0.05,0.31v2.22
			c0,0.18-0.02,0.29-0.07,0.32c-0.05,0.04-0.15,0.05-0.33,0.05l-4.44-0.07h-8.89v1.54h4.65l4.91-0.07c0.19,0,0.31,0.03,0.34,0.09
			c0.03,0.04,0.05,0.15,0.05,0.32l-0.07,1.83v1.88l0.07,1.81c0,0.21-0.02,0.33-0.07,0.38c-0.05,0.03-0.15,0.05-0.32,0.05l-4.91-0.07
			h-4.65v1.55h5.67l4.82-0.07c0.19,0,0.31,0.02,0.34,0.07c0.03,0.05,0.05,0.15,0.05,0.31l-0.07,3.04v0.8l3.04-0.07
			c0.24,0,0.36,0.13,0.36,0.39v2.1c0,0.25-0.12,0.38-0.36,0.38l-0.91-0.02c-0.65-0.02-1.36-0.04-2.14-0.05v1.78l0.07,3.23
			c0,0.18-0.02,0.29-0.06,0.33s-0.15,0.06-0.33,0.06h-2.68c-0.18,0-0.3-0.03-0.34-0.08c-0.03-0.04-0.05-0.14-0.05-0.31v-0.77h-7.38
			c0.02,0.42,0.03,1,0.03,1.74c0,1.58-0.42,2.63-1.26,3.13c-0.85,0.48-2.5,0.74-4.92,0.77c-0.55,0-0.88-0.06-1.01-0.17
			c-0.09-0.09-0.22-0.37-0.39-0.84c-0.36-1-0.82-1.89-1.37-2.67c0.93,0.1,1.82,0.15,2.67,0.15c0.24,0,0.53-0.01,0.87-0.02
			c0.79-0.01,1.29-0.12,1.52-0.33c0.19-0.16,0.29-0.48,0.29-0.97v-0.8h-5.74l-4.79,0.07c-0.18,0-0.3-0.03-0.34-0.08
			c-0.03-0.05-0.05-0.16-0.05-0.34v-1.88c0-0.21,0.03-0.33,0.09-0.38c0.03-0.04,0.14-0.05,0.31-0.05l4.79,0.07h5.74v-1.64H1207.85z
			 M1210.91,2521.91h6.32v-1.74h-6.32V2521.91z M1227.25,2521.91v-1.74h-6.48v1.74H1227.25z M1228.19,2528.21h-7.42v1.64h7.42
			V2528.21z M1220.77,2534.23h7.42v-1.64h-7.42V2534.23z"/>
		<path class="st1" d="M1252.46,2528.35c-0.01,0.3-0.02,0.6-0.02,0.92c0,0.55,0.02,1.04,0.07,1.49c0.02,0.3,0.03,0.5,0.03,0.62
			c0,0.26-0.05,0.45-0.14,0.56c-0.09,0.11-0.34,0.28-0.73,0.52c-2.03,1.05-4.51,2.15-7.43,3.32c-0.46,0.17-0.82,0.35-1.08,0.53
			c-0.21,0.16-0.38,0.24-0.53,0.24c-0.19,0-0.36-0.15-0.5-0.46c-0.26-0.72-0.56-1.81-0.91-3.28c1.24-0.28,2.24-0.56,3.01-0.84
			l1.09-0.36v-14.51h-0.12l-3.18,0.07c-0.17,0-0.27-0.03-0.31-0.08c-0.02-0.04-0.03-0.16-0.03-0.34v-2.63
			c0-0.25,0.11-0.38,0.34-0.38l3.18,0.07h3.3l3.14-0.07c0.18,0,0.3,0.02,0.34,0.07c0.03,0.05,0.05,0.15,0.05,0.31v2.63
			c0,0.21-0.02,0.33-0.07,0.38c-0.04,0.03-0.15,0.05-0.32,0.05l-2.72-0.07v13.04C1250.1,2529.62,1251.27,2529.03,1252.46,2528.35z
			 M1257.57,2535.66c1.16,0.6,2.07,1.13,2.73,1.57c0.24,0.18,0.36,0.36,0.36,0.53c0,0.17-0.14,0.32-0.43,0.46
			c-0.29,0.09-0.63,0.31-1.03,0.67c-1.71,1.33-3.97,2.48-6.78,3.44c-0.39,0.14-0.67,0.21-0.84,0.21c-0.19,0-0.46-0.28-0.8-0.84
			c-0.56-0.88-1.15-1.57-1.76-2.07c3.17-0.71,5.63-1.69,7.38-2.94C1256.85,2536.36,1257.23,2536.02,1257.57,2535.66z
			 M1257.82,2515.29l-4.7,0.07c-0.21,0-0.33-0.02-0.36-0.07c-0.05-0.03-0.07-0.12-0.07-0.27v-2.58c0-0.21,0.03-0.33,0.08-0.38
			c0.05-0.04,0.16-0.05,0.34-0.05l4.7,0.07h10.08l4.72-0.07c0.18,0,0.3,0.03,0.34,0.08c0.03,0.05,0.05,0.16,0.05,0.34v2.58
			c0,0.23-0.13,0.34-0.39,0.34l-4.72-0.07h-3.83c-0.21,0.56-0.55,1.33-1.04,2.32h3.11l4.38-0.08c0.18,0,0.3,0.02,0.34,0.07
			c0.03,0.04,0.05,0.15,0.05,0.32l-0.07,4.07v9.26l0.07,4.02c0,0.19-0.02,0.31-0.06,0.36c-0.04,0.05-0.15,0.07-0.33,0.07l-4.38-0.07
			H1259l-4.41,0.07c-0.21,0-0.32-0.03-0.36-0.09c-0.03-0.04-0.05-0.16-0.05-0.34l0.07-4.02v-9.26l-0.07-4.07
			c0-0.19,0.02-0.31,0.07-0.34c0.04-0.03,0.16-0.05,0.34-0.05l4.41,0.08h0.39c0.34-0.69,0.67-1.47,0.97-2.32H1257.82z
			 M1267.34,2520.49h-9.64v2.2h9.64V2520.49z M1257.7,2527.65h9.64v-2.19h-9.64V2527.65z M1267.34,2532.65v-2.27h-9.64v2.27H1267.34
			z M1274.01,2539.3c-0.24,0.19-0.82,1.01-1.74,2.44c-0.23,0.35-0.43,0.53-0.6,0.53c-0.15,0-0.45-0.1-0.91-0.31
			c-2.47-1.12-4.67-2.49-6.58-4.13c-0.12-0.11-0.19-0.2-0.19-0.26c0-0.08,0.11-0.21,0.32-0.38l1.88-1.35
			c0.12-0.1,0.24-0.15,0.36-0.15c0.11,0,0.22,0.03,0.31,0.1C1268.56,2537.14,1270.94,2538.31,1274.01,2539.3z"/>
		<path class="st1" d="M1287.21,2516.2c0.89,0,1.63,0.33,2.22,0.97c0.51,0.56,0.77,1.21,0.77,1.96c0,0.92-0.33,1.68-0.97,2.27
			c-0.57,0.5-1.24,0.75-2.02,0.75c-0.92,0-1.67-0.32-2.24-0.97c-0.49-0.56-0.73-1.24-0.73-2.05c0-0.87,0.32-1.59,0.96-2.17
			C1285.75,2516.45,1286.43,2516.2,1287.21,2516.2z M1287.21,2531c0.89,0,1.63,0.32,2.22,0.97c0.51,0.56,0.77,1.21,0.77,1.97
			c0,0.92-0.33,1.68-0.97,2.27c-0.57,0.5-1.24,0.75-2.02,0.75c-0.92,0-1.67-0.33-2.24-0.97c-0.49-0.56-0.73-1.24-0.73-2.05
			c0-0.87,0.32-1.59,0.96-2.17C1285.75,2531.25,1286.43,2531,1287.21,2531z"/>
	</g>
	<path id="Icon_ionic-md-warning" class="st2" d="M991.5,2541.96h35.9l-17.95-33.33L991.5,2541.96z M1011.37,2536.84h-3.85v-3.85
		h3.85V2536.84z M1011.37,2530.43h-3.85v-7.69h3.85V2530.43z"/>
	<path id="Path_462" class="st3" d="M980.48,2476.75c-2.88,3.55-13.96,15.78-30.11,16c-1.09,0.02-2.04,0.72-2.39,1.75l-9.83,28.97
		c-0.18,0.53-0.18,1.1-0.01,1.63l9.8,30.33c0.33,1.04,1.28,1.76,2.37,1.79c5.01,0.16,19.42,1.87,28.5,15.76
		c0.48,0.75,1.3,1.21,2.19,1.21h342.22c0.82,0,1.59-0.39,2.08-1.05c2.78-3.73,13.31-16.11,30.28-16.09c1.1-0.01,2.08-0.72,2.43-1.77
		l9.62-28.78c0.17-0.52,0.18-1.09,0.01-1.61l-9.65-30.21c-0.33-1.03-1.26-1.75-2.34-1.8c-5.01-0.22-19.55-2.07-29.01-15.93
		c-0.48-0.72-1.29-1.16-2.16-1.17h-342C981.71,2475.8,980.98,2476.15,980.48,2476.75z"/>
</g>
</svg>
