<?xml version="1.0" encoding="utf-8"?>
<!-- Generator: Adobe Illustrator 25.0.0, SVG Export Plug-In . SVG Version: 6.00 Build 0)  -->
<svg version="1.1" id="圖層_1" xmlns="http://www.w3.org/2000/svg" xmlns:xlink="http://www.w3.org/1999/xlink" x="0px" y="0px"
	 viewBox="0 0 17.97 20.54" style="enable-background:new 0 0 17.97 20.54;" xml:space="preserve">
<style type="text/css">
	.st0{fill:#FFFFFF;}
</style>
<path id="Icon_awesome-hand-pointer" class="st0" d="M17.97,9.63v3.85c0,0.12-0.01,0.25-0.04,0.37l-1.28,5.46
	c-0.17,0.73-0.82,1.24-1.56,1.24H6.74c-0.51,0-1-0.24-1.3-0.66l-5.13-7.06c-0.52-0.72-0.36-1.72,0.36-2.24s1.72-0.36,2.24,0.36l0,0
	l1.27,1.74V1.6c0-0.89,0.72-1.6,1.6-1.6s1.6,0.72,1.6,1.6v8.03H7.7v-1.6c0-0.89,0.72-1.6,1.6-1.6c0.89,0,1.6,0.72,1.6,1.6v1.6h0.32
	V8.67c0-0.89,0.72-1.6,1.6-1.6c0.89,0,1.6,0.72,1.6,1.6v0.96h0.32c0-0.89,0.72-1.6,1.6-1.6C17.25,8.03,17.97,8.75,17.97,9.63
	L17.97,9.63z M7.7,12.84H7.38v3.85H7.7V12.84z M11.23,12.84h-0.32v3.85h0.32L11.23,12.84z M14.76,12.84h-0.32v3.85h0.32V12.84z"/>
</svg>
