<?xml version="1.0" encoding="utf-8"?>
<!-- Generator: Adobe Illustrator 25.0.0, SVG Export Plug-In . SVG Version: 6.00 Build 0)  -->
<svg version="1.1" id="圖層_1" xmlns="http://www.w3.org/2000/svg" xmlns:xlink="http://www.w3.org/1999/xlink" x="0px" y="0px"
	 viewBox="0 0 338.87 78.26" style="enable-background:new 0 0 338.87 78.26;" xml:space="preserve">
<style type="text/css">
	.st0{enable-background:new    ;}
	.st1{fill:#1A1311;}
	.st2{fill:none;stroke:#171714;stroke-width:1.5;stroke-miterlimit:10;}
</style>
<g id="結帳方式" transform="translate(-984.217 -2485.619)">
	<g class="st0">
		<path class="st1" d="M1125.29,2522.48c0.09-0.04,0.15-0.06,0.2-0.06c0.06,0,0.13,0.07,0.2,0.21c0.72,1.45,1.28,2.94,1.66,4.48
			c0.02,0.08,0.02,0.14,0.02,0.18c0,0.11-0.1,0.2-0.31,0.29l-1.2,0.48c-0.15,0.05-0.25,0.07-0.29,0.07c-0.08,0-0.14-0.08-0.18-0.24
			l-0.28-1.11c-0.77,0.11-1.34,0.17-1.72,0.21v6.85l0.05,3.27c0,0.13-0.02,0.21-0.05,0.24c-0.03,0.03-0.11,0.04-0.22,0.04h-1.92
			c-0.13,0-0.21-0.02-0.23-0.05s-0.04-0.11-0.04-0.23l0.05-3.27v-6.68c-0.44,0.05-1.14,0.11-2.1,0.18c-0.42,0.03-0.73,0.09-0.95,0.2
			c-0.13,0.07-0.26,0.1-0.38,0.1c-0.16,0-0.27-0.13-0.32-0.4c-0.1-0.51-0.19-1.22-0.28-2.12c0.54,0.06,1.03,0.08,1.46,0.08
			c0.18,0,0.34,0,0.49-0.01c0.47-0.59,0.92-1.19,1.35-1.79c-1.03-1.38-2.12-2.63-3.28-3.75c-0.08-0.08-0.12-0.16-0.12-0.23
			c0-0.04,0.06-0.15,0.17-0.32l0.93-1.23c0.11-0.14,0.2-0.21,0.26-0.21c0.05,0,0.11,0.04,0.2,0.13l0.65,0.68
			c0.6-0.98,1.1-1.91,1.5-2.81c0.18-0.4,0.33-0.84,0.45-1.32c0.92,0.35,1.61,0.65,2.08,0.89c0.22,0.12,0.33,0.26,0.33,0.4
			c0,0.13-0.07,0.24-0.22,0.33c-0.15,0.09-0.31,0.29-0.48,0.6c-0.9,1.58-1.63,2.75-2.19,3.53c0.24,0.25,0.6,0.67,1.07,1.24
			c0.42-0.63,1-1.6,1.73-2.9c0.3-0.57,0.53-1.09,0.7-1.58c0.78,0.29,1.47,0.6,2.08,0.93c0.2,0.11,0.31,0.23,0.31,0.35
			c0,0.15-0.09,0.29-0.28,0.4c-0.16,0.11-0.42,0.44-0.77,0.98c-1.33,2.11-2.62,3.97-3.86,5.59c1.33-0.07,2.34-0.12,3-0.17
			c-0.22-0.59-0.43-1.1-0.62-1.53c-0.03-0.08-0.05-0.14-0.05-0.18c0-0.08,0.09-0.16,0.27-0.24L1125.29,2522.48z M1116.92,2534.76
			c0.56-1.35,0.9-2.87,1.03-4.55c0.04-0.46,0.06-0.84,0.06-1.15c0-0.11,0-0.26-0.01-0.45c0.87,0.14,1.51,0.27,1.93,0.4
			c0.28,0.09,0.43,0.19,0.43,0.29c0,0.15-0.04,0.27-0.12,0.38c-0.07,0.12-0.14,0.43-0.21,0.93c-0.24,1.99-0.52,3.49-0.82,4.5
			c-0.13,0.4-0.24,0.6-0.33,0.6c-0.07,0-0.26-0.1-0.57-0.31C1117.85,2535.13,1117.39,2534.91,1116.92,2534.76z M1125.47,2528.68
			c0.11-0.03,0.2-0.05,0.24-0.05c0.08,0,0.14,0.08,0.18,0.23c0.38,1,0.73,2.47,1.05,4.42c0.02,0.08,0.02,0.14,0.02,0.17
			c0,0.11-0.11,0.2-0.32,0.28l-1.26,0.43c-0.14,0.05-0.24,0.07-0.29,0.07c-0.09,0-0.14-0.08-0.16-0.24
			c-0.22-1.99-0.51-3.51-0.87-4.58c-0.02-0.08-0.04-0.14-0.04-0.18c0-0.07,0.09-0.13,0.28-0.2L1125.47,2528.68z M1130.72,2525.41
			l-3.08,0.05c-0.13,0-0.21-0.02-0.23-0.05c-0.02-0.03-0.04-0.11-0.04-0.22v-1.76c0-0.13,0.02-0.21,0.05-0.23
			c0.03-0.02,0.11-0.04,0.22-0.04l3.08,0.05h0.95v-2.93h-1.57l-3.25,0.05c-0.13,0-0.21-0.02-0.24-0.05
			c-0.02-0.03-0.04-0.11-0.04-0.22v-1.78c0-0.13,0.02-0.21,0.05-0.23c0.03-0.02,0.11-0.04,0.23-0.04l3.25,0.05h1.57v-0.73
			c0-1.29-0.05-2.23-0.15-2.82c0.92,0.02,1.77,0.08,2.55,0.17c0.28,0.03,0.43,0.13,0.43,0.28c0,0.12-0.05,0.27-0.15,0.45
			c-0.11,0.25-0.16,0.88-0.16,1.87v0.78h2.12l3.22-0.05c0.15,0,0.24,0.02,0.27,0.05c0.02,0.03,0.04,0.11,0.04,0.22v1.78
			c0,0.13-0.02,0.21-0.06,0.23c-0.03,0.02-0.11,0.04-0.24,0.04l-3.22-0.05h-2.12v2.93h1.45l3.05-0.05c0.13,0,0.21,0.02,0.23,0.05
			c0.02,0.03,0.04,0.11,0.04,0.22v1.76c0,0.13-0.02,0.21-0.05,0.23c-0.03,0.02-0.11,0.04-0.22,0.04l-3.05-0.05H1130.72z
			 M1129.93,2537.26h-1.94c-0.14,0-0.22-0.02-0.24-0.05s-0.04-0.11-0.04-0.23l0.05-4.27v-1.98l-0.05-2.82
			c0-0.15,0.02-0.24,0.05-0.27c0.03-0.02,0.11-0.04,0.23-0.04l2.97,0.05h4.31l2.97-0.05c0.14,0,0.22,0.02,0.24,0.05
			c0.02,0.04,0.04,0.13,0.04,0.26l-0.05,2.47v2.28l0.05,4.25c0,0.17-0.09,0.26-0.28,0.26h-1.99c-0.19,0-0.28-0.08-0.28-0.26v-1.05
			h-5.75v1.12c0,0.13-0.02,0.21-0.05,0.24C1130.12,2537.25,1130.05,2537.26,1129.93,2537.26z M1130.21,2529.82v3.86h5.75v-3.86
			H1130.21z"/>
		<path class="st1" d="M1167.97,2534.74c-0.41,0.41-0.77,0.95-1.07,1.64c-0.19,0.4-0.34,0.6-0.45,0.6c-0.09,0-0.28-0.07-0.57-0.2
			c-3.47-1.65-5.82-4.63-7.06-8.94h-1.27v5.9c0.9-0.22,2.07-0.56,3.5-1.03c-0.12,0.47-0.18,0.97-0.18,1.5c0,0.4-0.04,0.64-0.12,0.73
			c-0.07,0.07-0.27,0.16-0.62,0.27c-2.29,0.72-4.07,1.22-5.36,1.5c-0.45,0.08-0.74,0.18-0.89,0.31c-0.18,0.11-0.33,0.17-0.45,0.17
			c-0.14,0-0.26-0.13-0.35-0.38c-0.17-0.56-0.39-1.33-0.65-2.29c0.97-0.06,1.88-0.16,2.72-0.31v-6.37h-1.65l0.02,1.5
			c0,1.02-0.15,1.67-0.45,1.97c-0.27,0.33-0.78,0.52-1.53,0.57c-0.18,0.02-0.31,0.02-0.38,0.02c-0.16,0-0.26-0.04-0.31-0.12
			c-0.02-0.06-0.04-0.2-0.06-0.42c-0.07-0.75-0.22-1.31-0.43-1.67v3.2l0.05,4.13c0,0.16-0.08,0.24-0.24,0.24h-1.86
			c-0.18,0-0.27-0.08-0.27-0.24l0.05-4.1v-11.74h-1v7.94l0.05,2.9c0,0.12-0.02,0.2-0.06,0.22c-0.03,0.02-0.11,0.04-0.23,0.04h-1.51
			c-0.18,0-0.27-0.08-0.27-0.26l0.05-2.95v-6.88l-0.05-2.97c0-0.15,0.02-0.24,0.05-0.27c0.03-0.02,0.11-0.04,0.23-0.04l2.53,0.05
			h0.22v-1c0-1.35-0.06-2.5-0.17-3.45c0.76,0.02,1.55,0.08,2.37,0.17c0.24,0.03,0.35,0.12,0.35,0.26c0,0.08-0.02,0.19-0.06,0.32
			c-0.05,0.16-0.08,0.26-0.1,0.3c-0.08,0.38-0.12,1.17-0.12,2.37v1.04h0.33l2.53-0.05c0.13,0,0.21,0.02,0.23,0.06
			c0.02,0.03,0.04,0.11,0.04,0.24l-0.05,3.14v3.3h1.7v-7.04l-0.05-2.82c0-0.15,0.02-0.24,0.05-0.27c0.03-0.02,0.11-0.04,0.23-0.04
			l3.03,0.05h4.52l2.98-0.05c0.13,0,0.21,0.02,0.24,0.06c0.02,0.03,0.04,0.11,0.04,0.24v1.72c0,0.13-0.02,0.21-0.06,0.23
			c-0.02,0.02-0.1,0.04-0.22,0.04l-2.98-0.05h-5.37v1.33h4.3l3.1-0.05c0.13,0,0.21,0.02,0.23,0.06c0.02,0.02,0.02,0.11,0.02,0.24
			v1.44c0,0.14-0.01,0.22-0.04,0.24c-0.03,0.02-0.11,0.04-0.22,0.04l-3.1-0.05h-4.3v1.32h4.27l3.12-0.05c0.13,0,0.21,0.02,0.23,0.05
			c0.02,0.03,0.02,0.1,0.02,0.22v1.49c0,0.13-0.01,0.21-0.04,0.23c-0.03,0.02-0.11,0.04-0.22,0.04l-3.12-0.05h-4.27v1.42h6.25
			l3.34-0.05c0.14,0,0.22,0.02,0.24,0.05c0.02,0.03,0.04,0.11,0.04,0.22v1.76c0,0.12-0.01,0.2-0.04,0.23
			c-0.03,0.03-0.11,0.04-0.24,0.04c-0.02,0-0.13,0-0.31-0.01c-0.63-0.02-1.31-0.03-2.04-0.04c0.59,0.39,1.14,0.8,1.65,1.22
			c0.13,0.11,0.2,0.22,0.2,0.33c0,0.11-0.09,0.2-0.28,0.24c-0.17,0.08-0.4,0.27-0.7,0.56c-0.66,0.66-1.38,1.27-2.17,1.82
			C1164.72,2533.3,1166.21,2534.21,1167.97,2534.74z M1151.14,2529.71c0.15,0,0.24-0.03,0.28-0.09c0.03-0.06,0.05-0.17,0.05-0.35
			v-8.09h-1.1v8.5C1150.52,2529.7,1150.77,2529.71,1151.14,2529.71z M1162.3,2530.45c0.51-0.43,1.09-0.99,1.75-1.67
			c0.27-0.33,0.49-0.64,0.66-0.93h-3.65C1161.42,2528.88,1161.84,2529.75,1162.3,2530.45z"/>
		<path class="st1" d="M1175.84,2521.16l-3.15,0.05c-0.13,0-0.21-0.02-0.23-0.05c-0.02-0.04-0.04-0.13-0.04-0.26v-2.03
			c0-0.14,0.02-0.22,0.05-0.26c0.03-0.03,0.11-0.04,0.22-0.04l3.15,0.05h6.13v-1.62c0-1.07-0.06-1.89-0.17-2.45
			c0.87,0,1.78,0.04,2.72,0.12c0.27,0.03,0.4,0.13,0.4,0.28c0,0.09-0.05,0.26-0.15,0.52c-0.11,0.2-0.16,0.68-0.16,1.45v1.7h6.58
			l3.15-0.05c0.11,0,0.19,0.02,0.22,0.06c0.02,0.03,0.02,0.11,0.02,0.23v2.03c0,0.15-0.02,0.24-0.05,0.27
			c-0.02,0.02-0.09,0.04-0.2,0.04l-3.15-0.05h-8.66c-0.02,1-0.09,2.03-0.2,3.08h6.13l2.94-0.05c0.2,0,0.3,0.12,0.3,0.35
			c-0.03,0.39-0.07,1.04-0.1,1.95c-0.19,3.39-0.46,5.87-0.83,7.42c-0.29,1.25-0.76,2.1-1.4,2.53c-0.57,0.38-1.45,0.57-2.62,0.57
			c-0.76,0-1.42-0.02-1.98-0.05c-0.36-0.02-0.57-0.09-0.63-0.2c-0.06-0.08-0.11-0.32-0.16-0.71c-0.11-0.85-0.29-1.49-0.55-1.93
			c1.12,0.15,2.14,0.23,3.08,0.23c0.76,0,1.26-0.41,1.48-1.24c0.38-1.29,0.64-3.41,0.77-6.36h-6.8c-0.5,2.47-1.39,4.52-2.66,6.15
			c-1.12,1.43-2.68,2.74-4.66,3.92c-0.34,0.19-0.54,0.28-0.6,0.28c-0.11,0-0.28-0.18-0.5-0.55c-0.38-0.58-0.88-1.09-1.5-1.53
			c3.04-1.5,5.11-3.36,6.2-5.59c0.96-1.95,1.45-4.72,1.48-8.29H1175.84z"/>
		<path class="st1" d="M1203.72,2521.68l-3.21,0.05c-0.11,0-0.18-0.01-0.21-0.04c-0.02-0.03-0.04-0.12-0.04-0.26v-1.96
			c0-0.15,0.01-0.24,0.04-0.27s0.09-0.04,0.21-0.04l3.21,0.05h8.97l-0.02-1.03c0-1.34-0.07-2.54-0.21-3.58
			c1.27,0.03,2.18,0.08,2.72,0.15c0.27,0.03,0.4,0.13,0.4,0.31c0,0.04-0.05,0.21-0.15,0.52c-0.09,0.25-0.13,0.77-0.13,1.56
			c0,0.2,0,0.52,0.01,0.96v1.1h3.08l3.2-0.05c0.13,0,0.21,0.02,0.23,0.06c0.02,0.03,0.04,0.11,0.04,0.24v1.96
			c0,0.15-0.02,0.24-0.05,0.27c-0.02,0.02-0.1,0.04-0.22,0.04l-3.2-0.05h-2.98c0.19,3.48,0.66,6.33,1.43,8.56
			c0.8,2.46,1.55,3.7,2.25,3.7c0.59,0,0.97-1.22,1.12-3.66c0.35,0.36,0.89,0.74,1.62,1.14c0.3,0.16,0.48,0.28,0.55,0.35
			c0.08,0.08,0.12,0.2,0.12,0.34c0,0.07-0.02,0.23-0.05,0.48c-0.47,3.04-1.48,4.55-3.02,4.53c-2.04-0.02-3.68-1.86-4.91-5.5
			c-0.87-2.51-1.44-5.82-1.72-9.92H1203.72z M1208.74,2527.22h-0.98v4.91c1.9-0.46,3.52-0.93,4.87-1.4
			c-0.05,0.46-0.07,0.98-0.07,1.57c0,0.43-0.04,0.69-0.11,0.78c-0.07,0.07-0.28,0.16-0.63,0.27c-2.95,0.98-5.94,1.79-8.95,2.43
			c-0.51,0.12-0.86,0.25-1.05,0.38c-0.21,0.11-0.36,0.17-0.45,0.17c-0.16,0-0.28-0.11-0.35-0.33c-0.15-0.46-0.37-1.31-0.65-2.53
			c0.67-0.02,1.47-0.11,2.39-0.29l2.4-0.45v-5.51h-0.85l-2.97,0.06c-0.19,0-0.28-0.08-0.28-0.26v-1.87c0-0.15,0.02-0.24,0.05-0.27
			c0.03-0.02,0.11-0.04,0.23-0.04l2.97,0.05h4.43l2.95-0.05c0.14,0,0.22,0.02,0.26,0.06c0.02,0.03,0.04,0.11,0.04,0.24v1.87
			c0,0.12-0.02,0.2-0.05,0.22c-0.04,0.02-0.12,0.04-0.24,0.04L1208.74,2527.22z M1218.39,2515.03c0.81,0.66,1.53,1.42,2.15,2.29
			c0.06,0.08,0.09,0.15,0.09,0.21c0,0.08-0.09,0.18-0.26,0.29l-1.18,0.81c-0.15,0.1-0.25,0.15-0.32,0.15c-0.07,0-0.15-0.07-0.23-0.2
			c-0.5-0.85-1.16-1.64-1.95-2.38c-0.08-0.08-0.12-0.15-0.12-0.2c0-0.06,0.08-0.15,0.23-0.26l1.05-0.72
			c0.15-0.1,0.24-0.15,0.29-0.15C1218.21,2514.88,1218.3,2514.93,1218.39,2515.03z"/>
	</g>
	<path id="Path_462" class="st2" d="M1018.78,2486.4c-2.34,2.89-11.36,12.85-24.51,13.02c-0.89,0.02-1.66,0.59-1.95,1.43l-8,22.66
		c-0.15,0.43-0.15,0.9-0.01,1.33l7.98,23.77c0.27,0.85,1.04,1.43,1.93,1.46c4.08,0.13,15.81,1.52,23.2,12.83
		c0.39,0.61,1.06,0.98,1.79,0.99h267.61c0.67,0,1.3-0.32,1.69-0.85c2.27-3.03,10.84-13.12,24.65-13.1c0.9-0.01,1.69-0.58,1.98-1.44
		l7.83-22.51c0.14-0.43,0.15-0.88,0.01-1.31l-7.86-23.67c-0.27-0.84-1.03-1.42-1.91-1.47c-4.08-0.18-15.91-1.69-23.61-12.96
		c-0.39-0.59-1.05-0.95-1.76-0.95h-267.43C1019.78,2485.62,1019.18,2485.9,1018.78,2486.4z"/>
	<path id="Path_463" d="M1093.63,2537.17c6.79,0,12.3-5.51,12.3-12.3c0-6.79-5.51-12.3-12.3-12.3s-12.3,5.51-12.3,12.3
		C1081.34,2531.66,1086.84,2537.17,1093.63,2537.17z M1093.63,2513.94c6.04,0,10.93,4.89,10.93,10.93s-4.89,10.93-10.93,10.93
		c-6.04,0-10.93-4.89-10.93-10.93C1082.71,2518.84,1087.6,2513.95,1093.63,2513.94L1093.63,2513.94z"/>
	<path id="Path_464" d="M1093.64,2529.55c-1.03,0-1.87-0.84-1.87-1.87c0-0.52-0.42-0.93-0.93-0.93c-0.52,0-0.93,0.42-0.93,0.93
		c0.01,1.7,1.16,3.18,2.8,3.6v0.13c0,0.52,0.42,0.93,0.93,0.93c0.52,0,0.93-0.42,0.93-0.93l0,0v-0.13c1.99-0.51,3.2-2.54,2.69-4.54
		c-0.42-1.65-1.91-2.81-3.62-2.8c-1.03,0-1.87-0.84-1.87-1.87s0.84-1.87,1.87-1.87s1.87,0.84,1.87,1.87l0,0
		c0,0.52,0.42,0.93,0.93,0.93c0.52,0,0.93-0.42,0.93-0.93c-0.01-1.7-1.16-3.18-2.8-3.6v-0.13c0-0.52-0.42-0.93-0.93-0.93
		s-0.93,0.42-0.93,0.93v0.13c-1.99,0.51-3.2,2.54-2.69,4.54c0.42,1.65,1.91,2.81,3.62,2.8c1.03,0,1.87,0.84,1.87,1.87
		S1094.67,2529.55,1093.64,2529.55L1093.64,2529.55z"/>
</g>
</svg>
