<?xml version="1.0" encoding="utf-8"?>
<!-- Generator: Adobe Illustrator 25.0.0, SVG Export Plug-In . SVG Version: 6.00 Build 0)  -->
<svg version="1.1" id="圖層_1" xmlns="http://www.w3.org/2000/svg" xmlns:xlink="http://www.w3.org/1999/xlink" x="0px" y="0px"
	 viewBox="0 0 87.39 87.39" style="enable-background:new 0 0 87.39 87.39;" xml:space="preserve">
<style type="text/css">
	.st0{fill:#FFFFFF;}
	.st1{stroke:#000000;stroke-width:0.6;}
</style>
<g id="money-svgrepo-com" transform="translate(22.968 22.969)">
	<circle id="Ellipse_9" class="st0" cx="20.73" cy="20.73" r="43.69"/>
	<g id="Group_32" transform="translate(0 0)">
		<path id="Path_442" class="st1" d="M27.64,24.87c6.87,0,12.43-5.57,12.43-12.43C40.07,5.57,34.5,0,27.64,0S15.2,5.57,15.2,12.44
			c0,0,0,0,0,0C15.21,19.3,20.77,24.86,27.64,24.87z M27.64,1.38c6.1,0,11.05,4.95,11.05,11.05s-4.95,11.05-11.05,11.05
			s-11.05-4.95-11.05-11.05C16.59,6.34,21.53,1.39,27.64,1.38z"/>
		<path id="Path_443" class="st1" d="M27.64,15.89c-0.76,0-1.38-0.62-1.38-1.38c0-0.38-0.31-0.69-0.69-0.69
			c-0.38,0-0.69,0.31-0.69,0.69c0,1.26,0.86,2.35,2.07,2.67v0.1c0,0.38,0.31,0.69,0.69,0.69c0.38,0,0.69-0.31,0.69-0.69
			c0,0,0,0,0-0.01v-0.1c1.48-0.38,2.36-1.88,1.98-3.36c-0.31-1.22-1.41-2.07-2.67-2.07c-0.76,0-1.38-0.62-1.38-1.38
			s0.62-1.38,1.38-1.38c0.76,0,1.38,0.62,1.38,1.38c0,0,0,0,0,0c0,0.38,0.31,0.69,0.69,0.69c0.38,0,0.69-0.31,0.69-0.69
			c0,0,0,0,0-0.01c0-1.26-0.86-2.35-2.07-2.67V7.6c0-0.38-0.31-0.69-0.69-0.69c-0.38,0-0.69,0.31-0.69,0.69v0.1
			c-1.48,0.38-2.36,1.88-1.98,3.36c0.31,1.22,1.41,2.07,2.67,2.07c0.76-0.02,1.4,0.58,1.42,1.34c0.02,0.76-0.58,1.4-1.34,1.42
			C27.68,15.89,27.66,15.89,27.64,15.89L27.64,15.89z"/>
		<path id="Path_445" class="st1" d="M3.46,36.96c0-0.57-0.46-1.04-1.04-1.04s-1.04,0.46-1.04,1.04c0,0.57,0.46,1.04,1.04,1.04
			C2.99,38,3.45,37.53,3.46,36.96z"/>
		<path id="Path_446" class="st1" d="M41.08,29.02c-0.75-1.31-2.41-1.77-3.73-1.03l-7.95,3.87c-1.24,0.62-2.48,0.62-5.22,0.62
			c-2.28-0.08-4.55-0.31-6.8-0.68c-0.37-0.08-0.74,0.16-0.82,0.53c-0.08,0.37,0.16,0.74,0.53,0.82c0.02,0,0.04,0.01,0.06,0.01
			c2.32,0.39,4.67,0.62,7.02,0.7c2.87,0,4.31,0,5.83-0.76l7.99-3.89c0.64-0.41,1.5-0.23,1.91,0.41c0.41,0.64,0.23,1.5-0.41,1.91
			c-0.04,0.03-0.09,0.05-0.14,0.08l-9.34,5.81C30,37.43,28,38.68,23.49,38.68c-3.92,0-9.97-3.33-10.05-3.38
			c-1.41-0.57-2.93-0.83-4.45-0.76c-0.38,0-0.69,0.31-0.69,0.69c0,0.38,0.31,0.69,0.69,0.69c1.3-0.05,2.59,0.15,3.81,0.6l0,0
			c0.26,0.14,6.42,3.54,10.7,3.54c4.99,0,7.2-1.44,7.27-1.49l9.31-5.79C41.39,32.02,41.84,30.33,41.08,29.02L41.08,29.02z"/>
		<path id="Path_447" class="st1" d="M8.98,26.25h5.53c0.81,0,2.18,1.03,3.39,1.93c1.52,1.14,2.95,2.21,4.21,2.21h4.14
			c0.57-0.03,1.13,0.14,1.58,0.49c0.26,0.28,0.7,0.29,0.98,0.02c0.28-0.26,0.29-0.7,0.02-0.98c-0.01-0.01-0.01-0.01-0.02-0.02
			c-0.71-0.61-1.62-0.93-2.56-0.89h-4.14c-0.81,0-2.18-1.03-3.39-1.93c-1.52-1.14-2.95-2.21-4.21-2.21H8.98
			c-0.38,0-0.69,0.31-0.69,0.69C8.3,25.95,8.6,26.25,8.98,26.25z"/>
		<path id="Path_448" class="st1" d="M4.84,22.11H0.69C0.31,22.11,0,22.41,0,22.8s0.31,0.69,0.69,0.69c0,0,0,0,0.01,0h4.15
			c0.38,0,0.69,0.31,0.69,0.69v15.2c0,0.38-0.31,0.69-0.69,0.69H0.69C0.31,40.07,0,40.38,0,40.76s0.31,0.69,0.69,0.69
			c0,0,0,0,0.01,0h4.15c1.14,0,2.07-0.93,2.07-2.07v-15.2C6.91,23.04,5.98,22.11,4.84,22.11z"/>
	</g>
</g>
</svg>
