<?xml version="1.0" encoding="utf-8"?>
<!-- Generator: Adobe Illustrator 25.0.0, SVG Export Plug-In . SVG Version: 6.00 Build 0)  -->
<svg version="1.1" id="圖層_1" xmlns="http://www.w3.org/2000/svg" xmlns:xlink="http://www.w3.org/1999/xlink" x="0px" y="0px"
	 viewBox="0 0 87.39 87.39" style="enable-background:new 0 0 87.39 87.39;" xml:space="preserve">
<style type="text/css">
	.st0{fill:#FFFFFF;}
</style>
<g id="order-svgrepo-com" transform="translate(26.23 22.562)">
	<circle id="Ellipse_10" class="st0" cx="17.47" cy="21.13" r="43.69"/>
	<path id="Path_449" d="M8.21,19.6h18.55v2.1H8.21V19.6z M8.21,28.82h11.35v2.1H8.21V28.82z"/>
	<path id="Path_450" d="M30.84,42.26H4.09c-0.55,0-1.1-0.11-1.61-0.31c-0.49-0.2-0.93-0.49-1.29-0.87
		c-0.37-0.37-0.67-0.81-0.87-1.29C0.11,39.28,0,38.73,0,38.18V10.34c0-0.55,0.11-1.1,0.31-1.61c0.2-0.49,0.49-0.93,0.87-1.29
		C1.56,7.07,2,6.77,2.48,6.57c0.51-0.21,1.06-0.31,1.61-0.31h4.05v2.06H4.09c-1.14,0-2.06,0.92-2.06,2.06v27.84
		c0,1.14,0.92,2.06,2.06,2.06h26.72c1.14,0,2.06-0.92,2.06-2.06V10.34c0-1.14-0.92-2.06-2.06-2.06h-4.02V6.22h4.05
		c0.55,0,1.1,0.11,1.61,0.31c0.49,0.2,0.93,0.49,1.29,0.87c0.37,0.37,0.67,0.81,0.87,1.29c0.21,0.51,0.31,1.06,0.31,1.61v27.84
		c0,0.55-0.11,1.1-0.31,1.61c-0.2,0.49-0.49,0.93-0.87,1.29c-0.37,0.37-0.81,0.67-1.29,0.87C31.95,42.15,31.4,42.27,30.84,42.26
		L30.84,42.26z"/>
	<path id="Path_451" d="M27.74,12.4H7.2V5.7c0-1.42,1.15-2.58,2.57-2.59c0,0,0.01,0,0.01,0h2.65c1.42-2.8,4.84-3.91,7.64-2.49
		c1.08,0.55,1.95,1.42,2.49,2.49h2.65c1.42,0,2.58,1.15,2.58,2.57c0,0,0,0.01,0,0.01L27.74,12.4z M9.26,10.34h16.45V5.7
		c-0.01-0.29-0.24-0.52-0.52-0.52H21.1l-0.24-0.7c-0.65-1.87-2.7-2.86-4.57-2.21c-1.04,0.36-1.85,1.17-2.21,2.21l-0.24,0.7H9.75
		C9.46,5.18,9.23,5.41,9.22,5.7v4.65L9.26,10.34z"/>
</g>
</svg>
