<?xml version="1.0" encoding="utf-8"?>
<!-- Generator: Adobe Illustrator 25.0.0, SVG Export Plug-In . SVG Version: 6.00 Build 0)  -->
<svg version="1.1" id="圖層_1" xmlns="http://www.w3.org/2000/svg" xmlns:xlink="http://www.w3.org/1999/xlink" x="0px" y="0px"
	 viewBox="0 0 338.87 78.26" style="enable-background:new 0 0 338.87 78.26;" xml:space="preserve">
<style type="text/css">
	.st0{enable-background:new    ;}
	.st1{fill:#1A1311;}
	.st2{fill:none;stroke:#171714;stroke-width:1.5;stroke-miterlimit:10;}
</style>
<g id="訂購人資料" transform="translate(-984.217 -2485.619)">
	<g class="st0">
		<path class="st1" d="M1106.42,2519.9h4.14l2.64-0.05c0.13,0,0.21,0.02,0.23,0.05s0.04,0.11,0.04,0.22v1.78
			c0,0.14-0.02,0.22-0.05,0.26c-0.03,0.02-0.11,0.04-0.22,0.04l-2.64-0.05h-4.14l-2.6,0.05c-0.14,0-0.22-0.02-0.24-0.05
			c-0.02-0.04-0.04-0.12-0.04-0.24v-1.78c0-0.13,0.02-0.21,0.05-0.23c0.03-0.02,0.11-0.04,0.23-0.04L1106.42,2519.9z
			 M1112.62,2537.74c0,0.13-0.02,0.21-0.05,0.24c-0.03,0.02-0.11,0.04-0.23,0.04h-1.94c-0.14,0-0.22-0.02-0.24-0.05
			c-0.02-0.03-0.04-0.11-0.04-0.23v-0.7h-2.98v1.17c0,0.19-0.08,0.28-0.24,0.28h-1.93c-0.15,0-0.24-0.02-0.27-0.05
			c-0.02-0.03-0.04-0.11-0.04-0.23l0.05-3.77v-1.65l-0.05-2.34c0-0.14,0.02-0.22,0.06-0.24c0.03-0.03,0.11-0.04,0.24-0.04l2.22,0.05
			h2.88l2.27-0.05c0.14,0,0.22,0.02,0.24,0.05s0.04,0.11,0.04,0.23l-0.05,1.92v1.78L1112.62,2537.74z M1107.23,2516.53h2.62
			l2.22-0.05c0.15,0,0.24,0.02,0.27,0.05c0.02,0.03,0.04,0.11,0.04,0.22v1.68c0,0.13-0.02,0.21-0.06,0.23
			c-0.03,0.03-0.11,0.04-0.24,0.04l-2.22-0.05h-2.62l-2.22,0.05c-0.13,0-0.21-0.02-0.24-0.05c-0.02-0.03-0.04-0.11-0.04-0.22v-1.68
			c0-0.13,0.02-0.21,0.06-0.23c0.02-0.02,0.1-0.04,0.22-0.04L1107.23,2516.53z M1107.31,2523.47h2.62l2.05-0.05
			c0.15,0,0.24,0.02,0.27,0.05c0.02,0.03,0.04,0.11,0.04,0.22v1.61c0,0.13-0.02,0.21-0.06,0.23c-0.03,0.02-0.11,0.04-0.24,0.04
			l-2.05-0.05h-2.62l-2.08,0.05c-0.13,0-0.21-0.02-0.23-0.05c-0.02-0.03-0.04-0.11-0.04-0.22v-1.61c0-0.13,0.02-0.21,0.05-0.23
			c0.03-0.02,0.11-0.04,0.22-0.04L1107.31,2523.47z M1107.31,2526.82h2.62l2.05-0.05c0.15,0,0.24,0.02,0.27,0.05
			c0.02,0.03,0.04,0.11,0.04,0.22v1.63c0,0.11-0.02,0.18-0.06,0.21c-0.03,0.02-0.11,0.04-0.24,0.04l-2.05-0.05h-2.62l-2.08,0.05
			c-0.18,0-0.27-0.08-0.27-0.24v-1.63c0-0.13,0.02-0.21,0.05-0.23c0.03-0.02,0.11-0.04,0.22-0.04L1107.31,2526.82z M1110.11,2532.35
			h-2.98v2.58h2.98V2532.35z M1117.51,2519.75l-3.15,0.05c-0.14,0-0.22-0.02-0.24-0.06c-0.02-0.03-0.04-0.11-0.04-0.24v-2.05
			c0-0.14,0.02-0.22,0.05-0.26c0.03-0.02,0.11-0.04,0.23-0.04l3.15,0.05h5.42l3.15-0.05c0.13,0,0.21,0.02,0.23,0.06
			c0.02,0.03,0.04,0.11,0.04,0.23v2.05c0,0.15-0.02,0.24-0.05,0.27c-0.03,0.02-0.11,0.04-0.22,0.04l-3.15-0.05h-0.4v11.17
			c0,0.31,0.02,1.64,0.07,4c0,0.68-0.07,1.21-0.21,1.58c-0.14,0.35-0.38,0.65-0.72,0.9c-0.56,0.43-1.92,0.65-4.09,0.65
			c-0.42,0-0.67-0.04-0.74-0.12c-0.07-0.07-0.13-0.3-0.21-0.68c-0.12-0.72-0.34-1.36-0.65-1.92c0.68,0.07,1.59,0.1,2.72,0.1
			c0.46,0,0.77-0.08,0.93-0.23c0.13-0.13,0.2-0.38,0.2-0.75v-14.7H1117.51z"/>
		<path class="st1" d="M1129.84,2537.17c1.03-1.11,1.79-2.3,2.27-3.58c0.13-0.3,0.23-0.66,0.31-1.07c0.66,0.2,1.27,0.43,1.84,0.71
			c0.22,0.1,0.33,0.2,0.33,0.29c0,0.14-0.07,0.27-0.2,0.4c-0.13,0.15-0.26,0.37-0.38,0.65c-0.59,1.41-1.21,2.54-1.86,3.38
			c-0.24,0.32-0.39,0.48-0.46,0.48c-0.1,0-0.26-0.1-0.48-0.3C1130.75,2537.7,1130.29,2537.38,1129.84,2537.17z M1135.7,2516.53
			l2.17-0.05c0.16,0,0.24,0.09,0.24,0.28l-0.05,3.36v8.39l0.05,3.37c0,0.19-0.08,0.28-0.24,0.28l-2.17-0.05h-2.09l-2.12,0.05
			c-0.13,0-0.21-0.02-0.23-0.05s-0.04-0.11-0.04-0.23l0.05-3.37v-8.39l-0.05-3.36c0-0.14,0.02-0.22,0.05-0.24
			c0.03-0.02,0.11-0.04,0.22-0.04l2.12,0.05H1135.7z M1133.44,2518.6v2.49h2.48v-2.49H1133.44z M1133.44,2525.5h2.48v-2.4h-2.48
			V2525.5z M1135.92,2530.08v-2.6h-2.48v2.6H1135.92z M1139.21,2536.37c-0.54,0.29-0.99,0.61-1.35,0.98
			c-0.2,0.2-0.34,0.29-0.44,0.29c-0.11,0-0.28-0.17-0.5-0.53c-0.77-1.19-1.38-2.38-1.83-3.58c-0.02-0.07-0.04-0.13-0.04-0.17
			c0-0.09,0.09-0.17,0.27-0.24l1.12-0.5c0.15-0.07,0.26-0.11,0.32-0.11c0.06,0,0.13,0.07,0.18,0.21
			C1137.7,2534.3,1138.46,2535.52,1139.21,2536.37z M1146.76,2536.19c0.63,0.07,1.26,0.1,1.9,0.1c0.33,0,0.55-0.06,0.66-0.18
			c0.08-0.1,0.12-0.27,0.12-0.51v-1.48h-7.39v1.28l0.05,2.77c0,0.17-0.09,0.26-0.27,0.26h-1.83c-0.18,0-0.27-0.09-0.27-0.26
			l0.05-2.72v-1.31l-1.05,0.03c-0.15,0-0.23-0.02-0.26-0.05c-0.03-0.03-0.05-0.11-0.05-0.24v-1.28c0-0.12,0.02-0.2,0.05-0.23
			c0.03-0.03,0.12-0.04,0.26-0.04c0.01,0,0.12,0,0.33,0.01c0.23,0.02,0.47,0.03,0.72,0.04v-2.82l-0.05-2.76
			c0-0.13,0.02-0.21,0.05-0.23c0.03-0.02,0.11-0.04,0.23-0.04l3.11,0.05h1.43v-1.17h-2.15l-3.37,0.05c-0.14,0-0.22-0.02-0.24-0.05
			c-0.02-0.03-0.04-0.11-0.04-0.23v-1.29c0-0.14,0.02-0.22,0.05-0.24c0.03-0.02,0.11-0.04,0.23-0.04l3.09,0.05v-1.32
			c-0.62,0.01-1.18,0.02-1.67,0.04c-0.33,0.01-0.51,0.01-0.52,0.01c-0.13,0-0.21-0.02-0.23-0.05c-0.02-0.04-0.04-0.13-0.04-0.26
			v-1.17c0-0.16,0.09-0.24,0.27-0.24l2.2,0.05v-1.33c-0.77,0.01-1.46,0.02-2.06,0.04c-0.02,0-0.18,0-0.45,0.01
			c-0.08,0-0.13,0-0.16,0c-0.13,0-0.21-0.02-0.23-0.05c-0.02-0.03-0.04-0.11-0.04-0.22v-1.23c0-0.14,0.02-0.22,0.05-0.26
			c0.03-0.03,0.11-0.04,0.22-0.04l2.67,0.05v-0.15c0-0.97-0.05-1.61-0.15-1.93c1.07,0.07,1.83,0.12,2.29,0.17
			c0.25,0.02,0.38,0.1,0.38,0.23c0,0.15-0.04,0.27-0.12,0.38c-0.1,0.15-0.15,0.57-0.15,1.25v0.05h2.55v-0.15
			c0-0.9-0.05-1.55-0.15-1.93c1.06,0.07,1.82,0.12,2.29,0.17c0.25,0.02,0.38,0.1,0.38,0.23c0,0.11-0.04,0.24-0.12,0.38
			c-0.11,0.15-0.16,0.57-0.16,1.25v0.05l3.2-0.05c0.13,0,0.21,0.02,0.24,0.05c0.02,0.04,0.04,0.12,0.04,0.24v1.23
			c0,0.13-0.02,0.21-0.05,0.23c-0.03,0.02-0.11,0.04-0.23,0.04l-3.2-0.05v1.33l2.58-0.05c0.19,0,0.28,0.08,0.28,0.24v1.17
			c0,0.15-0.02,0.24-0.06,0.27c-0.02,0.02-0.1,0.04-0.22,0.04c-0.03,0-0.15,0-0.34-0.01c-0.67-0.02-1.41-0.03-2.23-0.04v1.32h0.4
			l3.34-0.05c0.13,0,0.21,0.02,0.24,0.05c0.02,0.03,0.04,0.11,0.04,0.23v1.29c0,0.14-0.02,0.22-0.05,0.24
			c-0.03,0.02-0.11,0.04-0.23,0.04l-3.34-0.05h-2.86v1.17h1.61l3.14-0.05c0.14,0,0.22,0.02,0.24,0.05c0.02,0.03,0.04,0.11,0.04,0.22
			l-0.05,2.98v2.6c0.33-0.01,0.65-0.02,0.96-0.04c0.2-0.01,0.31-0.01,0.33-0.01c0.14,0,0.22,0.02,0.24,0.05s0.04,0.11,0.04,0.22
			v1.28c0,0.13-0.01,0.21-0.04,0.24c-0.03,0.03-0.11,0.05-0.24,0.05l-1.27-0.03c0.03,0.8,0.05,1.31,0.05,1.53
			c0,0.97-0.19,1.64-0.57,2c-0.24,0.23-0.59,0.38-1.03,0.45c-0.4,0.07-1.04,0.11-1.93,0.12c-0.39,0-0.62-0.04-0.7-0.12
			c-0.07-0.07-0.14-0.28-0.22-0.65C1147.21,2537.01,1147.01,2536.58,1146.76,2536.19z M1142.06,2529.55h2.5v-1.28h-2.5V2529.55z
			 M1142.06,2532.37h2.5v-1.32h-2.5V2532.37z M1144.39,2520.7h2.55v-1.33h-2.55V2520.7z M1144.39,2523.64h2.55v-1.32h-2.55V2523.64z
			 M1149.44,2528.27h-2.71v1.28h2.71V2528.27z M1146.73,2532.37h2.71v-1.32h-2.71V2532.37z"/>
		<path class="st1" d="M1180.17,2535.42c-0.57,0.54-1.04,1.2-1.4,1.95c-0.19,0.4-0.34,0.6-0.45,0.6c-0.08,0-0.27-0.1-0.57-0.31
			c-4.64-2.99-7.58-6.97-8.83-11.95c-1.33,5.31-4.35,9.31-9.04,11.97c-0.31,0.17-0.5,0.26-0.57,0.26c-0.12,0-0.29-0.2-0.5-0.6
			c-0.37-0.6-0.85-1.16-1.45-1.68c3.41-1.58,5.96-3.99,7.65-7.24c1.4-2.68,2.09-5.7,2.06-9.06c-0.03-1.41-0.09-2.49-0.17-3.25
			c0.97,0.05,1.99,0.15,3.08,0.31c0.32,0.04,0.48,0.17,0.48,0.39c0,0.15-0.08,0.36-0.24,0.62c-0.14,0.23-0.21,0.78-0.21,1.66
			c-0.02,0.2-0.02,0.49-0.02,0.89c0.58,3.92,1.78,7.17,3.6,9.74C1175.18,2532.01,1177.38,2533.91,1180.17,2535.42z"/>
		<path class="st1" d="M1200.08,2534.75c1.64,0.83,3.91,1.39,6.82,1.67c-0.39,0.37-0.8,0.88-1.22,1.55
			c-0.21,0.32-0.4,0.48-0.57,0.48s-0.37-0.02-0.6-0.05c-1.2-0.18-2.47-0.51-3.81-1c-1.17-0.44-2.18-0.92-3.03-1.45
			c-0.1-0.06-0.15-0.12-0.15-0.17c0-0.07,0.09-0.13,0.28-0.2l1.89-0.9h-8.4c0.54,0.21,1.25,0.52,2.12,0.93
			c0.24,0.07,0.35,0.18,0.35,0.34c0,0.15-0.13,0.25-0.38,0.31c-0.18,0.03-0.52,0.18-1.03,0.45c-1.66,0.84-3.56,1.42-5.7,1.75
			c-0.26,0.03-0.43,0.05-0.5,0.05c-0.21,0-0.42-0.17-0.62-0.52c-0.31-0.55-0.68-1.03-1.12-1.44c2.27-0.23,4.15-0.64,5.63-1.23
			c0.46-0.2,0.83-0.4,1.12-0.62l-3.03,0.05c-0.13,0-0.21-0.02-0.23-0.05c-0.02-0.04-0.04-0.13-0.04-0.26l0.05-2.45v-4.27l-0.05-2.48
			c0-0.13,0.02-0.21,0.05-0.23c0.03-0.03,0.11-0.04,0.22-0.04l3.27,0.05c-0.08-0.11-0.15-0.25-0.22-0.4
			c-0.33-0.55-0.62-0.94-0.88-1.15c1.98-0.34,3.47-0.84,4.48-1.5c0.94-0.61,1.61-1.44,2-2.49h-2.1c-0.49,0.59-1.02,1.11-1.6,1.56
			c-0.32,0.24-0.51,0.35-0.57,0.35c-0.11,0-0.3-0.17-0.59-0.5c-0.33-0.37-0.7-0.64-1.1-0.82c1.46-1.05,2.55-2.22,3.28-3.5
			c0.19-0.33,0.35-0.71,0.48-1.12c0.77,0.12,1.43,0.25,1.98,0.39c0.28,0.07,0.43,0.17,0.43,0.28c0,0.13-0.08,0.25-0.23,0.35
			c-0.16,0.1-0.33,0.32-0.5,0.67l-0.28,0.48h7.41c0.3,0,0.51-0.03,0.62-0.1c0.13-0.07,0.24-0.1,0.34-0.1c0.15,0,0.46,0.17,0.93,0.5
			c0.55,0.37,0.83,0.66,0.83,0.88c0,0.13-0.07,0.24-0.21,0.32c-0.18,0.11-0.33,0.26-0.44,0.45c-0.27,0.44-0.68,1.03-1.23,1.77
			c-0.26,0.33-0.46,0.5-0.6,0.5c-0.12,0-0.35-0.07-0.67-0.22c-0.56-0.25-1.03-0.42-1.4-0.5c0.57-0.54,1.05-1.09,1.43-1.65h-3.7
			c0.92,2.42,3.55,3.83,7.9,4.22c-0.27,0.36-0.5,0.9-0.7,1.62c-0.09,0.3-0.16,0.49-0.22,0.57s-0.15,0.12-0.28,0.12
			c-0.08,0-0.25-0.02-0.5-0.07c-0.62-0.11-1.28-0.28-1.98-0.5c-0.03,0.43-0.05,1.19-0.05,2.27v4.27l0.05,2.45
			c0,0.14-0.01,0.22-0.04,0.26c-0.03,0.03-0.11,0.05-0.24,0.05l-3.34-0.05L1200.08,2534.75z M1191.04,2520.49
			c0.02,0.28,0.08,0.75,0.18,1.43c0.07,0.3,0.1,0.5,0.1,0.6c0,0.18-0.21,0.38-0.62,0.61c-0.99,0.52-2.29,1.08-3.91,1.67
			c-0.35,0.14-0.57,0.26-0.67,0.35c-0.14,0.13-0.26,0.2-0.35,0.2c-0.14,0-0.26-0.09-0.35-0.28c-0.26-0.48-0.55-1.19-0.87-2.12
			c0.73-0.15,1.35-0.3,1.84-0.45C1188.26,2521.88,1189.81,2521.22,1191.04,2520.49z M1187.1,2516.12c1.12,0.46,2.26,1.12,3.44,1.95
			c0.12,0.09,0.18,0.16,0.18,0.22c0,0.05-0.06,0.13-0.18,0.26l-1.07,1.22c-0.13,0.15-0.23,0.23-0.3,0.23
			c-0.06,0-0.13-0.04-0.22-0.11c-1.18-0.94-2.31-1.64-3.39-2.1c-0.13-0.08-0.2-0.15-0.2-0.2c0-0.07,0.06-0.17,0.17-0.28l1.05-1.05
			c0.13-0.14,0.23-0.21,0.3-0.21C1186.93,2516.06,1187,2516.08,1187.1,2516.12z M1201.05,2526.77h-10.73v1.05h10.73V2526.77z
			 M1190.32,2530.34h10.73v-1.05h-10.73V2530.34z M1201.05,2532.91v-1.09h-10.73v1.09H1201.05z M1199.81,2525
			c1.33,0,2.18-0.01,2.55-0.02c-1.95-0.81-3.34-1.94-4.17-3.42c-0.87,1.61-2.54,2.76-5,3.44H1199.81z"/>
		<path class="st1" d="M1215.73,2515.52c0.9,0.02,1.75,0.08,2.54,0.17c0.27,0.02,0.4,0.11,0.4,0.26c0,0.11-0.05,0.29-0.16,0.52
			c-0.11,0.23-0.17,1.07-0.17,2.51v4.7h0.2l2.7-0.05c0.14,0,0.22,0.02,0.24,0.05c0.02,0.03,0.04,0.11,0.04,0.23v1.77
			c0,0.17-0.09,0.26-0.28,0.26l-2.54-0.05c0.94,1.55,2.07,3,3.37,4.32c-0.36,0.43-0.69,0.98-1,1.65c-0.15,0.3-0.26,0.45-0.35,0.45
			s-0.22-0.13-0.39-0.38c-0.85-1.22-1.52-2.41-2.03-3.58l0.17,9.8c0,0.13-0.02,0.21-0.06,0.24c-0.03,0.02-0.11,0.04-0.23,0.04h-2.06
			c-0.13,0-0.21-0.02-0.23-0.05s-0.04-0.11-0.04-0.23c0-0.07,0.01-0.57,0.04-1.5c0.07-2.89,0.11-5.44,0.13-7.67
			c-0.78,2.09-1.79,3.99-3.03,5.69c-0.21,0.27-0.36,0.4-0.45,0.4c-0.11,0-0.2-0.14-0.29-0.43c-0.27-0.82-0.57-1.43-0.9-1.82
			c1.77-2.04,3.11-4.36,4.03-6.95h-0.45l-2.72,0.05c-0.19,0-0.28-0.08-0.28-0.26v-1.77c0-0.14,0.02-0.22,0.05-0.24
			c0.03-0.02,0.11-0.04,0.23-0.04l2.72,0.05h1.03v-4.64C1215.94,2517.7,1215.87,2516.53,1215.73,2515.52z M1213.99,2517.5
			c0.6,1.37,1.05,2.77,1.34,4.2c0.02,0.06,0.02,0.1,0.02,0.13c0,0.12-0.11,0.23-0.34,0.32l-1.07,0.4c-0.16,0.06-0.26,0.09-0.31,0.09
			c-0.07,0-0.12-0.08-0.15-0.24c-0.26-1.42-0.68-2.82-1.27-4.18c-0.03-0.08-0.05-0.15-0.05-0.2c0-0.09,0.11-0.17,0.32-0.26
			l1.05-0.43c0.11-0.05,0.2-0.07,0.24-0.07C1213.85,2517.27,1213.92,2517.35,1213.99,2517.5z M1218.81,2521.95
			c0.5-1.23,0.88-2.49,1.15-3.77c0.08-0.39,0.13-0.75,0.16-1.07c0.99,0.33,1.62,0.57,1.89,0.7c0.19,0.1,0.28,0.2,0.28,0.31
			c0,0.11-0.05,0.2-0.15,0.24c-0.12,0.08-0.22,0.27-0.31,0.56c-0.26,0.9-0.64,1.95-1.15,3.17c-0.15,0.35-0.27,0.53-0.38,0.53
			c-0.08,0-0.25-0.08-0.5-0.23C1219.5,2522.21,1219.17,2522.07,1218.81,2521.95z M1225.22,2530.25l3.82-0.75v-10.01
			c0-1.58-0.07-2.84-0.21-3.8c0.98,0.02,1.86,0.08,2.66,0.17c0.25,0.03,0.38,0.13,0.38,0.28c0,0.06-0.05,0.23-0.16,0.5
			c-0.1,0.24-0.15,1.16-0.15,2.77v9.58c0.62-0.13,1.17-0.26,1.65-0.38c0.08-0.02,0.22-0.05,0.42-0.11c0.09-0.02,0.15-0.03,0.18-0.04
			c0.06-0.02,0.11-0.02,0.13-0.02c0.07,0,0.11,0.09,0.15,0.27l0.29,1.95c0.01,0.07,0.01,0.11,0.01,0.12c0,0.09-0.09,0.15-0.26,0.17
			c-0.05,0.02-0.31,0.07-0.79,0.16c-0.58,0.11-1.17,0.22-1.78,0.34v2.33l0.05,4.32c0,0.13-0.02,0.21-0.05,0.24
			c-0.03,0.02-0.11,0.04-0.23,0.04h-2.08c-0.13,0-0.21-0.02-0.23-0.06c-0.02-0.02-0.04-0.1-0.04-0.22l0.05-4.3v-1.86l-3.43,0.68
			c-0.94,0.18-1.75,0.34-2.43,0.49c-0.15,0.02-0.34,0.06-0.57,0.11c-0.11,0.02-0.18,0.04-0.22,0.05c-0.07,0.02-0.13,0.02-0.16,0.02
			c-0.1,0-0.15-0.07-0.17-0.22l-0.32-1.98c-0.02-0.08-0.02-0.14-0.02-0.17c0-0.07,0.08-0.13,0.24-0.16c0.04-0.01,0.2-0.03,0.48-0.07
			C1223.24,2530.61,1224.17,2530.45,1225.22,2530.25z M1224.01,2523.1c1.29,0.9,2.45,1.96,3.46,3.2c0.08,0.11,0.12,0.18,0.12,0.23
			c0,0.06-0.07,0.15-0.2,0.29l-1.23,1.22c-0.14,0.13-0.24,0.2-0.29,0.2c-0.05,0-0.12-0.05-0.21-0.15c-1.07-1.37-2.17-2.5-3.3-3.39
			c-0.11-0.12-0.17-0.19-0.17-0.21c0-0.05,0.06-0.14,0.2-0.27l1.15-1.1c0.11-0.12,0.19-0.18,0.23-0.18S1223.89,2523,1224.01,2523.1z
			 M1224.68,2517.32c1.46,1.02,2.63,2.08,3.53,3.19c0.07,0.07,0.11,0.14,0.11,0.21c0,0.07-0.06,0.16-0.18,0.27l-1.2,1.17
			c-0.15,0.15-0.26,0.22-0.3,0.22s-0.11-0.05-0.17-0.15c-0.99-1.25-2.12-2.35-3.41-3.28c-0.09-0.06-0.13-0.12-0.13-0.18
			c0-0.08,0.06-0.17,0.18-0.28l1.1-1.05c0.15-0.13,0.24-0.2,0.28-0.2C1224.54,2517.23,1224.6,2517.26,1224.68,2517.32z"/>
	</g>
	<path id="Path_462" class="st2" d="M1018.78,2487.49c-2.34,2.89-11.36,12.85-24.51,13.02c-0.89,0.02-1.66,0.59-1.95,1.43l-8,22.66
		c-0.15,0.43-0.15,0.9-0.01,1.33l7.98,23.77c0.27,0.85,1.04,1.43,1.93,1.46c4.08,0.13,15.81,1.52,23.2,12.83
		c0.39,0.61,1.06,0.98,1.79,0.99h267.61c0.67,0,1.3-0.32,1.69-0.85c2.27-3.03,10.84-13.12,24.65-13.1c0.9-0.01,1.69-0.58,1.98-1.44
		l7.83-22.51c0.14-0.42,0.15-0.88,0.01-1.31l-7.86-23.67c-0.27-0.84-1.03-1.42-1.91-1.46c-4.08-0.18-15.91-1.69-23.61-12.97
		c-0.39-0.59-1.05-0.94-1.76-0.95h-267.43C1019.78,2486.71,1019.18,2487,1018.78,2487.49z"/>
	<path id="Icon_awesome-file-alt" d="M1082.18,2518.39v-8.6h-12.64c-0.84,0-1.52,0.67-1.52,1.51c0,0,0,0,0,0.01v29.33
		c0,0.84,0.67,1.52,1.51,1.52c0,0,0,0,0.01,0h21.24c0.84,0,1.52-0.67,1.52-1.51c0,0,0,0,0-0.01v-20.73h-8.6
		C1082.86,2519.9,1082.18,2519.22,1082.18,2518.39z M1086.22,2533.31c0,0.42-0.34,0.76-0.76,0.76h-10.62
		c-0.42,0-0.76-0.34-0.76-0.76v-0.51c0-0.42,0.34-0.76,0.76-0.76h10.62c0.42,0,0.76,0.34,0.76,0.76V2533.31z M1086.22,2529.26
		c0,0.42-0.34,0.76-0.76,0.76h-10.62c-0.42,0-0.76-0.34-0.76-0.76v-0.51c0-0.42,0.34-0.76,0.76-0.76h10.62
		c0.42,0,0.76,0.34,0.76,0.76V2529.26z M1086.22,2524.71v0.51c0,0.42-0.34,0.76-0.76,0.76h-10.62c-0.42,0-0.76-0.34-0.76-0.76v-0.51
		c0-0.42,0.34-0.76,0.76-0.76h10.62C1085.88,2523.95,1086.22,2524.29,1086.22,2524.71L1086.22,2524.71z M1092.29,2517.5v0.39h-8.09
		v-8.09h0.39c0.4,0,0.79,0.16,1.07,0.44l6.19,6.2C1092.13,2516.71,1092.29,2517.1,1092.29,2517.5L1092.29,2517.5z"/>
</g>
</svg>
