<?xml version="1.0" encoding="utf-8"?>
<!-- Generator: Adobe Illustrator 25.0.0, SVG Export Plug-In . SVG Version: 6.00 Build 0)  -->
<svg version="1.1" id="圖層_1" xmlns="http://www.w3.org/2000/svg" xmlns:xlink="http://www.w3.org/1999/xlink" x="0px" y="0px"
	 viewBox="0 0 87.39 87.39" style="enable-background:new 0 0 87.39 87.39;" xml:space="preserve">
<style type="text/css">
	.st0{fill:#FFFFFF;}
	.st1{fill:none;stroke:#000000;stroke-width:2.3;stroke-linecap:round;stroke-linejoin:round;}
</style>
<g id="Icon_feather-shopping-cart" transform="translate(24.768 26.238)">
	<circle id="Ellipse_11" class="st0" cx="18.93" cy="17.46" r="43.69"/>
	<path id="Path_458" class="st1" d="M16.15,32.53c0,1.32-1.07,2.39-2.39,2.39c-1.32,0-2.39-1.07-2.39-2.39
		c0-1.32,1.07-2.39,2.39-2.39S16.15,31.21,16.15,32.53L16.15,32.53z"/>
	<path id="Path_461" class="st1" d="M36.15,32.53c0,1.32-1.07,2.39-2.39,2.39c-1.32,0-2.39-1.07-2.39-2.39
		c0-1.32,1.07-2.39,2.39-2.39C35.09,30.14,36.15,31.21,36.15,32.53L36.15,32.53z"/>
	<path id="Path_460" class="st1" d="M0,0h6.88l4.61,23.04c0.32,1.63,1.77,2.8,3.44,2.77h16.72c1.67,0.03,3.12-1.14,3.44-2.77
		L37.85,8.6H8.6"/>
</g>
</svg>
