<?xml version="1.0" encoding="utf-8"?>
<!-- Generator: Adobe Illustrator 25.0.0, SVG Export Plug-In . SVG Version: 6.00 Build 0)  -->
<svg version="1.1" id="圖層_1" xmlns="http://www.w3.org/2000/svg" xmlns:xlink="http://www.w3.org/1999/xlink" x="0px" y="0px"
	 viewBox="0 0 338.87 78.26" style="enable-background:new 0 0 338.87 78.26;" xml:space="preserve">
<style type="text/css">
	.st0{enable-background:new    ;}
	.st1{fill:#1A1311;}
	.st2{fill:#E51F1F;}
	.st3{fill:none;stroke:#171714;stroke-width:1.4777;stroke-miterlimit:10;}
</style>
<g id="租車注意事項_" transform="translate(-984.217 -2485.619)">
	<g class="st0">
		<path class="st1" d="M1093.5,2514.71c0.64,0.53,1.15,1.04,1.51,1.55c0.15,0.17,0.22,0.32,0.22,0.44c0,0.2-0.14,0.31-0.43,0.31
			c-0.19,0-0.46,0.07-0.82,0.22c-0.37,0.16-0.95,0.37-1.76,0.63v3.44h0.15l2.65-0.05c0.15,0,0.24,0.02,0.27,0.05
			c0.02,0.03,0.04,0.11,0.04,0.23v1.77c0,0.14-0.02,0.22-0.06,0.24c-0.03,0.02-0.11,0.04-0.24,0.04l-2.55-0.05
			c0.74,1.49,1.77,2.85,3.1,4.09c-0.29,0.45-0.56,1.06-0.79,1.83c-0.1,0.27-0.19,0.4-0.28,0.4c-0.09,0-0.22-0.13-0.39-0.38
			c-0.9-1.24-1.55-2.35-1.95-3.32c0.01,2.63,0.04,5.28,0.1,7.95c0.01,0.46,0.03,1.21,0.06,2.25c0.01,0.42,0.01,0.67,0.01,0.76
			c0,0.11-0.02,0.18-0.06,0.21c-0.03,0.02-0.11,0.04-0.24,0.04h-2c-0.18,0-0.27-0.08-0.27-0.24c0.11-2.38,0.18-5.83,0.2-10.38
			c-0.65,2.06-1.53,3.89-2.65,5.49c-0.19,0.27-0.32,0.4-0.4,0.4c-0.09,0-0.2-0.14-0.32-0.43c-0.31-0.74-0.64-1.33-1-1.77
			c1.77-2.12,3.06-4.42,3.85-6.9H1089l-2.65,0.05c-0.14,0-0.22-0.02-0.26-0.05c-0.02-0.03-0.04-0.11-0.04-0.23v-1.77
			c0-0.14,0.02-0.22,0.05-0.24c0.03-0.02,0.11-0.04,0.24-0.04l2.65,0.05h0.85v-2.8c-0.47,0.12-1.05,0.26-1.75,0.4
			c-0.26,0.04-0.43,0.06-0.51,0.06c-0.15,0-0.26-0.05-0.34-0.16c-0.05-0.07-0.13-0.24-0.26-0.5c-0.25-0.57-0.53-1.05-0.84-1.43
			c2.51-0.33,4.59-0.84,6.25-1.55C1092.79,2515.18,1093.16,2514.97,1093.5,2514.71z M1097.53,2536.65l-3.39,0.05
			c-0.14,0-0.22-0.02-0.24-0.05s-0.04-0.11-0.04-0.23v-1.92c0-0.13,0.01-0.21,0.04-0.24c0.03-0.03,0.11-0.04,0.24-0.04l2.25,0.05
			v-13.97l-0.05-4.42c0-0.15,0.02-0.24,0.05-0.27c0.03-0.02,0.11-0.04,0.22-0.04l2.88,0.05h3.97l2.89-0.05
			c0.14,0,0.22,0.02,0.24,0.06c0.02,0.03,0.04,0.11,0.04,0.24l-0.05,4.42v13.97l1.95-0.05c0.14,0,0.22,0.02,0.26,0.05
			c0.02,0.03,0.04,0.11,0.04,0.23v1.92c0,0.14-0.02,0.22-0.05,0.24c-0.03,0.03-0.11,0.04-0.24,0.04l-3.36-0.05H1097.53z
			 M1104.07,2518.06h-5.19v3.58h5.19V2518.06z M1098.89,2527.7h5.19v-3.69h-5.19V2527.7z M1098.89,2534.27h5.19v-4.19h-5.19V2534.27
			z"/>
		<path class="st1" d="M1116.38,2533.97l-3.1,0.05c-0.16,0-0.24-0.09-0.24-0.27v-1.83c0-0.18,0.08-0.27,0.24-0.27l3.1,0.05h6.4
			v-1.65h-3.14l-3.48,0.05c-0.13,0-0.21-0.02-0.23-0.05s-0.04-0.11-0.04-0.23l0.05-2.37v-3.93l-0.05-2.37
			c0-0.15,0.02-0.24,0.05-0.27c0.03-0.02,0.11-0.04,0.22-0.04l3.48,0.05h3.14v-1.55h-5.71l-3.22,0.05c-0.15,0-0.24-0.02-0.27-0.05
			c-0.02-0.03-0.04-0.11-0.04-0.24v-1.83c0-0.11,0.02-0.18,0.06-0.21c0.03-0.02,0.11-0.04,0.24-0.04l3.22,0.05h5.71
			c-0.02-1.04-0.08-1.92-0.2-2.65c1.01,0.02,1.89,0.08,2.65,0.17c0.25,0.03,0.38,0.13,0.38,0.28c0,0.19-0.04,0.35-0.13,0.5
			c-0.1,0.18-0.15,0.75-0.15,1.7h5.94l3.26-0.05c0.18,0,0.27,0.08,0.27,0.24v1.83c0,0.14-0.02,0.22-0.05,0.26
			c-0.03,0.02-0.11,0.04-0.22,0.04l-3.26-0.05h-5.94v1.55h3.41l3.47-0.05c0.13,0,0.21,0.02,0.24,0.06c0.02,0.03,0.04,0.11,0.04,0.24
			l-0.05,2.37v3.93l0.05,2.37c0,0.13-0.02,0.21-0.05,0.24c-0.03,0.03-0.11,0.04-0.23,0.04l-3.47-0.05h-3.41v1.65h6.7l3.1-0.05
			c0.16,0,0.24,0.09,0.24,0.27v1.83c0,0.18-0.08,0.27-0.24,0.27l-3.1-0.05h-6.7l0.06,3.08c0,0.13-0.02,0.21-0.06,0.23
			c-0.03,0.02-0.11,0.04-0.24,0.04h-2.08c-0.13,0-0.21-0.02-0.23-0.05c-0.02-0.03-0.04-0.1-0.04-0.22c0-0.02,0-0.16,0-0.41
			c0.02-0.87,0.03-1.76,0.04-2.66H1116.38z M1118.48,2524.5h4.3v-1.62h-4.3V2524.5z M1118.48,2528.08h4.3v-1.62h-4.3V2528.08z
			 M1129.88,2522.88h-4.55v1.62h4.55V2522.88z M1129.88,2528.08v-1.62h-4.55v1.62H1129.88z"/>
		<path class="st1" d="M1141.62,2521.21c1.27,0.7,2.45,1.55,3.55,2.55c0.1,0.1,0.15,0.16,0.15,0.2c0,0.05-0.05,0.15-0.15,0.3
			l-1.12,1.6c-0.07,0.11-0.14,0.17-0.2,0.17c-0.06,0-0.13-0.05-0.23-0.15c-1.08-1.06-2.26-1.97-3.53-2.72
			c-0.11-0.07-0.17-0.13-0.17-0.18c0-0.07,0.05-0.17,0.15-0.29l1.05-1.36c0.11-0.14,0.21-0.21,0.28-0.21
			C1141.45,2521.12,1141.52,2521.15,1141.62,2521.21z M1140.02,2535.43c0.52-0.64,0.96-1.3,1.31-1.98c0.94-1.9,1.76-3.83,2.47-5.77
			c0.5,0.53,0.95,0.96,1.35,1.28c0.37,0.27,0.55,0.48,0.55,0.62c0,0.11-0.05,0.3-0.15,0.57c-0.79,2.08-1.6,3.93-2.43,5.53
			c-0.23,0.45-0.36,0.76-0.4,0.94c-0.05,0.22-0.15,0.33-0.32,0.33c-0.13,0-0.28-0.05-0.45-0.15
			C1141.21,2536.36,1140.56,2535.9,1140.02,2535.43z M1142.74,2514.88c1.19,0.68,2.4,1.58,3.64,2.67c0.1,0.07,0.15,0.15,0.15,0.22
			c0,0.06-0.05,0.16-0.16,0.31l-1.15,1.55c-0.1,0.14-0.17,0.21-0.22,0.21c-0.03,0-0.1-0.04-0.21-0.13
			c-1.24-1.19-2.46-2.15-3.67-2.88c-0.11-0.07-0.17-0.12-0.17-0.17c0-0.06,0.06-0.16,0.17-0.31l1.16-1.34
			c0.11-0.14,0.2-0.21,0.27-0.21C1142.6,2514.8,1142.66,2514.83,1142.74,2514.88z M1149.46,2536.28l-3.48,0.05
			c-0.13,0-0.21-0.02-0.23-0.05s-0.04-0.11-0.04-0.22v-1.94c0-0.13,0.01-0.21,0.04-0.24c0.03-0.03,0.1-0.05,0.23-0.05l3.48,0.05
			h3.17v-5.32h-1.67l-3.3,0.05c-0.17,0-0.26-0.09-0.26-0.27v-1.9c0-0.18,0.09-0.27,0.26-0.27l3.3,0.05h1.67v-4.32h-2.17l-3.38,0.05
			c-0.13,0-0.21-0.02-0.23-0.05c-0.02-0.03-0.04-0.11-0.04-0.23v-1.9c0-0.13,0.02-0.21,0.05-0.23c0.03-0.02,0.11-0.04,0.22-0.04
			l3.38,0.05h7.67l3.41-0.05c0.13,0,0.21,0.02,0.23,0.05s0.04,0.11,0.04,0.22v1.9c0,0.13-0.02,0.21-0.05,0.24
			c-0.03,0.02-0.11,0.04-0.22,0.04l-3.41-0.05h-2.79v4.32h2.12l3.3-0.05c0.15,0,0.24,0.02,0.27,0.05c0.02,0.03,0.04,0.11,0.04,0.22
			v1.9c0,0.12-0.02,0.2-0.05,0.23s-0.12,0.04-0.26,0.04l-3.3-0.05h-2.12v5.32h3.5l3.44-0.05c0.13,0,0.21,0.02,0.24,0.06
			c0.02,0.03,0.04,0.11,0.04,0.23v1.94c0,0.13-0.02,0.21-0.05,0.23c-0.03,0.02-0.11,0.04-0.23,0.04l-3.44-0.05H1149.46z
			 M1152.45,2514.48c1.22,0.51,2.64,1.38,4.26,2.6c0.11,0.07,0.17,0.13,0.17,0.2c0,0.07-0.07,0.18-0.21,0.31l-1.29,1.45
			c-0.12,0.13-0.21,0.2-0.27,0.2c-0.06,0-0.13-0.04-0.21-0.12c-1.07-1-2.49-1.94-4.25-2.81c-0.11-0.05-0.16-0.1-0.16-0.15
			c0-0.06,0.06-0.15,0.18-0.27l1.25-1.28c0.14-0.12,0.24-0.18,0.32-0.18C1152.29,2514.42,1152.36,2514.44,1152.45,2514.48z"/>
		<path class="st1" d="M1169.63,2531.33c0.06-0.11,0.11-0.17,0.17-0.17c0.03,0,0.14,0.03,0.33,0.1l1.51,0.62
			c0.2,0.07,0.31,0.14,0.31,0.22c0,0.04-0.02,0.1-0.05,0.18c-0.54,1.36-1.45,2.78-2.72,4.25c-0.08,0.1-0.16,0.15-0.23,0.15
			s-0.17-0.05-0.29-0.15l-1.43-1c-0.16-0.12-0.24-0.22-0.24-0.3c0-0.06,0.04-0.13,0.12-0.22
			C1168.2,2533.97,1169.05,2532.75,1169.63,2531.33z M1170.52,2522.3l-3.12,0.05c-0.13,0-0.21-0.02-0.23-0.05
			c-0.02-0.03-0.04-0.11-0.04-0.22v-1.61c0-0.13,0.02-0.21,0.05-0.23s0.11-0.04,0.22-0.04l3.12,0.05h2.83
			c-0.24-0.65-0.5-1.26-0.78-1.82l-3.37,0.05c-0.15,0-0.24-0.02-0.27-0.06c-0.02-0.03-0.04-0.11-0.04-0.23v-1.5
			c0-0.14,0.02-0.22,0.06-0.24c0.03-0.02,0.11-0.04,0.24-0.04l3.39,0.05h4.1v-0.17c0-0.74-0.06-1.39-0.17-1.95
			c0.88,0,1.8,0.04,2.77,0.12c0.25,0.02,0.38,0.11,0.38,0.24c0,0.09-0.05,0.25-0.15,0.48c-0.07,0.2-0.11,0.57-0.11,1.11v0.17h4.43
			l3.39-0.05c0.14,0,0.22,0.02,0.24,0.05s0.04,0.11,0.04,0.23v1.5c0,0.14-0.02,0.22-0.05,0.26c-0.03,0.03-0.11,0.04-0.23,0.04
			l-3.42-0.05h-0.33c-0.12,0.21-0.2,0.35-0.22,0.43c-0.02,0.05-0.12,0.27-0.28,0.67c-0.12,0.29-0.23,0.53-0.32,0.72h3.1l3.12-0.05
			c0.14,0,0.22,0.02,0.26,0.05c0.02,0.03,0.04,0.11,0.04,0.22v1.61c0,0.13-0.02,0.21-0.05,0.23s-0.11,0.04-0.24,0.04l-3.12-0.05
			H1170.52z M1182.3,2523.38l3.45-0.05c0.13,0,0.21,0.02,0.23,0.05c0.02,0.03,0.04,0.11,0.04,0.23l-0.05,1.99v2.58l0.05,1.99
			c0,0.13-0.01,0.21-0.04,0.24c-0.03,0.03-0.1,0.04-0.23,0.04l-3.45-0.05h-8.3l-3.46,0.05c-0.13,0-0.21-0.02-0.23-0.05
			s-0.04-0.11-0.04-0.23l0.05-1.99v-2.58l-0.05-1.99c0-0.14,0.02-0.22,0.05-0.24s0.11-0.04,0.22-0.04l3.46,0.05H1182.3z
			 M1182.05,2532.56c0.51,0.3,1.12,0.55,1.83,0.75c0.27,0.07,0.43,0.13,0.49,0.18c0.07,0.05,0.1,0.14,0.1,0.27
			c0,0.06-0.01,0.19-0.04,0.4c-0.21,1.25-0.63,2.03-1.27,2.37c-0.79,0.38-2.45,0.57-4.98,0.57c-2.24,0-3.66-0.14-4.27-0.43
			c-0.33-0.18-0.57-0.41-0.71-0.7c-0.15-0.31-0.22-0.76-0.22-1.34v-1.58c0-0.78-0.04-1.47-0.12-2.08c1.07,0.03,1.91,0.09,2.54,0.17
			c0.3,0.05,0.45,0.12,0.45,0.22c0,0.13-0.04,0.26-0.12,0.38c-0.1,0.16-0.15,0.51-0.15,1.05v0.95c0,0.5,0.13,0.81,0.4,0.93
			c0.31,0.11,1.07,0.17,2.27,0.17c1.7,0,2.75-0.1,3.15-0.3C1181.81,2534.36,1182.02,2533.7,1182.05,2532.56z M1183.38,2525.05
			h-10.47v1.07h10.47V2525.05z M1183.38,2528.75v-1.12h-10.47v1.12H1183.38z M1180.75,2518.44h-5.53c0.24,0.49,0.47,1.09,0.71,1.82
			h4.13C1180.37,2519.57,1180.6,2518.96,1180.75,2518.44z M1178.55,2530.68c0.75,0.51,1.46,1.17,2.15,1.98
			c0.07,0.09,0.1,0.16,0.1,0.2c0,0.06-0.07,0.14-0.2,0.26l-1.13,0.94c-0.14,0.12-0.24,0.18-0.32,0.18s-0.16-0.06-0.26-0.17
			c-0.49-0.66-1.15-1.36-1.98-2.11c-0.12-0.07-0.18-0.13-0.18-0.16c0-0.02,0.09-0.11,0.27-0.26l0.98-0.8
			c0.15-0.11,0.25-0.16,0.32-0.16C1178.36,2530.57,1178.45,2530.61,1178.55,2530.68z M1186.07,2530.98
			c1.24,1.07,2.35,2.32,3.34,3.75c0.07,0.09,0.1,0.16,0.1,0.22c0,0.07-0.07,0.15-0.22,0.26l-1.55,1.03
			c-0.15,0.1-0.25,0.15-0.32,0.15c-0.06,0-0.13-0.07-0.21-0.2c-0.71-1.33-1.73-2.67-3.06-4c-0.09-0.09-0.13-0.15-0.13-0.18
			c0-0.03,0.09-0.11,0.26-0.22l1.27-0.82c0.13-0.08,0.22-0.12,0.28-0.12C1185.88,2530.84,1185.96,2530.89,1186.07,2530.98z"/>
		<path class="st1" d="M1197.19,2530.23l-3.08,0.05c-0.16,0-0.24-0.09-0.24-0.27v-1.5c0-0.19,0.08-0.28,0.24-0.28l3.08,0.05h6.7
			v-1.17h-4.13l-3.39,0.05c-0.19,0-0.28-0.08-0.28-0.24v-1.38c0-0.13,0.02-0.21,0.06-0.23c0.02-0.02,0.1-0.04,0.22-0.04l3.39,0.05
			h4.13v-1.11h-3.22l-3.47,0.05c-0.15,0-0.24-0.02-0.27-0.06c-0.02-0.03-0.04-0.11-0.04-0.24l0.05-1.29v-1.34l-0.05-1.31
			c0-0.14,0.02-0.22,0.05-0.26c0.04-0.03,0.13-0.04,0.26-0.04l3.47,0.05h3.22v-1.1h-6.3l-3.17,0.05c-0.13,0-0.21-0.02-0.23-0.05
			s-0.04-0.11-0.04-0.22v-1.59c0-0.13,0.02-0.21,0.05-0.23c0.03-0.03,0.11-0.04,0.22-0.04l3.17,0.05h6.3c0-0.88-0.06-1.64-0.17-2.29
			c1.12,0.02,1.99,0.07,2.6,0.15c0.27,0.03,0.4,0.12,0.4,0.27c0,0.12-0.05,0.28-0.15,0.48c-0.11,0.28-0.16,0.75-0.16,1.4h6.35
			l3.17-0.05c0.14,0,0.22,0.02,0.24,0.05s0.04,0.11,0.04,0.22v1.59c0,0.13-0.02,0.21-0.05,0.23c-0.03,0.02-0.11,0.04-0.23,0.04
			l-3.17-0.05h-6.35v1.1h3.32l3.5-0.05c0.14,0,0.22,0.02,0.24,0.06c0.02,0.03,0.04,0.11,0.04,0.23l-0.05,1.31v1.34l0.05,1.29
			c0,0.15-0.02,0.24-0.05,0.27c-0.03,0.03-0.11,0.04-0.23,0.04l-3.5-0.05h-3.32v1.11h4.05l3.44-0.05c0.14,0,0.22,0.02,0.24,0.05
			c0.02,0.03,0.04,0.11,0.04,0.22l-0.05,2.17v0.57l2.17-0.05c0.17,0,0.26,0.09,0.26,0.28v1.5c0,0.18-0.09,0.27-0.26,0.27l-0.65-0.01
			c-0.46-0.02-0.97-0.03-1.53-0.04v1.27l0.05,2.31c0,0.13-0.01,0.21-0.04,0.24c-0.03,0.03-0.11,0.04-0.24,0.04H1212
			c-0.13,0-0.21-0.02-0.24-0.06c-0.02-0.02-0.04-0.1-0.04-0.22v-0.55h-5.27c0.02,0.3,0.02,0.72,0.02,1.25c0,1.13-0.3,1.88-0.9,2.23
			c-0.61,0.34-1.78,0.52-3.52,0.55c-0.39,0-0.63-0.04-0.72-0.12c-0.07-0.07-0.16-0.26-0.28-0.6c-0.26-0.72-0.59-1.35-0.98-1.9
			c0.67,0.07,1.3,0.11,1.9,0.11c0.17,0,0.38,0,0.62-0.01c0.56-0.01,0.92-0.08,1.09-0.23c0.14-0.11,0.21-0.35,0.21-0.7v-0.57h-4.1
			l-3.42,0.05c-0.13,0-0.21-0.02-0.24-0.06c-0.02-0.03-0.04-0.11-0.04-0.24v-1.34c0-0.15,0.02-0.24,0.06-0.27
			c0.02-0.02,0.1-0.04,0.22-0.04l3.42,0.05h4.1v-1.17H1197.19z M1199.38,2522.6h4.52v-1.24h-4.52V2522.6z M1211.05,2522.6v-1.24
			h-4.63v1.24H1211.05z M1211.72,2527.1h-5.3v1.17h5.3V2527.1z M1206.42,2531.4h5.3v-1.17h-5.3V2531.4z"/>
		<path class="st1" d="M1228.55,2527.2c-0.01,0.21-0.01,0.43-0.01,0.66c0,0.39,0.02,0.74,0.05,1.06c0.02,0.21,0.02,0.36,0.02,0.44
			c0,0.19-0.03,0.32-0.1,0.4c-0.07,0.08-0.24,0.2-0.53,0.37c-1.45,0.75-3.22,1.54-5.31,2.37c-0.33,0.12-0.58,0.25-0.77,0.38
			c-0.15,0.11-0.27,0.17-0.38,0.17c-0.14,0-0.26-0.11-0.35-0.33c-0.19-0.51-0.4-1.29-0.65-2.34c0.89-0.2,1.6-0.4,2.15-0.6l0.78-0.26
			v-10.36h-0.09l-2.27,0.05c-0.12,0-0.2-0.02-0.22-0.06c-0.02-0.03-0.02-0.11-0.02-0.24v-1.88c0-0.18,0.08-0.27,0.24-0.27l2.27,0.05
			h2.36l2.25-0.05c0.13,0,0.21,0.02,0.24,0.05c0.02,0.03,0.04,0.11,0.04,0.22v1.88c0,0.15-0.02,0.24-0.05,0.27
			c-0.03,0.02-0.11,0.04-0.23,0.04l-1.94-0.05v9.31C1226.87,2528.11,1227.7,2527.69,1228.55,2527.2z M1232.2,2532.42
			c0.83,0.43,1.48,0.81,1.95,1.12c0.17,0.13,0.26,0.26,0.26,0.38c0,0.12-0.1,0.23-0.3,0.33c-0.2,0.07-0.45,0.22-0.73,0.48
			c-1.22,0.95-2.84,1.77-4.85,2.45c-0.28,0.1-0.48,0.15-0.6,0.15c-0.14,0-0.33-0.2-0.57-0.6c-0.4-0.63-0.82-1.12-1.26-1.48
			c2.26-0.5,4.02-1.2,5.27-2.1C1231.69,2532.92,1231.97,2532.68,1232.2,2532.42z M1232.38,2517.87l-3.36,0.05
			c-0.15,0-0.23-0.02-0.26-0.05c-0.03-0.02-0.05-0.09-0.05-0.2v-1.84c0-0.15,0.02-0.24,0.06-0.27c0.03-0.02,0.11-0.04,0.24-0.04
			l3.36,0.05h7.2l3.37-0.05c0.13,0,0.21,0.02,0.24,0.06c0.02,0.03,0.04,0.11,0.04,0.24v1.84c0,0.16-0.09,0.24-0.28,0.24l-3.37-0.05
			h-2.73c-0.15,0.4-0.39,0.95-0.74,1.66h2.22l3.12-0.06c0.13,0,0.21,0.02,0.24,0.05c0.02,0.03,0.04,0.11,0.04,0.23l-0.05,2.91v6.62
			l0.05,2.87c0,0.14-0.01,0.22-0.04,0.26c-0.03,0.03-0.11,0.05-0.24,0.05l-3.12-0.05h-5.1l-3.15,0.05c-0.15,0-0.23-0.02-0.26-0.06
			c-0.02-0.03-0.04-0.11-0.04-0.24l0.05-2.87v-6.62l-0.05-2.91c0-0.14,0.02-0.22,0.05-0.24c0.03-0.02,0.11-0.04,0.24-0.04l3.15,0.06
			h0.28c0.24-0.5,0.48-1.05,0.7-1.66H1232.38z M1239.18,2521.58h-6.88v1.58h6.88V2521.58z M1232.3,2526.7h6.88v-1.56h-6.88V2526.7z
			 M1239.18,2530.28v-1.62h-6.88v1.62H1239.18z M1243.94,2535.03c-0.17,0.14-0.59,0.72-1.25,1.75c-0.16,0.25-0.31,0.38-0.43,0.38
			c-0.11,0-0.32-0.07-0.65-0.22c-1.77-0.8-3.33-1.78-4.7-2.96c-0.09-0.08-0.13-0.14-0.13-0.18c0-0.06,0.08-0.15,0.23-0.27l1.34-0.96
			c0.09-0.07,0.17-0.11,0.26-0.11c0.08,0,0.15,0.02,0.22,0.07C1240.05,2533.48,1241.76,2534.32,1243.94,2535.03z"/>
		<path class="st1" d="M1252.88,2518.52c0.63,0,1.16,0.23,1.59,0.7c0.37,0.4,0.55,0.87,0.55,1.4c0,0.66-0.23,1.2-0.7,1.62
			c-0.41,0.36-0.89,0.54-1.44,0.54c-0.66,0-1.19-0.23-1.6-0.7c-0.35-0.4-0.52-0.89-0.52-1.46c0-0.62,0.23-1.14,0.68-1.55
			C1251.84,2518.7,1252.32,2518.52,1252.88,2518.52z M1252.88,2529.09c0.63,0,1.16,0.23,1.59,0.7c0.37,0.4,0.55,0.87,0.55,1.4
			c0,0.66-0.23,1.2-0.7,1.62c-0.41,0.36-0.89,0.54-1.44,0.54c-0.66,0-1.19-0.23-1.6-0.7c-0.35-0.4-0.52-0.89-0.52-1.46
			c0-0.62,0.23-1.13,0.68-1.55C1251.84,2529.28,1252.32,2529.09,1252.88,2529.09z"/>
	</g>
	<path id="Icon_ionic-md-warning" class="st2" d="M1038.65,2541.71h35.9l-17.95-33.33L1038.65,2541.71z M1058.52,2536.58h-3.85
		v-3.85h3.85V2536.58z M1058.52,2530.17h-3.85v-7.69h3.85V2530.17z"/>
	<path id="Path_462" class="st3" d="M1019.77,2487.49c-2.34,2.82-11.32,12.51-24.42,12.68c-0.88,0.02-1.66,0.57-1.94,1.39
		l-7.97,22.07c-0.15,0.42-0.15,0.87-0.01,1.29l7.95,23.15c0.27,0.82,1.04,1.39,1.92,1.42c4.06,0.13,15.75,1.48,23.12,12.49
		c0.39,0.59,1.06,0.96,1.78,0.96h266.65c0.67,0,1.29-0.31,1.69-0.83c2.26-2.95,10.8-12.78,24.56-12.76c0.9,0,1.69-0.57,1.97-1.4
		l7.81-21.92c0.14-0.41,0.14-0.86,0.01-1.28l-7.83-23.05c-0.26-0.82-1.02-1.39-1.9-1.43c-4.07-0.17-15.85-1.64-23.53-12.63
		c-0.39-0.57-1.05-0.92-1.75-0.93H1021.4C1020.77,2486.73,1020.17,2487.01,1019.77,2487.49z"/>
</g>
</svg>
