<?xml version="1.0" encoding="utf-8"?>
<!-- Generator: Adobe Illustrator 25.0.0, SVG Export Plug-In . SVG Version: 6.00 Build 0)  -->
<svg version="1.1" id="圖層_1" xmlns="http://www.w3.org/2000/svg" xmlns:xlink="http://www.w3.org/1999/xlink" x="0px" y="0px"
	 viewBox="0 0 15.95 15.95" style="enable-background:new 0 0 15.95 15.95;" xml:space="preserve">
<style type="text/css">
	.st0{fill:#F8B11B;}
</style>
<path id="Path_397" class="st0" d="M7.97,0C3.57,0,0,3.57,0,7.97s3.57,7.97,7.97,7.97s7.97-3.57,7.97-7.97S12.38,0,7.97,0
	C7.97,0,7.97,0,7.97,0z M10.93,10.86l-2.33,2.33c-0.34,0.34-0.9,0.34-1.24,0c0,0,0,0,0,0l-2.33-2.33c-1.63-1.87-1.63-4.65,0-6.52
	l0,0c1.63-1.63,4.27-1.63,5.9,0l0,0C12.55,6.2,12.56,8.99,10.93,10.86z"/>
<circle id="Ellipse_2" class="st0" cx="7.97" cy="7.91" r="1.52"/>
</svg>
