<?xml version="1.0" encoding="utf-8"?>
<!-- Generator: Adobe Illustrator 25.0.0, SVG Export Plug-In . SVG Version: 6.00 Build 0)  -->
<svg version="1.1" id="圖層_1" xmlns="http://www.w3.org/2000/svg" xmlns:xlink="http://www.w3.org/1999/xlink" x="0px" y="0px"
	 viewBox="0 0 14.76 14.76" style="enable-background:new 0 0 14.76 14.76;" xml:space="preserve">
<style type="text/css">
	.st0{fill:#1A1311;}
</style>
<path id="Icon_ionic-ios-arrow-dropright-circle" class="st0" d="M0,7.38c0,4.08,3.3,7.38,7.38,7.38s7.38-3.3,7.38-7.38
	S11.46,0,7.38,0l0,0C3.31,0,0,3.3,0,7.38C0,7.38,0,7.38,0,7.38z M8.68,7.38L5.77,4.5C5.49,4.25,5.47,3.81,5.73,3.54
	C5.99,3.26,6.42,3.24,6.7,3.5c0.01,0.01,0.03,0.02,0.04,0.04l3.39,3.39c0.26,0.26,0.27,0.67,0.02,0.94l-3.34,3.35
	c-0.26,0.28-0.69,0.3-0.97,0.04s-0.3-0.69-0.04-0.97c0.01-0.01,0.03-0.03,0.04-0.04L8.68,7.38z"/>
</svg>
