<?xml version="1.0" encoding="utf-8"?>
<!-- Generator: Adobe Illustrator 25.0.0, SVG Export Plug-In . SVG Version: 6.00 Build 0)  -->
<svg version="1.1" id="圖層_1" xmlns="http://www.w3.org/2000/svg" xmlns:xlink="http://www.w3.org/1999/xlink" x="0px" y="0px"
	 viewBox="0 0 43.51 31.52" style="enable-background:new 0 0 43.51 31.52;" xml:space="preserve">
<style type="text/css">
	.st0{fill:#1A1311;}
</style>
<path id="motorcycle-delivery-single-box-svgrepo-com" class="st0" d="M10.51-0.01c1.4-0.08,2.77,0.4,3.82,1.33h5.2
	c0.49,0,0.89,0.4,0.89,0.89c0,0.49-0.4,0.89-0.89,0.89h-4.67c-0.34,1.27-2.13,2.22-4.35,2.22C9.78,5.4,9.05,5.18,8.48,4.72
	c-0.42-0.54-0.6-1.23-0.5-1.9V2.65V2.49c-0.1-0.67,0.08-1.36,0.5-1.9C9.05,0.12,9.78-0.09,10.51-0.01L10.51-0.01z M13.99,6.37
	c-0.77,5.83,0.38,11.47,3.04,14.66c1.17,1.55,2.99,2.47,4.94,2.49c0.71-0.02,1.36-0.42,1.68-1.06c0.76-1.31,0.89-3.88-0.82-7.32
	c1.42,0.28,2.87,0.41,4.32,0.39c1.73,0.09,3.45-0.2,5.05-0.86c0.16-0.08,0.31-0.18,0.46-0.29c0.28-0.2,0.52-0.44,0.71-0.73
	c0.06,0.03,0.12,0.06,0.18,0.09h9.08c0.49,0,0.89,0.4,0.89,0.89s-0.4,0.89-0.89,0.89h-6.34c1.63,1.35,2.89,3.1,3.64,5.09
	c0.13,0.47-0.14,0.96-0.61,1.1c-0.02,0.01-0.04,0.01-0.05,0.01l-13.39,3.57h-9.94c0.03-0.29,0.05-0.59,0.05-0.89
	c0-4.73-4.56-8.88-9.77-8.88c-0.16,0-0.31,0.01-0.47,0.02c0.37-3.13,1.61-6.09,3.57-8.55c0.39,0.07,0.79,0.11,1.19,0.11
	C11.71,7.11,12.9,6.86,13.99,6.37z M31.05,11.15c0.09,0,0.17,0.03,0.25,0.07l0,0c0.11,0.06,0.21,0.14,0.28,0.24
	c0.01,0.01,0.02,0.03,0.04,0.04c0.09,0.12,0.17,0.25,0.24,0.38c0.09,0.19,0.16,0.39,0.21,0.59c0.02,0.07,0.03,0.13,0.04,0.19
	c0.02,0.08,0.04,0.17,0.05,0.25c-0.01,0-0.01,0-0.02,0c0.02,0.11,0.04,0.22,0.04,0.34c0,0.9-1.65,1.45-4.83,1.45
	s-5.83-0.55-5.83-1.45s0.51-2.1,1.14-2.1L31.05,11.15z M6.22,17.3c4.02,0,7.99,3.17,7.99,7.1c0,2.43-1.06,2.66-1.78,2.66
	c-1.47,0-0.89-3.02-4.44-4.44C7.03,22.26,6,22.07,4.97,22.09c-1.61,0-3,0.37-3.9,0.37C0.4,22.46,0,22.24,0,21.49
	C0,20.85,1.15,17.3,6.22,17.3z M5.17,23.87c0.74,0.01,1.47,0.15,2.16,0.41c0.16,0.06,0.31,0.13,0.46,0.21
	c0.45,0.87,0.1,1.94-0.77,2.39s-1.94,0.1-2.39-0.77C4.24,25.33,4.46,24.38,5.17,23.87L5.17,23.87z M38.01,23.89
	c0.76,3.34-1.34,6.67-4.68,7.43c-3.18,0.72-6.38-1.14-7.32-4.27c0.11,0,0.21-0.02,0.32-0.04l2.28-0.61
	c0.61,1.86,2.61,2.87,4.47,2.27c1.46-0.48,2.45-1.84,2.44-3.37c0-0.24-0.03-0.48-0.08-0.72L38.01,23.89z M2.9,24.05
	c-0.71,1.82,0.19,3.87,2.02,4.58s3.87-0.19,4.58-2.02c0.02-0.05,0.03-0.09,0.05-0.14c0.02,0.04,0.04,0.09,0.06,0.13
	c0.33,0.89,0.98,1.62,1.82,2.05c-1.82,2.89-5.64,3.77-8.53,1.95c-2.19-1.38-3.29-3.97-2.77-6.5c0.31,0.09,0.63,0.13,0.95,0.13
	c0.55-0.02,1.11-0.07,1.65-0.17L2.9,24.05z M33.71,25.04c0.01,0.08,0.02,0.17,0.03,0.26c0,0.98-0.79,1.77-1.77,1.77
	c-0.73,0-1.38-0.45-1.65-1.12L33.71,25.04z"/>
</svg>
