<?xml version="1.0" encoding="utf-8"?>
<!-- Generator: Adobe Illustrator 25.0.0, SVG Export Plug-In . SVG Version: 6.00 Build 0)  -->
<svg version="1.1" id="圖層_1" xmlns="http://www.w3.org/2000/svg" xmlns:xlink="http://www.w3.org/1999/xlink" x="0px" y="0px"
	 viewBox="0 0 56 56" style="enable-background:new 0 0 56 56;" xml:space="preserve">
<style type="text/css">
	.st0{fill:#FFFFFF;}
	.st1{enable-background:new    ;}
	.st2{fill:#1A1311;}
	.st3{fill:none;stroke:#1A1311;stroke-width:0.3;}
</style>
<circle id="Ellipse_5" class="st0" cx="28" cy="28" r="28"/>
<g class="st1">
	<path class="st2" d="M11.39,28.5c0-2.11,1.62-3.62,3.8-3.62c1.21,0,2.22,0.44,2.88,1.24l-1.04,0.96c-0.47-0.54-1.06-0.82-1.76-0.82
		c-1.31,0-2.24,0.92-2.24,2.24s0.93,2.24,2.24,2.24c0.7,0,1.29-0.28,1.76-0.83l1.04,0.96c-0.66,0.81-1.67,1.25-2.89,1.25
		C13.01,32.12,11.39,30.61,11.39,28.5z"/>
	<path class="st2" d="M19.16,25h1.62v5.68h3.51V32h-5.13V25z"/>
	<path class="st2" d="M24.64,28.5c0-2.08,1.62-3.62,3.83-3.62c2.2,0,3.83,1.53,3.83,3.62s-1.63,3.62-3.83,3.62
		C26.26,32.12,24.64,30.58,24.64,28.5z M30.66,28.5c0-1.33-0.94-2.24-2.19-2.24c-1.25,0-2.19,0.91-2.19,2.24s0.94,2.24,2.19,2.24
		C29.72,30.74,30.66,29.83,30.66,28.5z"/>
	<path class="st2" d="M32.97,31.31l0.55-1.22c0.59,0.43,1.47,0.73,2.31,0.73c0.96,0,1.35-0.32,1.35-0.75c0-1.31-4.07-0.41-4.07-3.01
		c0-1.19,0.96-2.18,2.95-2.18c0.88,0,1.78,0.21,2.43,0.62l-0.5,1.23c-0.65-0.37-1.32-0.55-1.94-0.55c-0.96,0-1.33,0.36-1.33,0.8
		c0,1.29,4.07,0.4,4.07,2.97c0,1.17-0.97,2.17-2.97,2.17C34.71,32.12,33.59,31.79,32.97,31.31z"/>
	<path class="st2" d="M45.32,30.7V32H39.9v-7h5.29v1.3h-3.68v1.52h3.25v1.26h-3.25v1.62H45.32z"/>
</g>
<g class="st1">
	<path class="st3" d="M11.39,28.5c0-2.11,1.62-3.62,3.8-3.62c1.21,0,2.22,0.44,2.88,1.24l-1.04,0.96c-0.47-0.54-1.06-0.82-1.76-0.82
		c-1.31,0-2.24,0.92-2.24,2.24s0.93,2.24,2.24,2.24c0.7,0,1.29-0.28,1.76-0.83l1.04,0.96c-0.66,0.81-1.67,1.25-2.89,1.25
		C13.01,32.12,11.39,30.61,11.39,28.5z"/>
	<path class="st3" d="M19.16,25h1.62v5.68h3.51V32h-5.13V25z"/>
	<path class="st3" d="M24.64,28.5c0-2.08,1.62-3.62,3.83-3.62c2.2,0,3.83,1.53,3.83,3.62s-1.63,3.62-3.83,3.62
		C26.26,32.12,24.64,30.58,24.64,28.5z M30.66,28.5c0-1.33-0.94-2.24-2.19-2.24c-1.25,0-2.19,0.91-2.19,2.24s0.94,2.24,2.19,2.24
		C29.72,30.74,30.66,29.83,30.66,28.5z"/>
	<path class="st3" d="M32.97,31.31l0.55-1.22c0.59,0.43,1.47,0.73,2.31,0.73c0.96,0,1.35-0.32,1.35-0.75c0-1.31-4.07-0.41-4.07-3.01
		c0-1.19,0.96-2.18,2.95-2.18c0.88,0,1.78,0.21,2.43,0.62l-0.5,1.23c-0.65-0.37-1.32-0.55-1.94-0.55c-0.96,0-1.33,0.36-1.33,0.8
		c0,1.29,4.07,0.4,4.07,2.97c0,1.17-0.97,2.17-2.97,2.17C34.71,32.12,33.59,31.79,32.97,31.31z"/>
	<path class="st3" d="M45.32,30.7V32H39.9v-7h5.29v1.3h-3.68v1.52h3.25v1.26h-3.25v1.62H45.32z"/>
</g>
</svg>
