<?xml version="1.0" encoding="utf-8"?>
<!-- Generator: Adobe Illustrator 25.0.0, SVG Export Plug-In . SVG Version: 6.00 Build 0)  -->
<svg version="1.1" id="圖層_1" xmlns="http://www.w3.org/2000/svg" xmlns:xlink="http://www.w3.org/1999/xlink" x="0px" y="0px"
	 viewBox="0 0 102.66 60.6" style="enable-background:new 0 0 102.66 60.6;" xml:space="preserve">
<style type="text/css">
	.st0{fill:none;stroke:#1A1311;stroke-width:1.5004;stroke-miterlimit:10;}
	.st1{fill:#1A1311;}
	.st2{fill:#1A1311;stroke:#221613;stroke-width:0.1882;stroke-miterlimit:10;}
	.st3{fill:#1A1311;stroke:#1A1311;stroke-width:0.2893;stroke-miterlimit:10;}
</style>
<ellipse class="st0" cx="82.75" cy="7.19" rx="6.13" ry="6.02"/>
<path class="st1" d="M68.06,4.4h-4.2c-0.38,0-0.68-0.3-0.68-0.68V2.91c0-0.38,0.3-0.68,0.68-0.68h4.2c0.38,0,0.68,0.3,0.68,0.68
	v0.81C68.74,4.1,68.44,4.4,68.06,4.4z"/>
<polygon class="st2" points="67.85,4.35 76.37,7.53 76.3,6.45 68.1,3.45 "/>
<path class="st1" d="M97.33,4.4h4.2c0.38,0,0.68-0.3,0.68-0.68V2.91c0-0.38-0.3-0.68-0.68-0.68h-4.2c-0.38,0-0.68,0.3-0.68,0.68
	v0.81C96.65,4.1,96.96,4.4,97.33,4.4z"/>
<polygon class="st2" points="97.55,4.35 89.02,7.53 89.1,6.45 97.29,3.45 "/>
<path class="st1" d="M83.89,60.6h-2.1c-0.97,0-1.76-0.79-1.76-1.76v-21c0-0.97,0.79-1.76,1.76-1.76h2.1c0.97,0,1.76,0.79,1.76,1.76
	v21C85.65,59.81,84.87,60.6,83.89,60.6z"/>
<path class="st1" d="M91.12,12.7H74.78c-2.16,0-3.9,1.75-3.9,3.9v27.94c0,2.16,1.75,3.9,3.9,3.9h4.07l0.08-9.69
	c0.02-2.14,1.75-3.86,3.89-3.86c2.15,0,3.89,1.74,3.89,3.89v9.66h4.41c2.16,0,3.9-1.75,3.9-3.9V16.61
	C95.02,14.45,93.27,12.7,91.12,12.7z M83.42,31.6c0,0.31-0.25,0.56-0.56,0.56c-0.31,0-0.56-0.25-0.56-0.56V17.39
	c0-0.31,0.25-0.56,0.56-0.56c0.31,0,0.56,0.25,0.56,0.56V31.6z"/>
<g>
	<path class="st1" d="M22.28,36.44h-6.09l-7.6-11.02v11.02l-4.05,0V9.84h4.03l0.02,8.21l7.35-8.21h5.73l-10,11.49L22.28,36.44z"/>
</g>
<rect x="2.52" y="9.84" class="st1" width="0.84" height="26.6"/>
<g>
	<path class="st1" d="M59.36,36.44c-1.7,0-2.96-0.58-3.79-1.75c-0.69-0.98-1.03-2.28-1.03-3.89c0-1.53,0.35-2.8,1.05-3.8
		c0.83-1.2,2.05-1.8,3.67-1.8c0.88,0,1.64,0.2,2.29,0.61c0.87,0.54,1.74,1.82,1.55,3.16l-1.94-0.02c-0.05-1.23-1-1.86-1.98-1.86
		c-1.48,0.01-2.21,1.21-2.21,3.61c0,1.04,0.15,1.89,0.45,2.54c0.4,0.89,1.05,1.15,1.94,1.15c0.39,0,0.52,0.01,1.01-0.15
		c0.22-0.15,0.36-0.32,0.41-0.5v-1.45h-2.16v-2.22h4.56v5.09C62.15,36.13,60.94,36.44,59.36,36.44z"/>
</g>
<g>
	<path class="st1" d="M43.78,36.41h-2.37l-1.11-2.8h-3.71l-1.07,2.8h-2.28l4.21-11.2h1.93L43.78,36.41z M39.64,31.37l-0.74-1.5
		c-0.21-0.44-0.38-0.81-0.51-1.12h-0.02c-0.08,0.28-0.22,0.62-0.41,1.03l-0.76,1.6H39.64z"/>
</g>
<g>
	<path class="st1" d="M43.53,15.16c0,1.67-0.43,3.02-1.3,4.05c-0.93,1.08-2.19,1.61-3.78,1.61c-1.55,0-2.78-0.54-3.7-1.61
		c-0.89-1.04-1.33-2.4-1.33-4.08c0-1.57,0.4-2.87,1.2-3.89c0.91-1.17,2.19-1.75,3.86-1.75c1.58,0,2.83,0.54,3.76,1.63
		C43.1,12.16,43.53,13.5,43.53,15.16z M41.23,15.14c0-1.06-0.25-1.9-0.74-2.52c-0.48-0.61-1.15-0.92-2.02-0.92
		c-0.77,0-1.39,0.25-1.88,0.76c-0.59,0.61-0.88,1.51-0.88,2.71c0,1.17,0.29,2.07,0.87,2.69c0.49,0.53,1.12,0.8,1.89,0.8
		c1.05,0,1.82-0.45,2.3-1.35C41.08,16.73,41.23,16.01,41.23,15.14z"/>
</g>
<g>
	<path class="st1" d="M32.04,15.79c0,1.52-0.17,2.61-0.5,3.27c-0.61,1.17-1.81,1.76-3.62,1.76c-1.81,0-3.02-0.58-3.63-1.75
		c-0.35-0.66-0.53-1.74-0.53-3.24V9.78h1.92v5.74c0,1.09,0.1,1.85,0.3,2.28c0.34,0.75,0.86,0.94,1.93,0.94
		c1.05,0,1.56-0.16,1.9-0.85c0.22-0.43,0.33-1.2,0.33-2.31v-5.8h1.9V15.79z"/>
</g>
<g>
	<path class="st1" d="M32.04,31.37c0,1.52-0.17,2.61-0.5,3.27c-0.61,1.17-1.81,1.76-3.62,1.76c-1.81,0-3.02-0.58-3.63-1.75
		c-0.35-0.66-0.53-1.74-0.53-3.24v-6.06h1.92v5.74c0,1.09,0.1,1.85,0.3,2.28c0.34,0.75,0.86,0.94,1.93,0.94
		c1.05,0,1.56-0.16,1.9-0.85c0.22-0.43,0.33-1.2,0.33-2.31v-5.8h1.9V31.37z"/>
</g>
<g>
	<path class="st1" d="M53.12,36.41h-1.9v-5.8c0-1.11-0.11-1.88-0.33-2.31c-0.34-0.69-0.85-0.85-1.9-0.85
		c-1.07,0-1.58,0.19-1.93,0.94c-0.2,0.43-0.3,1.19-0.3,2.28v5.74h-1.92v-6.06c0-1.5,0.18-2.58,0.53-3.24
		c0.61-1.16,1.82-1.75,3.63-1.75c1.8,0,3.01,0.59,3.62,1.76c0.33,0.66,0.5,1.75,0.5,3.27V36.41z"/>
</g>
<g>
	<path class="st3" d="M3.52,54.54c-0.2-0.2-0.31-0.54-0.31-1.01v-8.42c0-0.47,0.1-0.81,0.31-1.01c0.21-0.21,0.54-0.31,1-0.31h8.02
		c0.47,0,0.8,0.1,1.01,0.31c0.2,0.21,0.31,0.55,0.31,1.01v8.42c0,0.47-0.1,0.8-0.31,1.01c-0.21,0.2-0.54,0.31-1,0.31H4.52
		C4.06,54.84,3.72,54.74,3.52,54.54z M12.85,53.23v-7.85c0-0.44-0.22-0.66-0.67-0.66H4.89c-0.45,0-0.67,0.22-0.67,0.66v7.85
		c0,0.45,0.22,0.68,0.67,0.68h7.28C12.62,53.91,12.85,53.68,12.85,53.23z M4.57,52.62c-0.06-0.08-0.1-0.2-0.1-0.37
		s0.06-0.29,0.18-0.36c0.11-0.07,0.47-0.14,1.08-0.23c0.18-0.02,0.39-0.05,0.64-0.11c0.25-0.06,0.42-0.09,0.51-0.11l0.64-0.14
		l0.6-0.13l0.29-0.06c0.12-0.02,0.21,0,0.27,0.08c0.06,0.08,0.09,0.18,0.09,0.32c0,0.08-0.03,0.16-0.08,0.22
		c-0.05,0.06-0.12,0.11-0.2,0.12l-0.19,0.06c-0.1,0.03-0.33,0.1-0.67,0.2c-0.1,0.03-0.25,0.07-0.45,0.12
		c-0.19,0.04-0.35,0.08-0.47,0.12l-0.65,0.14c-0.71,0.16-1.11,0.24-1.18,0.24C4.73,52.74,4.63,52.7,4.57,52.62z M7.49,53.08
		c0-0.09,0.06-0.18,0.17-0.29c0.11-0.11,0.25-0.2,0.41-0.29c0.6-0.31,1.11-0.69,1.51-1.16c-0.44-1.06-0.7-2.42-0.78-4.06H5.08
		c-0.19,0-0.34-0.03-0.43-0.1c-0.09-0.07-0.14-0.18-0.14-0.34s0.05-0.28,0.14-0.36c0.09-0.08,0.24-0.12,0.43-0.12h3.65v-0.68
		c0-0.38,0.16-0.58,0.47-0.58c0.15,0,0.27,0.06,0.34,0.18c0.08,0.12,0.11,0.29,0.11,0.51v0.56h2.25c0.19,0,0.34,0.04,0.43,0.12
		c0.09,0.08,0.14,0.2,0.14,0.36s-0.05,0.28-0.14,0.34c-0.09,0.07-0.24,0.1-0.43,0.1h-2.2c0.02,0.8,0.07,1.44,0.15,1.93
		c0.08,0.49,0.2,0.89,0.35,1.2c0.25-0.41,0.53-1.06,0.84-1.94c0.1-0.3,0.25-0.45,0.46-0.45c0.18,0,0.31,0.03,0.39,0.1
		c0.08,0.06,0.13,0.17,0.13,0.33c0,0.12-0.15,0.52-0.46,1.19c-0.32,0.73-0.64,1.3-0.94,1.71v0.01c0.16,0.29,0.32,0.52,0.48,0.7
		c0.16,0.18,0.29,0.27,0.39,0.27c0.08,0,0.15-0.08,0.22-0.24c0.07-0.16,0.12-0.38,0.16-0.66c0.02-0.12,0.06-0.21,0.12-0.28
		s0.15-0.1,0.25-0.1c0.26,0,0.4,0.14,0.4,0.42c0,0.47-0.09,0.92-0.28,1.34c-0.2,0.46-0.44,0.69-0.74,0.69
		c-0.53,0-1.06-0.45-1.59-1.34H10c-0.16,0.2-0.33,0.38-0.51,0.52c-0.18,0.14-0.39,0.29-0.64,0.43c-0.28,0.16-0.48,0.27-0.61,0.34
		c-0.13,0.06-0.23,0.1-0.32,0.1C7.63,53.54,7.49,53.39,7.49,53.08z M4.94,49.86v-1.1c0-0.58,0.3-0.87,0.9-0.87h1.57
		c0.3,0,0.52,0.07,0.66,0.21c0.14,0.14,0.22,0.36,0.22,0.66v1.1c0,0.59-0.29,0.88-0.88,0.88H5.85C5.24,50.74,4.94,50.45,4.94,49.86z
		 M7.43,49.64v-0.65c0-0.11-0.02-0.19-0.06-0.24c-0.04-0.05-0.12-0.07-0.23-0.07H6.14c-0.2,0-0.31,0.1-0.31,0.31v0.65
		c0,0.2,0.1,0.31,0.31,0.31h0.99C7.33,49.95,7.43,49.85,7.43,49.64z M11.09,46.1c-0.06-0.06-0.15-0.16-0.28-0.33
		c-0.17-0.21-0.25-0.37-0.25-0.48c0-0.12,0.04-0.21,0.11-0.27c0.08-0.06,0.18-0.09,0.31-0.09c0.13,0,0.29,0.12,0.5,0.34
		c0.2,0.23,0.31,0.4,0.31,0.52c0,0.26-0.15,0.38-0.46,0.38C11.23,46.18,11.15,46.15,11.09,46.1z"/>
	<path class="st3" d="M27.26,52.53c0,0.82-0.13,1.36-0.39,1.62c-0.3,0.3-1.1,0.45-2.42,0.45c-0.93,0-1.5-0.05-1.73-0.14
		c-0.36-0.14-0.53-0.5-0.53-1.06v-4.48H20.4c-0.02,0.78-0.07,1.4-0.15,1.88c-0.08,0.48-0.22,0.94-0.39,1.38
		c-0.31,0.78-0.86,1.41-1.64,1.92c-0.72,0.47-1.32,0.7-1.81,0.7c-0.33,0-0.5-0.19-0.5-0.57c0-0.16,0.06-0.28,0.17-0.36
		c0.08-0.06,0.35-0.17,0.83-0.32c0.81-0.26,1.44-0.74,1.87-1.43c0.42-0.67,0.63-1.74,0.65-3.19h-2.79c-0.4,0-0.6-0.16-0.6-0.47
		c0-0.32,0.2-0.48,0.6-0.48h4.37V44.1c0-0.47,0.18-0.7,0.55-0.7c0.37,0,0.55,0.23,0.55,0.7v3.86h4.35c0.2,0,0.35,0.04,0.45,0.11
		c0.1,0.08,0.15,0.2,0.15,0.37c0,0.32-0.2,0.47-0.6,0.47h-3.28v4.11c0,0.26,0.06,0.43,0.18,0.5c0.16,0.09,0.47,0.14,0.92,0.14
		c0.9,0,1.44-0.06,1.63-0.18c0.18-0.11,0.28-0.41,0.32-0.89c0.02-0.22,0.07-0.39,0.15-0.49c0.08-0.11,0.2-0.16,0.36-0.16
		C27.07,51.94,27.26,52.14,27.26,52.53z M17.37,45.3c-0.13-0.17-0.19-0.33-0.19-0.47c0-0.16,0.08-0.3,0.24-0.42
		c0.08-0.06,0.17-0.09,0.25-0.09c0.16,0,0.35,0.12,0.57,0.37c0.29,0.34,0.61,0.8,0.98,1.37c0.1,0.15,0.15,0.3,0.15,0.43
		c0,0.15-0.08,0.29-0.24,0.42c-0.1,0.08-0.21,0.12-0.33,0.12c-0.2,0-0.37-0.11-0.48-0.33C18.13,46.35,17.82,45.89,17.37,45.3z
		 M23.51,46.54c0-0.14,0.05-0.3,0.15-0.46c0.41-0.64,0.69-1.12,0.84-1.46c0.11-0.25,0.27-0.37,0.48-0.37c0.1,0,0.21,0.03,0.32,0.1
		c0.18,0.11,0.27,0.26,0.27,0.43c0,0.14-0.04,0.28-0.13,0.42c-0.35,0.64-0.64,1.11-0.87,1.42c-0.2,0.27-0.39,0.41-0.57,0.41
		c-0.08,0-0.16-0.03-0.25-0.08C23.6,46.86,23.51,46.72,23.51,46.54z"/>
	<path class="st3" d="M31.11,54.41v-4.94c-0.29,0.93-0.65,1.78-1.09,2.57c-0.32,0.55-0.58,0.83-0.76,0.83
		c-0.32,0-0.48-0.19-0.48-0.56c0-0.14,0.09-0.32,0.27-0.56c0.85-1.12,1.51-2.47,1.97-4.04h-1.67c-0.36,0-0.53-0.17-0.53-0.5
		s0.18-0.5,0.53-0.5h1.77v-1.74c-0.81,0.11-1.37,0.17-1.67,0.17c-0.34,0-0.51-0.16-0.51-0.48c0-0.14,0.06-0.25,0.17-0.33
		c0.11-0.07,0.28-0.12,0.52-0.13c1.54-0.14,2.58-0.33,3.13-0.55c0.23-0.09,0.42-0.14,0.57-0.14c0.34,0,0.51,0.18,0.51,0.54
		c0,0.25-0.26,0.44-0.78,0.58l-0.94,0.19v1.9h1.32c0.37,0,0.56,0.17,0.56,0.5s-0.19,0.5-0.56,0.5h-1.32v1.38
		c0.08-0.12,0.19-0.18,0.33-0.18c0.08,0,0.19,0.07,0.35,0.2c0.16,0.14,0.34,0.33,0.55,0.59c0.43,0.54,0.65,0.89,0.65,1.06
		c0,0.3-0.15,0.45-0.46,0.45c-0.14,0-0.31-0.14-0.48-0.42l-0.94-1.3v4.93c0,0.41-0.17,0.61-0.5,0.61
		C31.28,55.02,31.11,54.82,31.11,54.41z M32.97,54.46c-0.08-0.08-0.11-0.2-0.11-0.36c0-0.3,0.16-0.45,0.47-0.45h1.17v-8.47
		c0-0.4,0.08-0.69,0.25-0.87c0.17-0.18,0.45-0.26,0.84-0.23h2.66c0.41,0,0.7,0.09,0.88,0.26c0.18,0.18,0.26,0.46,0.22,0.85v8.46
		h0.56c0.31,0,0.47,0.15,0.47,0.46s-0.16,0.46-0.47,0.46h-6.59C33.17,54.57,33.05,54.54,32.97,54.46z M38.37,45.44
		c0-0.28-0.14-0.42-0.42-0.42h-2.06c-0.26,0-0.4,0.14-0.42,0.42v1.7h2.9V45.44z M38.37,50.26v-2.22h-2.9v2.22H38.37z M38.37,53.65
		v-2.5h-2.9v2.5H38.37z"/>
	<path class="st3" d="M53.43,52.86c0,0.31-0.2,0.46-0.59,0.46h-4.8v1.16c0,0.17-0.04,0.3-0.13,0.4c-0.08,0.1-0.21,0.15-0.38,0.15
		c-0.16,0-0.29-0.05-0.38-0.15c-0.09-0.1-0.13-0.23-0.13-0.4v-1.16h-4.61c-0.38,0-0.57-0.15-0.57-0.46c0-0.32,0.19-0.49,0.57-0.49
		h4.61v-1h-2.81c-0.42,0-0.72-0.09-0.9-0.27s-0.27-0.47-0.24-0.88v-2.75c0-0.43,0.09-0.73,0.27-0.93c0.18-0.19,0.47-0.27,0.87-0.25
		h2.81v-0.92h-4.28c-0.2,0-0.35-0.04-0.44-0.12c-0.09-0.08-0.13-0.19-0.13-0.34c0-0.31,0.19-0.47,0.57-0.47h4.28v-0.6
		c0-0.16,0.04-0.29,0.13-0.38c0.08-0.09,0.21-0.13,0.38-0.13s0.3,0.04,0.38,0.13c0.08,0.09,0.13,0.21,0.13,0.38v0.6h4.48
		c0.37,0,0.56,0.16,0.56,0.47c0,0.15-0.04,0.27-0.13,0.34c-0.09,0.08-0.23,0.12-0.43,0.12h-4.48v0.92h3.02
		c0.41,0,0.7,0.09,0.89,0.27c0.19,0.18,0.27,0.48,0.25,0.9v2.75c0,0.43-0.09,0.73-0.27,0.92c-0.18,0.19-0.47,0.26-0.87,0.23h-3.02v1
		h4.8C53.23,52.38,53.43,52.54,53.43,52.86z M44.08,48.34h2.94v-1.11h-2.32c-0.25,0-0.41,0.04-0.5,0.13
		c-0.08,0.08-0.13,0.25-0.13,0.5V48.34z M47.02,50.46v-1.2h-2.94v0.6c0,0.24,0.04,0.4,0.13,0.48c0.08,0.08,0.25,0.12,0.5,0.12H47.02
		z M48.04,48.34h3.14v-0.49c0-0.25-0.04-0.41-0.13-0.5c-0.08-0.09-0.25-0.13-0.5-0.13h-2.52V48.34z M48.04,50.46h2.52
		c0.25,0,0.41-0.04,0.5-0.12c0.08-0.08,0.13-0.24,0.13-0.48v-0.6h-3.14V50.46z"/>
</g>
</svg>
