<?xml version="1.0" encoding="utf-8"?>
<!-- Generator: Adobe Illustrator 25.0.0, SVG Export Plug-In . SVG Version: 6.00 Build 0)  -->
<svg version="1.1" id="圖層_1" xmlns="http://www.w3.org/2000/svg" xmlns:xlink="http://www.w3.org/1999/xlink" x="0px" y="0px"
	 viewBox="0 0 36.75 26.63" style="enable-background:new 0 0 36.75 26.63;" xml:space="preserve">
<style type="text/css">
	.st0{fill:#1A1311;}
</style>
<path id="motorcycle-delivery-single-box-svgrepo-com" class="st0" d="M8.88-0.01c1.18-0.06,2.34,0.34,3.23,1.12h4.39
	c0.41,0,0.75,0.34,0.75,0.75s-0.34,0.75-0.75,0.75h-3.94c-0.29,1.07-1.8,1.87-3.68,1.87c-0.62,0.07-1.23-0.11-1.71-0.5
	c-0.35-0.46-0.5-1.04-0.42-1.61V2.1C6.66,1.53,6.81,0.95,7.16,0.49C7.64,0.1,8.26-0.08,8.88-0.01L8.88-0.01z M11.82,5.38
	c-0.65,4.92,0.32,9.69,2.57,12.38c0.99,1.31,2.53,2.08,4.17,2.1c0.6-0.01,1.15-0.36,1.42-0.9c0.64-1.11,0.75-3.28-0.69-6.18
	c1.2,0.24,2.43,0.35,3.65,0.33c1.46,0.08,2.91-0.17,4.27-0.72c0.13-0.07,0.26-0.15,0.39-0.24c0.24-0.16,0.44-0.37,0.6-0.61
	c0.05,0.02,0.1,0.05,0.16,0.08H36c0.41,0,0.75,0.34,0.75,0.75s-0.34,0.75-0.75,0.75h-5.35c1.38,1.14,2.44,2.62,3.08,4.3
	c0.11,0.4-0.12,0.81-0.52,0.93c-0.02,0-0.03,0.01-0.05,0.01l-11.31,3.02h-8.39c0.03-0.25,0.04-0.5,0.04-0.75c0-4-3.86-7.5-8.25-7.5
	c-0.14,0-0.26,0.01-0.39,0.01c0.31-2.64,1.36-5.15,3.01-7.23C8.2,5.96,8.54,5.99,8.88,5.99C9.89,6,10.89,5.79,11.82,5.38z
	 M26.23,9.41c0.07,0,0.15,0.02,0.21,0.06l0,0c0.09,0.05,0.17,0.12,0.24,0.2c0.01,0.01,0.02,0.02,0.03,0.03
	c0.08,0.1,0.15,0.21,0.2,0.32c0.08,0.16,0.14,0.33,0.18,0.5c0.01,0.06,0.02,0.11,0.03,0.16c0.01,0.07,0.03,0.14,0.04,0.21
	c-0.01,0-0.01,0-0.02,0c0.02,0.09,0.03,0.19,0.04,0.28c0,0.76-1.39,1.23-4.08,1.23s-4.92-0.46-4.92-1.23s0.43-1.77,0.96-1.77
	L26.23,9.41z M5.25,14.61c3.39,0,6.75,2.68,6.75,6c0,2.06-0.89,2.25-1.5,2.25c-1.24,0-0.75-2.55-3.75-3.75
	c-0.81-0.32-1.68-0.47-2.55-0.46c-1.36,0-2.53,0.32-3.29,0.32C0.34,18.97,0,18.79,0,18.16C0,17.61,0.97,14.61,5.25,14.61z
	 M4.37,20.16c0.63,0.01,1.24,0.12,1.83,0.35c0.13,0.05,0.26,0.11,0.39,0.18c0.38,0.74,0.09,1.64-0.65,2.02
	c-0.74,0.38-1.64,0.09-2.02-0.65C3.58,21.4,3.77,20.6,4.37,20.16L4.37,20.16z M32.11,20.18c0.65,2.82-1.11,5.64-3.93,6.29
	c-2.7,0.62-5.42-0.96-6.2-3.62c0.09,0,0.18-0.01,0.27-0.03l1.93-0.52c0.51,1.57,2.2,2.43,3.77,1.91c1.23-0.4,2.06-1.55,2.06-2.85
	c0-0.2-0.02-0.4-0.07-0.6L32.11,20.18z M2.45,20.31c-0.6,1.54,0.17,3.27,1.71,3.87s3.27-0.17,3.87-1.71
	c0.01-0.04,0.03-0.07,0.04-0.11c0.02,0.04,0.03,0.07,0.05,0.11c0.28,0.75,0.83,1.37,1.54,1.73c-1.53,2.45-4.76,3.19-7.2,1.66
	c-1.86-1.16-2.79-3.36-2.34-5.5c0.26,0.07,0.53,0.11,0.8,0.11c0.47-0.01,0.94-0.06,1.4-0.14L2.45,20.31z M28.48,21.15
	c0.01,0.07,0.02,0.14,0.02,0.22c-0.01,0.83-0.68,1.5-1.51,1.49c-0.61,0-1.16-0.38-1.38-0.94L28.48,21.15z"/>
</svg>
