<?xml version="1.0" encoding="utf-8"?>
<!-- Generator: Adobe Illustrator 25.0.0, SVG Export Plug-In . SVG Version: 6.00 Build 0)  -->
<svg version="1.1" id="圖層_1" xmlns="http://www.w3.org/2000/svg" xmlns:xlink="http://www.w3.org/1999/xlink" x="0px" y="0px"
	 viewBox="0 0 22.65 22.65" style="enable-background:new 0 0 22.65 22.65;" xml:space="preserve">
<style type="text/css">
	.st0{fill:#1A1311;}
</style>
<path id="Icon_metro-phone" class="st0" d="M16.03,13.95c-1.45,1.45-1.45,2.9-2.9,2.9s-2.9-1.45-4.35-2.9s-2.9-2.9-2.9-4.35
	s1.45-1.45,2.9-2.9s-2.9-5.8-4.35-5.8S0.09,5.25,0.09,5.25c0,2.9,2.98,8.77,5.8,11.59s8.7,5.8,11.59,5.8c0,0,4.35-2.9,4.35-4.35
	S17.48,12.5,16.03,13.95z"/>
<path id="Icon_metro-phone-in-talk" class="st0" d="M20.12,11.77h2.62c0-6.51-5.27-11.78-11.78-11.78v2.62
	C16.02,2.61,20.12,6.71,20.12,11.77z M14.88,11.77h2.62c0-3.61-2.93-6.54-6.54-6.54v2.62C13.13,7.85,14.88,9.6,14.88,11.77
	L14.88,11.77z"/>
</svg>
