<?xml version="1.0" encoding="utf-8"?>
<!-- Generator: Adobe Illustrator 25.0.0, SVG Export Plug-In . SVG Version: 6.00 Build 0)  -->
<svg version="1.1" id="圖層_1" xmlns="http://www.w3.org/2000/svg" xmlns:xlink="http://www.w3.org/1999/xlink" x="0px" y="0px"
	 viewBox="0 0 20 19.79" style="enable-background:new 0 0 20 19.79;" xml:space="preserve">
<style type="text/css">
	.st0{fill:#1A1311;}
</style>
<g id="map-svgrepo-com" transform="translate(-2 -2.106)">
	<path id="Path_638" class="st0" d="M2.44,5.15C2,5.64,2,6.49,2,8.2v9.39c0,1.21,0,1.81,0.32,2.26s0.87,0.65,1.97,1.03l1.29,0.45
		c0.7,0.24,1.24,0.43,1.69,0.55c0.24,0.06,0.49-0.09,0.55-0.33c0.01-0.04,0.01-0.08,0.01-0.13V6.27C7.83,6.02,7.65,5.81,7.41,5.75
		c-0.39-0.1-0.86-0.26-1.5-0.48C4.36,4.73,3.58,4.46,2.99,4.73C2.78,4.83,2.59,4.97,2.44,5.15z"/>
	<path id="Path_639" class="st0" d="M12.62,3.48l-1.54,1.07c-0.56,0.38-0.96,0.67-1.31,0.87C9.61,5.51,9.5,5.68,9.5,5.87v15.05
		c-0.01,0.25,0.18,0.46,0.43,0.47c0.09,0,0.19-0.02,0.27-0.07c0.34-0.21,0.72-0.48,1.18-0.8l1.54-1.07
		c0.56-0.39,0.96-0.67,1.31-0.87c0.17-0.09,0.27-0.27,0.27-0.46V3.08c0.01-0.25-0.18-0.46-0.43-0.47c-0.09,0-0.19,0.02-0.27,0.07
		C13.47,2.89,13.09,3.16,12.62,3.48z"/>
	<path id="Path_640" class="st0" d="M19.72,3.12l-1.29-0.45c-0.7-0.24-1.24-0.43-1.69-0.55c-0.24-0.06-0.49,0.09-0.55,0.33
		c-0.01,0.04-0.01,0.08-0.01,0.13v15.15c0.01,0.25,0.18,0.46,0.42,0.52c0.39,0.1,0.86,0.26,1.5,0.48c1.55,0.54,2.33,0.81,2.92,0.53
		c0.21-0.1,0.4-0.24,0.55-0.42C22,18.36,22,17.51,22,15.8V6.41c0-1.21,0-1.81-0.32-2.26S20.82,3.5,19.72,3.12z"/>
</g>
</svg>
