<?xml version="1.0" encoding="utf-8"?>
<!-- Generator: Adobe Illustrator 25.0.0, SVG Export Plug-In . SVG Version: 6.00 Build 0)  -->
<svg version="1.1" id="圖層_1" xmlns="http://www.w3.org/2000/svg" xmlns:xlink="http://www.w3.org/1999/xlink" x="0px" y="0px"
	 viewBox="0 0 246.42 5.15" style="enable-background:new 0 0 246.42 5.15;" xml:space="preserve">
<style type="text/css">
	.st0{fill:#222221;}
</style>
<g id="分隔線" transform="translate(-160.851 -532.071)">
	<g id="Group_13" transform="translate(160.851 532.58)">
		<path id="Path_398" class="st0" d="M2.22,2.09c0,0.04,0,0.09,0,0.13c0,0.01,0,0.01,0,0.02C2.22,2.19,2.22,2.14,2.22,2.09z"/>
		<path id="Path_399" class="st0" d="M2.02,1.26c-0.08-0.15-0.18-0.28-0.3-0.39C1.49,0.61,1.19,0.41,0.85,0.32
			C0.71,0.27,0.57,0.3,0.45,0.38c-0.3,0.31-0.47,0.71-0.5,1.14C-0.06,1.78-0.03,2.05,0.05,2.3c0.08,0.42,0.39,0.77,0.8,0.9
			C1.2,3.29,1.57,3.18,1.81,2.91c0.04-0.04,0.07-0.08,0.1-0.13c0.08-0.06,0.15-0.13,0.2-0.21c0.06-0.11,0.1-0.23,0.1-0.35
			C2.22,2.06,2.2,1.9,2.17,1.74C2.15,1.58,2.1,1.42,2.02,1.26z"/>
	</g>
	<path id="Path_400" class="st0" d="M170.09,533.95c0-0.26-0.11-0.51-0.29-0.7c-0.1-0.1-0.23-0.19-0.36-0.25
		c-0.14-0.07-0.29-0.11-0.44-0.13c-0.28-0.04-0.56-0.01-0.82,0.08c-0.13,0.04-0.26,0.1-0.38,0.18c-0.12,0.07-0.23,0.16-0.32,0.26
		c-0.22,0.24-0.35,0.55-0.37,0.88c0,0.29,0.09,0.58,0.26,0.82c0.14,0.21,0.33,0.38,0.56,0.49c0.18,0.09,0.37,0.15,0.57,0.18
		c0.32,0.06,0.64-0.04,0.88-0.26c0.17-0.17,0.28-0.4,0.31-0.64C169.94,534.61,170.08,534.28,170.09,533.95z"/>
	<path id="Path_401" class="st0" d="M180.15,534.46c-0.03-0.18-0.11-0.35-0.24-0.48c0.01-0.06,0-0.11-0.01-0.17
		c-0.01-0.07-0.09-0.13-0.14-0.17c-0.09-0.07-0.18-0.14-0.27-0.2c0.02-0.01,0.05-0.03,0.07-0.04c0.04-0.02-0.16-0.19-0.14-0.17
		c-0.26-0.21-0.54-0.4-0.84-0.55c-0.05-0.03-0.15-0.09-0.21-0.06c-0.29,0.14-0.49,0.42-0.53,0.75c-0.07,0.1-0.11,0.2-0.13,0.32
		c-0.04,0.01-0.09,0.03-0.13,0.04c-0.06,0.02-0.11,0.06-0.13,0.12c-0.04,0.04-0.06,0.1-0.05,0.16c-0.03,0.35-0.05,0.71-0.08,1.06
		c0.01,0.06,0.03,0.13,0.07,0.18c0.04,0.07,0.09,0.13,0.15,0.17c0.15,0.12,0.32,0.19,0.5,0.23c0.15,0.04,0.32,0.03,0.46-0.03h0.01
		c0.05,0,0.11,0,0.16-0.01c0.19-0.01,0.37-0.1,0.49-0.25c0.1-0.13,0.15-0.29,0.15-0.45c0.18,0.04,0.37,0.02,0.53-0.07
		c0.1-0.05,0.18-0.12,0.25-0.21c0.02-0.02,0.03-0.04,0.04-0.07C180.16,534.53,180.16,534.49,180.15,534.46z"/>
	<path id="Path_402" class="st0" d="M190.49,534.51c-0.16-0.47-0.52-0.83-0.98-1c-0.21-0.08-0.43-0.13-0.66-0.14
		c-0.04-0.02-0.08-0.04-0.12-0.06c-0.14-0.07-0.31-0.09-0.46-0.05c-0.11,0.04-0.23,0.11-0.24,0.25c0,0.03,0,0.05,0,0.08
		c-0.09,0.06-0.16,0.12-0.23,0.2c-0.11,0.13-0.18,0.28-0.21,0.44c-0.01,0.13,0.04,0.26,0.12,0.36c0.01,0.05,0.02,0.1,0.03,0.15
		c0.08,0.24,0.22,0.46,0.42,0.63c0.37,0.32,0.86,0.46,1.35,0.39c0.3-0.04,0.59-0.19,0.79-0.41
		C190.51,535.13,190.58,534.81,190.49,534.51z"/>
	<g id="Group_14" transform="translate(196.045 532.819)">
		<path id="Path_403" class="st0" d="M1.76,0.59L1.75,0.6L1.76,0.59L1.76,0.59L1.76,0.59L1.76,0.59z"/>
		<path id="Path_404" class="st0" d="M3.21,0.84C3.06,0.58,2.82,0.4,2.53,0.35C2.3,0.3,2.07,0.28,1.84,0.3
			C1.48,0.32,1.12,0.39,0.77,0.51C0.19,0.66-0.17,1.26-0.02,1.85c0.03,0.1,0.06,0.19,0.12,0.28c0.18,0.34,0.49,0.6,0.86,0.71
			c0.14,0.03,0.29,0.03,0.43,0.01c0.18-0.01,0.36-0.05,0.54-0.1c0.09-0.03,0.25-0.06,0.31-0.14S2.19,2.52,2.14,2.5l0,0L2.11,2.49
			C2.08,2.48,2.05,2.47,2.03,2.45C1.98,2.43,1.94,2.4,1.89,2.37C1.85,2.34,1.8,2.31,1.76,2.27c0.1-0.02,0.19-0.03,0.29-0.05
			c0.41-0.06,0.79-0.27,1.06-0.59C3.29,1.4,3.32,1.1,3.21,0.84z"/>
	</g>
	<path id="Path_405" class="st0" d="M210.68,533.42c-0.19-0.36-0.51-0.64-0.9-0.77c-0.28-0.1-0.57-0.12-0.86-0.07
		c-0.28,0.04-0.54,0.18-0.75,0.38c-0.05,0.05-0.09,0.1-0.13,0.16h-0.01c-0.1,0-0.19,0.04-0.25,0.11c-0.15,0.2-0.2,0.46-0.11,0.7
		c0.02,0.06,0.04,0.12,0.07,0.18c0,0.26,0.05,0.53,0.13,0.78c0.07,0.16,0.2,0.3,0.36,0.38c0.15,0.1,0.33,0.14,0.51,0.12
		c0.11-0.02,0.22-0.06,0.33-0.11c0.08,0.03,0.16,0.04,0.24,0.04c0.16,0.01,0.32-0.05,0.43-0.17c0.03-0.03,0.05-0.07,0.07-0.1
		c0.02-0.03,0.03-0.06,0.03-0.1c0.11-0.01,0.22-0.04,0.32-0.09c0.24-0.12,0.43-0.31,0.54-0.56c0.06-0.14,0.09-0.29,0.09-0.44
		C210.77,533.71,210.74,533.56,210.68,533.42z"/>
	<path id="Path_406" class="st0" d="M218.86,533.44c-0.13-0.18-0.29-0.33-0.48-0.45c-0.15-0.09-0.31-0.16-0.48-0.19
		c-0.21-0.05-0.43-0.05-0.64,0c-0.15,0.04-0.29,0.11-0.42,0.2c-0.08,0.06-0.16,0.14-0.22,0.22c-0.07,0.1-0.12,0.21-0.14,0.33
		c-0.2,0.26-0.27,0.61-0.17,0.93c0.09,0.26,0.28,0.47,0.52,0.59c0.2,0.11,0.43,0.18,0.66,0.2c0.06,0.01,0.12,0.01,0.18,0.01
		c0.11,0,0.23-0.01,0.34-0.04c0.21-0.05,0.41-0.14,0.59-0.27c0.31-0.22,0.48-0.57,0.47-0.95
		C219.05,533.81,218.98,533.61,218.86,533.44z"/>
	<path id="Path_407" class="st0" d="M232.49,534.24c-0.12-0.31-0.32-0.58-0.58-0.78c-0.02-0.02-0.05-0.03-0.08-0.05
		c-0.05-0.13-0.12-0.25-0.22-0.35c-0.12-0.13-0.27-0.23-0.44-0.27c-0.13-0.04-0.27-0.01-0.38,0.07l-0.48,0.59l-0.01,0.01
		c-0.18,0.17-0.3,0.4-0.33,0.65c0,0.2,0.07,0.38,0.2,0.53c0.12,0.17,0.3,0.29,0.5,0.34c0.05,0.01,0.09,0.02,0.13,0.03
		c0.09,0.08,0.2,0.15,0.3,0.21c0.23,0.13,0.49,0.2,0.75,0.22c0.11,0.01,0.21,0,0.31-0.03c0.04-0.01,0.08-0.01,0.12-0.03
		c0.08-0.04,0.15-0.1,0.19-0.18c0.02-0.04,0.03-0.08,0.04-0.12c0.04-0.13,0.06-0.27,0.05-0.41
		C232.57,534.53,232.54,534.38,232.49,534.24z"/>
	<path id="Path_408" class="st0" d="M241.11,534.48c-0.01-0.03-0.03-0.05-0.05-0.08l0.09-0.16c0.09-0.23,0.05-0.49-0.1-0.68
		c-0.13-0.23-0.37-0.37-0.63-0.4c-0.13,0-0.26,0.02-0.38,0.07c-0.01-0.01-0.02-0.02-0.04-0.02c-0.13-0.08-0.29-0.1-0.43-0.07
		c-0.13,0.05-0.23,0.16-0.25,0.29c-0.09,0.67-0.02,1.35,0.18,1.99c0.07,0.2,0.2,0.38,0.38,0.5c0.14,0.12,0.33,0.16,0.51,0.12
		c0.27-0.1,0.51-0.28,0.68-0.51C241.28,535.22,241.29,534.81,241.11,534.48z"/>
	<path id="Path_409" class="st0" d="M252.88,533.88c-0.01-0.02-0.02-0.04-0.04-0.06c-0.06-0.09-0.12-0.17-0.2-0.24
		c-0.15-0.14-0.32-0.25-0.52-0.32c-0.33-0.1-0.68-0.1-1,0.02c-0.16,0.06-0.3,0.14-0.43,0.24c-0.1,0.01-0.19,0.04-0.26,0.1
		c-0.12,0.1-0.19,0.25-0.18,0.41c0,0.02,0.01,0.04,0.01,0.06l-0.01,0.02c-0.02,0.04-0.03,0.08-0.03,0.12
		c-0.02,0.09-0.03,0.19-0.02,0.28c0.01,0.1,0.03,0.19,0.05,0.29c0.03,0.08,0.06,0.15,0.1,0.22c0.13,0.22,0.36,0.38,0.62,0.41
		c0.24,0.04,0.49,0.01,0.72-0.07c0.09-0.03,0.18-0.08,0.27-0.13c0.49-0.03,0.9-0.38,1.01-0.86
		C252.99,534.2,252.97,534.03,252.88,533.88z"/>
	<path id="Path_410" class="st0" d="M264.43,533.72c-0.06-0.09-0.14-0.17-0.24-0.22c0-0.01,0-0.02-0.01-0.03
		c-0.08-0.16-0.22-0.27-0.39-0.31c-0.2-0.06-0.42-0.07-0.63-0.02c-0.07,0.01-0.14,0.04-0.2,0.06c-0.13-0.04-0.27-0.05-0.4-0.03
		c-0.16,0.01-0.31,0.07-0.43,0.17c-0.08,0.09-0.15,0.19-0.2,0.3c-0.04,0.11-0.07,0.22-0.08,0.34c-0.01,0.12,0,0.23,0.03,0.34
		c0.01,0.08,0.04,0.16,0.08,0.23c0.13,0.26,0.34,0.47,0.61,0.6c0.36,0.17,0.76,0.19,1.14,0.08c0.17-0.05,0.33-0.14,0.47-0.24
		c0.1-0.08,0.18-0.17,0.25-0.27c0.12-0.16,0.18-0.37,0.16-0.57C264.57,534,264.52,533.85,264.43,533.72z"/>
	<path id="Path_411" class="st0" d="M273.25,534.07c-0.02-0.09-0.05-0.19-0.08-0.28c-0.06-0.14-0.14-0.28-0.24-0.39
		c-0.1-0.12-0.22-0.22-0.35-0.3c-0.19-0.12-0.4-0.2-0.62-0.23c-0.15-0.02-0.3-0.01-0.44,0.03c-0.12,0.03-0.23,0.11-0.3,0.22
		l-0.04,0.1c-0.11,0.05-0.21,0.11-0.31,0.18c-0.09,0.08-0.18,0.16-0.25,0.26c-0.05,0.06-0.09,0.13-0.12,0.2
		c-0.11,0.21-0.14,0.45-0.08,0.67c0.04,0.16,0.13,0.31,0.24,0.43c0.14,0.14,0.3,0.26,0.48,0.34c0.33,0.14,0.69,0.19,1.04,0.12
		c0.28-0.04,0.53-0.17,0.74-0.35c0.21-0.19,0.33-0.45,0.35-0.72C273.26,534.26,273.26,534.16,273.25,534.07z"/>
	<path id="Path_412" class="st0" d="M282.23,533.88c-0.13-0.11-0.27-0.2-0.43-0.27c-0.01-0.07-0.04-0.13-0.07-0.19
		c-0.21-0.3-0.58-0.44-0.94-0.36c-0.75,0.21-1.2,0.97-1.01,1.73c0.06,0.22,0.18,0.42,0.34,0.58c0.16,0.16,0.36,0.29,0.58,0.36
		c0.22,0.07,0.45,0.1,0.67,0.09c0.21-0.02,0.42-0.08,0.62-0.18c0.15-0.07,0.28-0.17,0.39-0.3c0.37-0.43,0.31-1.08-0.12-1.45
		C282.25,533.89,282.24,533.88,282.23,533.88L282.23,533.88z"/>
	<path id="Path_413" class="st0" d="M293.1,533.85c-0.07-0.31-0.26-0.59-0.54-0.76c-0.18-0.12-0.38-0.2-0.59-0.23
		c-0.22-0.03-0.44-0.02-0.65,0.04c-0.22,0.07-0.43,0.18-0.6,0.34c-0.14,0.13-0.26,0.29-0.33,0.47c-0.16,0.33-0.17,0.71-0.02,1.05
		c0.01,0.04,0.03,0.08,0.06,0.12c0.03,0.15,0.09,0.3,0.19,0.42c0.28,0.32,0.73,0.43,1.12,0.28c0.34-0.11,0.65-0.31,0.9-0.57
		c0.12-0.13,0.22-0.27,0.31-0.42c0.05-0.1,0.09-0.19,0.13-0.29c0.01-0.03,0.02-0.06,0.03-0.09
		C293.14,534.09,293.14,533.97,293.1,533.85z"/>
	<path id="Path_414" class="st0" d="M303.04,533.43c-0.02-0.1-0.05-0.2-0.08-0.3c-0.07-0.3-0.27-0.55-0.54-0.69
		c-0.22-0.1-0.48-0.1-0.7,0c-0.04-0.01-0.07,0-0.11,0.01c-0.17,0.09-0.31,0.23-0.38,0.42c-0.09,0.17-0.14,0.35-0.13,0.54
		c0.01,0.17,0.05,0.34,0.13,0.49l0.02,0.04c0.04,0.12,0.08,0.23,0.14,0.34c0.13,0.27,0.32,0.51,0.57,0.68
		c0.11,0.08,0.24,0.13,0.38,0.16c0.03,0.01,0.07,0.01,0.1,0.01c0.02,0,0.04,0,0.06,0c0.07,0,0.13-0.03,0.17-0.08
		c0.01-0.01,0.02-0.03,0.04-0.04c0.16-0.2,0.28-0.43,0.34-0.67C303.1,534.05,303.1,533.73,303.04,533.43z"/>
	<path id="Path_415" class="st0" d="M314.01,534.29c-0.11-0.24-0.28-0.44-0.5-0.58c-0.41-0.2-0.87-0.25-1.32-0.14
		c-0.21,0.03-0.42,0.09-0.62,0.17c-0.06,0.02-0.11,0.05-0.16,0.08c-0.06,0.03-0.1,0.08-0.13,0.14c-0.08,0.15-0.13,0.31-0.15,0.48
		c-0.04,0.3,0.08,0.61,0.32,0.8c0.06,0.04,0.13,0.08,0.21,0.1l0.02,0.01l0.03,0.01h0.01c0.08,0.02,0.15,0.03,0.23,0.04
		c0.21,0.02,0.43,0.01,0.64-0.03h0.04c0.11,0,0.21,0,0.32,0c0.29-0.01,0.57-0.06,0.84-0.17c0.09-0.03,0.16-0.09,0.21-0.17
		C314.11,534.8,314.12,534.53,314.01,534.29z"/>
	<path id="Path_416" class="st0" d="M325.51,533.43c-0.23-0.15-0.5-0.22-0.77-0.21c-0.53,0.03-1.05,0.16-1.53,0.4
		c-0.58,0.22-1.01,0.7-1.17,1.29c-0.02,0.12-0.02,0.25,0,0.37c0.02,0.1,0.14,0.14,0.25,0.16c0.02,0.18,0.08,0.35,0.16,0.51
		c0.03,0.06,0.05,0.09,0.12,0.1c0.07,0.01,0.14,0.01,0.21,0.01c0.23-0.01,0.45-0.03,0.67-0.08c0.44-0.07,0.86-0.22,1.25-0.43
		c0.21-0.12,0.37-0.3,0.48-0.51c0.14-0.29,0.12-0.62-0.04-0.9c0.02-0.04,0.03-0.08,0.04-0.12l-0.03-0.02
		c-0.05-0.02-0.1-0.04-0.15-0.05l-0.01-0.01c-0.03-0.03-0.07-0.07-0.11-0.09c0.07-0.02,0.15-0.05,0.21-0.08
		c0.14-0.05,0.26-0.11,0.38-0.2C325.53,533.53,325.58,533.48,325.51,533.43z"/>
	<path id="Path_417" class="st0" d="M334.9,534.12c-0.19-0.07-0.4-0.1-0.6-0.09c-0.38,0-0.75,0.06-1.11,0.18
		c-0.3,0.09-0.57,0.29-0.74,0.55c-0.14,0.22-0.16,0.5-0.05,0.73c0.13,0.23,0.34,0.39,0.59,0.47c0.18,0.05,0.36,0.08,0.54,0.08
		c0.36,0.01,0.73-0.05,1.07-0.18c0.06-0.02,0.13-0.05,0.18-0.09c0.13-0.01,0.26-0.03,0.38-0.05c0.12-0.02,0.24-0.06,0.36-0.11
		c0.06-0.03,0.12-0.06,0.14-0.12C335.77,534.9,335.45,534.33,334.9,534.12z"/>
	<g id="Group_15" transform="translate(341.864 533.872)">
		<path id="Path_418" class="st0" d="M1.72,0.84L1.72,0.84L1.71,0.82C1.71,0.83,1.71,0.83,1.72,0.84z"/>
		<path id="Path_419" class="st0" d="M2.75,1.37C2.5,1.03,2.18,0.75,1.8,0.55C1.63,0.44,1.43,0.36,1.23,0.32
			C0.92,0.26,0.6,0.31,0.33,0.47c-0.24,0.14-0.39,0.4-0.38,0.67c0.01,0.15,0.05,0.29,0.14,0.41c0.05,0.07,0.09,0.13,0.15,0.19
			c0,0.04-0.01,0.08,0,0.11c0,0.08,0.01,0.15,0.05,0.22c0.06,0.1,0.14,0.18,0.23,0.26c0.11,0.1,0.24,0.2,0.36,0.28
			C1.05,2.74,1.25,2.83,1.45,2.9C1.62,2.95,1.8,2.96,1.98,2.93c0.34-0.07,0.63-0.28,0.81-0.58C2.97,2.04,2.95,1.66,2.75,1.37z"/>
	</g>
	<path id="Path_420" class="st0" d="M354.83,533.7c-0.27-0.36-0.67-0.59-1.11-0.66c-0.18-0.02-0.37,0-0.54,0.04
		c-0.13-0.05-0.27-0.05-0.4,0.01c-0.35,0.19-0.64,0.48-0.82,0.84c-0.17,0.35-0.25,0.75-0.22,1.14c0.01,0.2,0.06,0.4,0.13,0.59
		c0.04,0.12,0.1,0.23,0.16,0.34c0.07,0.13,0.17,0.24,0.28,0.33c0.08,0.05,0.17,0.1,0.26,0.14c0.37,0.17,0.79,0.24,1.2,0.18
		c0.41-0.05,0.79-0.24,1.08-0.53c0.29-0.32,0.45-0.73,0.45-1.16C355.27,534.5,355.11,534.06,354.83,533.7z M353.21,535.36
		c0.05-0.07,0.09-0.14,0.1-0.23c0,0.01,0.01,0.02,0.01,0.03c0.03,0.06,0.07,0.12,0.11,0.17h-0.01
		C353.36,535.34,353.29,535.36,353.21,535.36L353.21,535.36z"/>
	<path id="Path_421" class="st0" d="M368.62,534.43c-0.11-0.18-0.27-0.33-0.46-0.43c-0.5-0.24-1.1-0.15-1.5,0.22
		c-0.18,0.16-0.32,0.35-0.4,0.57c0,0.01-0.01,0.03-0.01,0.04c-0.25,0.34-0.3,0.79-0.13,1.18c0.04,0.08,0.09,0.15,0.15,0.21
		c0.1,0.11,0.23,0.18,0.38,0.21c0.16,0.04,0.32,0.06,0.49,0.05c0.4-0.03,0.79-0.19,1.09-0.45c0.16-0.14,0.3-0.32,0.4-0.51
		c0.09-0.14,0.13-0.31,0.14-0.48C368.78,534.83,368.73,534.61,368.62,534.43z"/>
	<path id="Path_422" class="st0" d="M380.17,535.84c-0.1-0.24-0.27-0.44-0.49-0.57c-0.08-0.05-0.16-0.1-0.24-0.13l-0.1-0.04
		c-0.05-0.07-0.12-0.14-0.18-0.19c-0.13-0.12-0.28-0.2-0.45-0.25c-0.11-0.04-0.23-0.02-0.32,0.05l-0.64,0.61
		c-0.03,0.03-0.06,0.05-0.09,0.08c-0.05,0.05-0.07,0.12-0.07,0.18c0,0.07,0,0.13,0.01,0.2c0.04,0.18,0.11,0.35,0.21,0.51
		c0.11,0.18,0.25,0.33,0.41,0.47c0.08,0.07,0.16,0.13,0.25,0.18c0.03,0.02,0.06,0.04,0.09,0.06l0.15,0.09
		c0.08,0.04,0.16,0.06,0.25,0.07c0.48,0.16,1-0.08,1.19-0.55C380.25,536.36,380.26,536.09,380.17,535.84z"/>
	<path id="Path_423" class="st0" d="M389.93,535.44c-0.09-0.22-0.27-0.39-0.49-0.48c-0.12-0.05-0.25-0.09-0.39-0.12
		c-0.17-0.05-0.35-0.09-0.53-0.1c-0.31-0.04-0.62,0.02-0.88,0.17c-0.14,0.1-0.24,0.23-0.31,0.39c-0.25,0.46-0.08,1.04,0.38,1.29
		c0.07,0.04,0.15,0.07,0.22,0.09c0.43,0.17,0.9,0.2,1.34,0.09c0.35-0.12,0.6-0.4,0.68-0.76C390,535.82,389.99,535.62,389.93,535.44z
		"/>
	<path id="Path_424" class="st0" d="M398.79,536.06c-0.03-0.06-0.06-0.12-0.1-0.18c0-0.12-0.05-0.24-0.13-0.32
		c-0.13-0.14-0.29-0.24-0.46-0.32c-0.18-0.07-0.37-0.11-0.57-0.1c-0.32,0.01-0.62,0.12-0.87,0.32c-0.07,0.05-0.13,0.1-0.18,0.17
		c-0.09,0.09-0.16,0.2-0.23,0.31c-0.12,0.21-0.17,0.46-0.14,0.71c0.03,0.17,0.1,0.33,0.21,0.46c0.02,0.03,0.05,0.06,0.08,0.09
		c0.09,0.1,0.2,0.17,0.33,0.22c0.08,0.03,0.16,0.05,0.24,0.08c0.37,0.08,0.76,0.04,1.1-0.13c0.28-0.13,0.51-0.34,0.65-0.61
		c0.04-0.08,0.07-0.17,0.1-0.26c0.01-0.02,0.01-0.05,0.02-0.07C398.86,536.29,398.84,536.17,398.79,536.06z"/>
	<path id="Path_425" class="st0" d="M406.92,535.25l-0.01-0.02c-0.03-0.05-0.07-0.09-0.11-0.13c-0.22-0.23-0.52-0.38-0.84-0.4
		c-0.13-0.01-0.25,0-0.38,0.04c-0.12,0.03-0.24,0.08-0.35,0.14c-0.19,0.11-0.36,0.25-0.49,0.42c-0.16,0.21-0.25,0.45-0.28,0.71
		c-0.03,0.33,0.07,0.65,0.26,0.92c0.19,0.28,0.47,0.47,0.79,0.55c0.25,0.06,0.51,0.04,0.75-0.06c0.12-0.05,0.24-0.11,0.34-0.19
		c0.1-0.08,0.2-0.17,0.29-0.27c0.18-0.21,0.3-0.47,0.33-0.75C407.25,535.87,407.15,535.52,406.92,535.25z"/>
</g>
</svg>
