<?xml version="1.0" encoding="utf-8"?>
<!-- Generator: Adobe Illustrator 25.0.0, SVG Export Plug-In . SVG Version: 6.00 Build 0)  -->
<svg version="1.1" id="圖層_1" xmlns="http://www.w3.org/2000/svg" xmlns:xlink="http://www.w3.org/1999/xlink" x="0px" y="0px"
	 viewBox="0 0 89.5 52.24" style="enable-background:new 0 0 89.5 52.24;" xml:space="preserve">
<style type="text/css">
	.st0{fill:none;stroke:#1A1311;stroke-width:1.2965;stroke-miterlimit:10;}
	.st1{fill:#1A1311;}
	.st2{fill:#1A1311;stroke:#221613;stroke-width:0.1626;stroke-miterlimit:10;}
	.st3{fill:#1A1311;stroke:#1A1311;stroke-width:0.25;stroke-miterlimit:10;}
</style>
<ellipse class="st0" cx="71.22" cy="6.09" rx="5.3" ry="5.2"/>
<path class="st1" d="M58.44,3.68h-3.44c-0.38,0-0.68-0.3-0.68-0.68V2.48c0-0.38,0.3-0.68,0.68-0.68h3.44c0.38,0,0.68,0.3,0.68,0.68
	V3C59.12,3.38,58.81,3.68,58.44,3.68z"/>
<polygon class="st2" points="58.34,3.64 65.71,6.38 65.65,5.45 58.56,2.86 "/>
<path class="st1" d="M83.91,3.68h3.44c0.38,0,0.68-0.3,0.68-0.68V2.48c0-0.38-0.3-0.68-0.68-0.68h-3.44c-0.38,0-0.68,0.3-0.68,0.68
	V3C83.23,3.38,83.54,3.68,83.91,3.68z"/>
<polygon class="st2" points="84.01,3.64 76.64,6.38 76.7,5.45 83.79,2.86 "/>
<path class="st1" d="M71.97,52.24h-1.34c-0.97,0-1.76-0.79-1.76-1.76V32.81c0-0.97,0.79-1.76,1.76-1.76h1.34
	c0.97,0,1.76,0.79,1.76,1.76v17.67C73.73,51.45,72.94,52.24,71.97,52.24z"/>
<path class="st1" d="M78.45,10.85H64.33c-1.86,0-3.37,1.51-3.37,3.37v24.14c0,1.86,1.51,3.37,3.37,3.37h3.52l0.07-8.37
	c0.02-1.85,1.52-3.33,3.36-3.33c1.86,0,3.36,1.51,3.36,3.36v8.35h3.81c1.86,0,3.37-1.51,3.37-3.37V14.23
	C81.82,12.36,80.31,10.85,78.45,10.85z M71.8,27.19c0,0.27-0.22,0.48-0.48,0.48c-0.27,0-0.48-0.22-0.48-0.48V14.9
	c0-0.27,0.22-0.48,0.48-0.48c0.27,0,0.48,0.22,0.48,0.48V27.19z"/>
<g>
	<path class="st1" d="M18.97,31.37h-5.26l-6.57-9.52v9.52l-3.5,0V8.38h3.48l0.02,7.1l6.35-7.1h4.95L9.8,18.31L18.97,31.37z"/>
</g>
<rect x="1.9" y="8.38" class="st1" width="0.72" height="22.98"/>
<g>
	<path class="st1" d="M51.01,31.37c-1.47,0-2.56-0.5-3.27-1.51c-0.59-0.85-0.89-1.97-0.89-3.36c0-1.33,0.3-2.42,0.91-3.28
		c0.72-1.03,1.77-1.55,3.17-1.55c0.76,0,1.42,0.18,1.98,0.53c0.75,0.47,1.5,1.57,1.34,2.73l-1.67-0.02
		c-0.04-1.07-0.86-1.61-1.71-1.6c-1.27,0.01-1.91,1.05-1.91,3.12c0,0.9,0.13,1.63,0.39,2.19c0.35,0.77,0.91,0.99,1.68,0.99
		c0.34,0,0.45,0.01,0.87-0.13c0.19-0.13,0.31-0.27,0.35-0.44v-1.26h-1.86v-1.92h3.94v4.4C53.42,31.1,52.37,31.37,51.01,31.37z"/>
</g>
<g>
	<path class="st1" d="M37.55,31.34H35.5l-0.96-2.42h-3.2l-0.92,2.42h-1.97l3.63-9.68h1.67L37.55,31.34z M33.97,26.98l-0.64-1.3
		c-0.18-0.38-0.33-0.7-0.44-0.96h-0.02c-0.07,0.24-0.19,0.54-0.36,0.89l-0.66,1.38H33.97z"/>
</g>
<g>
	<path class="st1" d="M37.33,12.98c0,1.45-0.38,2.61-1.13,3.5c-0.8,0.93-1.89,1.39-3.27,1.39c-1.34,0-2.4-0.46-3.2-1.39
		c-0.77-0.9-1.15-2.07-1.15-3.53c0-1.36,0.35-2.48,1.04-3.36c0.78-1.01,1.9-1.51,3.33-1.51c1.36,0,2.44,0.47,3.25,1.41
		C36.96,10.38,37.33,11.54,37.33,12.98z M35.34,12.96c0-0.92-0.21-1.64-0.64-2.18c-0.41-0.53-0.99-0.8-1.75-0.8
		c-0.66,0-1.2,0.22-1.62,0.65c-0.51,0.52-0.76,1.3-0.76,2.34c0,1.01,0.25,1.78,0.75,2.32c0.43,0.46,0.97,0.69,1.63,0.69
		c0.91,0,1.57-0.39,1.99-1.17C35.21,14.33,35.34,13.71,35.34,12.96z"/>
</g>
<g>
	<path class="st1" d="M27.41,13.53c0,1.31-0.14,2.26-0.43,2.83c-0.53,1.01-1.57,1.52-3.12,1.52c-1.56,0-2.61-0.5-3.14-1.51
		c-0.3-0.57-0.46-1.51-0.46-2.8V8.33h1.66v4.96c0,0.94,0.09,1.6,0.26,1.97c0.3,0.65,0.74,0.81,1.66,0.81c0.91,0,1.34-0.14,1.64-0.73
		c0.19-0.38,0.28-1.04,0.28-2V8.33h1.64V13.53z"/>
</g>
<g>
	<path class="st1" d="M27.41,26.99c0,1.31-0.14,2.26-0.43,2.83c-0.53,1.01-1.57,1.52-3.12,1.52c-1.56,0-2.61-0.5-3.14-1.51
		c-0.3-0.57-0.46-1.51-0.46-2.8v-5.23h1.66v4.96c0,0.94,0.09,1.6,0.26,1.97c0.3,0.65,0.74,0.81,1.66,0.81
		c0.91,0,1.34-0.14,1.64-0.73c0.19-0.38,0.28-1.04,0.28-2v-5.01h1.64V26.99z"/>
</g>
<g>
	<path class="st1" d="M45.62,31.34h-1.64v-5.01c0-0.96-0.09-1.62-0.28-2c-0.3-0.6-0.73-0.73-1.64-0.73c-0.92,0-1.37,0.16-1.66,0.81
		c-0.17,0.38-0.26,1.03-0.26,1.97v4.96h-1.66V26.1c0-1.3,0.15-2.23,0.46-2.8c0.53-1.01,1.57-1.51,3.14-1.51
		c1.56,0,2.6,0.51,3.12,1.52c0.29,0.57,0.43,1.51,0.43,2.83V31.34z"/>
</g>
<g>
	<path class="st3" d="M2.76,47c-0.18-0.18-0.26-0.47-0.26-0.87v-7.27c0-0.4,0.09-0.7,0.27-0.88s0.47-0.27,0.86-0.27h6.93
		c0.4,0,0.69,0.09,0.87,0.27c0.18,0.18,0.26,0.47,0.26,0.88v7.27c0,0.41-0.09,0.7-0.27,0.87s-0.47,0.26-0.86,0.26H3.63
		C3.22,47.26,2.94,47.18,2.76,47z M10.82,45.87v-6.79c0-0.38-0.19-0.57-0.58-0.57H3.95c-0.39,0-0.58,0.19-0.58,0.57v6.79
		c0,0.39,0.19,0.58,0.58,0.58h6.29C10.63,46.46,10.82,46.26,10.82,45.87z M3.67,45.34c-0.06-0.07-0.08-0.17-0.08-0.32
		s0.05-0.25,0.15-0.31c0.1-0.06,0.41-0.12,0.94-0.2c0.15-0.01,0.34-0.05,0.55-0.09c0.21-0.05,0.36-0.08,0.44-0.09l0.55-0.12
		l0.52-0.11l0.25-0.06c0.1-0.02,0.18,0,0.23,0.07s0.08,0.16,0.08,0.28c0,0.07-0.02,0.14-0.07,0.19c-0.04,0.06-0.1,0.09-0.18,0.11
		l-0.17,0.05C6.8,44.77,6.6,44.83,6.3,44.91c-0.09,0.03-0.22,0.06-0.39,0.1s-0.3,0.07-0.41,0.1l-0.56,0.12
		c-0.62,0.14-0.96,0.21-1.02,0.21C3.81,45.44,3.72,45.41,3.67,45.34z M6.19,45.74c0-0.07,0.05-0.16,0.14-0.25
		c0.1-0.09,0.21-0.17,0.35-0.25c0.52-0.26,0.96-0.6,1.31-1c-0.38-0.92-0.6-2.09-0.67-3.51H4.11c-0.17,0-0.29-0.03-0.37-0.09
		c-0.08-0.06-0.12-0.16-0.12-0.3s0.04-0.24,0.12-0.31c0.08-0.07,0.21-0.1,0.37-0.1h3.16v-0.58c0-0.33,0.14-0.5,0.41-0.5
		c0.13,0,0.23,0.05,0.3,0.16c0.07,0.1,0.1,0.25,0.1,0.44v0.49h1.95c0.17,0,0.29,0.03,0.37,0.1c0.08,0.07,0.12,0.17,0.12,0.31
		s-0.04,0.24-0.12,0.3c-0.08,0.06-0.21,0.09-0.37,0.09h-1.9c0.01,0.69,0.06,1.25,0.13,1.67c0.07,0.42,0.17,0.77,0.3,1.04
		c0.21-0.35,0.45-0.91,0.73-1.68c0.09-0.26,0.22-0.39,0.4-0.39c0.15,0,0.27,0.03,0.34,0.08c0.07,0.06,0.11,0.15,0.11,0.28
		c0,0.1-0.13,0.45-0.4,1.03c-0.28,0.63-0.55,1.13-0.81,1.48v0.01c0.14,0.25,0.28,0.45,0.41,0.61c0.14,0.15,0.25,0.23,0.34,0.23
		c0.07,0,0.13-0.07,0.19-0.21c0.06-0.14,0.11-0.33,0.14-0.57c0.01-0.1,0.05-0.18,0.1-0.24s0.13-0.09,0.21-0.09
		c0.23,0,0.34,0.12,0.34,0.36c0,0.41-0.08,0.79-0.24,1.16c-0.17,0.4-0.38,0.6-0.64,0.6c-0.46,0-0.91-0.39-1.38-1.16H8.36
		c-0.14,0.18-0.29,0.33-0.44,0.45c-0.15,0.12-0.34,0.25-0.55,0.38C7.13,45.9,6.95,46,6.84,46.06c-0.11,0.05-0.2,0.08-0.27,0.08
		C6.31,46.14,6.19,46.01,6.19,45.74z M3.99,42.96v-0.95c0-0.5,0.26-0.75,0.78-0.75h1.35c0.26,0,0.45,0.06,0.57,0.18
		c0.12,0.12,0.19,0.31,0.19,0.57v0.95c0,0.51-0.25,0.76-0.76,0.76H4.77C4.25,43.72,3.99,43.47,3.99,42.96z M6.14,42.77v-0.56
		c0-0.1-0.02-0.16-0.06-0.2c-0.04-0.04-0.1-0.06-0.2-0.06H5.02c-0.18,0-0.26,0.09-0.26,0.26v0.56c0,0.18,0.09,0.26,0.26,0.26h0.86
		C6.05,43.04,6.14,42.95,6.14,42.77z M9.3,39.71c-0.05-0.05-0.13-0.14-0.24-0.28c-0.15-0.18-0.22-0.32-0.22-0.42
		c0-0.1,0.03-0.18,0.1-0.23c0.07-0.05,0.15-0.08,0.26-0.08s0.25,0.1,0.43,0.3c0.18,0.2,0.26,0.35,0.26,0.45
		c0,0.22-0.13,0.33-0.4,0.33C9.42,39.78,9.35,39.76,9.3,39.71z"/>
	<path class="st3" d="M23.27,45.27c0,0.71-0.11,1.17-0.34,1.4c-0.26,0.26-0.95,0.39-2.09,0.39c-0.8,0-1.3-0.04-1.5-0.12
		c-0.31-0.12-0.46-0.43-0.46-0.92v-3.87h-1.54c-0.01,0.67-0.06,1.21-0.13,1.62s-0.19,0.81-0.34,1.19c-0.27,0.67-0.74,1.22-1.42,1.66
		c-0.62,0.4-1.14,0.61-1.56,0.61c-0.29,0-0.43-0.17-0.43-0.5c0-0.14,0.05-0.24,0.14-0.31c0.07-0.05,0.3-0.14,0.71-0.28
		c0.7-0.23,1.24-0.64,1.62-1.24c0.36-0.58,0.55-1.5,0.56-2.76h-2.41c-0.34,0-0.52-0.14-0.52-0.41c0-0.28,0.17-0.42,0.52-0.42h3.77
		v-3.33c0-0.41,0.16-0.61,0.47-0.61s0.47,0.2,0.47,0.61v3.33h3.76c0.18,0,0.31,0.03,0.39,0.1c0.08,0.07,0.13,0.17,0.13,0.32
		c0,0.27-0.17,0.41-0.52,0.41h-2.84v3.55c0,0.23,0.05,0.37,0.15,0.43c0.14,0.08,0.4,0.12,0.79,0.12c0.78,0,1.25-0.05,1.41-0.16
		c0.15-0.09,0.25-0.35,0.27-0.77c0.01-0.19,0.06-0.33,0.13-0.42s0.17-0.14,0.31-0.14C23.11,44.76,23.27,44.93,23.27,45.27z
		 M14.73,39.02c-0.11-0.15-0.16-0.28-0.16-0.41c0-0.14,0.07-0.26,0.21-0.36c0.07-0.05,0.15-0.08,0.22-0.08c0.14,0,0.3,0.11,0.5,0.32
		c0.25,0.29,0.53,0.69,0.85,1.18c0.09,0.13,0.13,0.26,0.13,0.38c0,0.13-0.07,0.25-0.21,0.36c-0.09,0.07-0.18,0.1-0.29,0.1
		c-0.18,0-0.32-0.1-0.42-0.29C15.39,39.93,15.11,39.53,14.73,39.02z M20.04,40.09c0-0.12,0.04-0.26,0.13-0.4
		c0.35-0.55,0.59-0.97,0.73-1.26c0.1-0.21,0.23-0.32,0.42-0.32c0.09,0,0.18,0.03,0.27,0.09c0.15,0.1,0.23,0.22,0.23,0.38
		c0,0.12-0.04,0.24-0.11,0.36c-0.3,0.55-0.55,0.96-0.75,1.22c-0.18,0.24-0.34,0.35-0.49,0.35c-0.07,0-0.14-0.02-0.22-0.07
		C20.11,40.37,20.04,40.25,20.04,40.09z"/>
	<path class="st3" d="M26.6,46.89v-4.27c-0.25,0.8-0.56,1.54-0.95,2.22c-0.28,0.48-0.5,0.72-0.66,0.72c-0.28,0-0.42-0.16-0.42-0.49
		c0-0.12,0.08-0.28,0.23-0.49c0.73-0.97,1.3-2.13,1.71-3.49h-1.44c-0.31,0-0.46-0.14-0.46-0.43s0.15-0.43,0.46-0.43h1.53v-1.5
		c-0.7,0.1-1.18,0.14-1.44,0.14c-0.29,0-0.44-0.14-0.44-0.42c0-0.12,0.05-0.22,0.14-0.28c0.1-0.06,0.25-0.1,0.45-0.12
		c1.33-0.12,2.23-0.28,2.71-0.47c0.2-0.08,0.36-0.12,0.5-0.12c0.29,0,0.44,0.16,0.44,0.46c0,0.21-0.22,0.38-0.67,0.5l-0.81,0.17
		v1.64h1.14c0.32,0,0.48,0.14,0.48,0.43s-0.16,0.43-0.48,0.43h-1.14v1.19c0.07-0.1,0.16-0.15,0.29-0.15c0.07,0,0.17,0.06,0.3,0.18
		s0.29,0.29,0.48,0.51c0.37,0.46,0.56,0.77,0.56,0.92c0,0.26-0.13,0.39-0.4,0.39c-0.12,0-0.26-0.12-0.42-0.36l-0.81-1.12v4.26
		c0,0.35-0.14,0.53-0.43,0.53C26.75,47.42,26.6,47.24,26.6,46.89z M28.21,46.93c-0.07-0.07-0.1-0.17-0.1-0.31
		c0-0.26,0.14-0.39,0.41-0.39h1.01v-7.32c0-0.35,0.07-0.6,0.22-0.75c0.15-0.15,0.39-0.22,0.73-0.2h2.3c0.35,0,0.61,0.08,0.76,0.23
		c0.16,0.15,0.22,0.4,0.19,0.73v7.31h0.48c0.27,0,0.41,0.13,0.41,0.4s-0.14,0.4-0.41,0.4h-5.7C28.38,47.03,28.27,47,28.21,46.93z
		 M32.87,39.14c0-0.24-0.12-0.36-0.36-0.36h-1.78c-0.23,0-0.35,0.12-0.36,0.36v1.47h2.51V39.14z M32.87,43.3v-1.92h-2.51v1.92H32.87
		z M32.87,46.24v-2.16h-2.51v2.16H32.87z"/>
	<path class="st3" d="M45.88,45.55c0,0.26-0.17,0.4-0.51,0.4h-4.15v1c0,0.15-0.04,0.26-0.11,0.35c-0.07,0.08-0.18,0.13-0.33,0.13
		c-0.14,0-0.25-0.04-0.32-0.13c-0.08-0.08-0.12-0.2-0.12-0.35v-1h-3.98c-0.33,0-0.49-0.13-0.49-0.4c0-0.28,0.17-0.42,0.49-0.42h3.98
		v-0.86h-2.43c-0.36,0-0.62-0.08-0.78-0.23s-0.23-0.41-0.21-0.76v-2.37c0-0.37,0.08-0.63,0.24-0.8c0.16-0.17,0.41-0.24,0.75-0.21
		h2.43V39.1h-3.7c-0.18,0-0.3-0.03-0.38-0.1c-0.08-0.07-0.12-0.17-0.12-0.3c0-0.27,0.17-0.41,0.5-0.41h3.7v-0.52
		c0-0.14,0.04-0.25,0.11-0.33c0.07-0.08,0.18-0.12,0.33-0.12s0.26,0.04,0.33,0.12c0.07,0.08,0.11,0.19,0.11,0.33v0.52h3.87
		c0.32,0,0.48,0.14,0.48,0.41c0,0.13-0.04,0.23-0.12,0.3c-0.08,0.07-0.2,0.1-0.37,0.1h-3.87v0.79h2.61c0.35,0,0.61,0.08,0.77,0.24
		c0.16,0.16,0.23,0.42,0.22,0.78v2.37c0,0.37-0.08,0.63-0.24,0.79c-0.16,0.16-0.41,0.23-0.75,0.2h-2.61v0.86h4.15
		C45.71,45.13,45.88,45.27,45.88,45.55z M37.81,41.65h2.54v-0.96h-2c-0.21,0-0.36,0.04-0.43,0.11c-0.07,0.07-0.11,0.22-0.11,0.43
		V41.65z M40.35,43.48v-1.04h-2.54v0.52c0,0.21,0.04,0.34,0.11,0.41c0.07,0.07,0.22,0.1,0.43,0.1H40.35z M41.23,41.65h2.72v-0.42
		c0-0.21-0.04-0.36-0.11-0.43c-0.07-0.07-0.22-0.11-0.43-0.11h-2.18V41.65z M41.23,43.48h2.18c0.21,0,0.36-0.04,0.43-0.1
		c0.07-0.07,0.11-0.21,0.11-0.41v-0.52h-2.72V43.48z"/>
</g>
</svg>
