<?xml version="1.0" encoding="utf-8"?>
<!-- Generator: Adobe Illustrator 25.0.0, SVG Export Plug-In . SVG Version: 6.00 Build 0)  -->
<svg version="1.1" id="圖層_1" xmlns="http://www.w3.org/2000/svg" xmlns:xlink="http://www.w3.org/1999/xlink" x="0px" y="0px"
	 viewBox="0 0 56 56" style="enable-background:new 0 0 56 56;" xml:space="preserve">
<style type="text/css">
	.st0{fill:#FFCA4E;}
	.st1{enable-background:new    ;}
	.st2{fill:#1A1311;}
	.st3{fill:none;stroke:#1A1311;stroke-width:0.3;}
</style>
<circle id="Ellipse_5" class="st0" cx="28.05" cy="27.94" r="28"/>
<g class="st1">
	<path class="st2" d="M19.25,31.94l-0.01-4.2l-2.06,3.46h-0.73l-2.05-3.37v4.11h-1.52v-7h1.34l2.62,4.35l2.58-4.35h1.33l0.02,7
		H19.25z"/>
	<path class="st2" d="M27.85,30.65v1.3h-5.42v-7h5.29v1.3h-3.68v1.52h3.25v1.26h-3.25v1.62H27.85z"/>
	<path class="st2" d="M35.56,24.95v7h-1.33l-3.49-4.25v4.25h-1.6v-7h1.34l3.48,4.25v-4.25H35.56z"/>
	<path class="st2" d="M37.16,28.87v-3.92h1.62v3.86c0,1.33,0.58,1.88,1.56,1.88c0.99,0,1.56-0.55,1.56-1.88v-3.86h1.6v3.92
		c0,2.06-1.18,3.2-3.17,3.2C38.34,32.06,37.16,30.92,37.16,28.87z"/>
</g>
<g class="st1">
	<path class="st3" d="M19.25,31.94l-0.01-4.2l-2.06,3.46h-0.73l-2.05-3.37v4.11h-1.52v-7h1.34l2.62,4.35l2.58-4.35h1.33l0.02,7
		H19.25z"/>
	<path class="st3" d="M27.85,30.65v1.3h-5.42v-7h5.29v1.3h-3.68v1.52h3.25v1.26h-3.25v1.62H27.85z"/>
	<path class="st3" d="M35.56,24.95v7h-1.33l-3.49-4.25v4.25h-1.6v-7h1.34l3.48,4.25v-4.25H35.56z"/>
	<path class="st3" d="M37.16,28.87v-3.92h1.62v3.86c0,1.33,0.58,1.88,1.56,1.88c0.99,0,1.56-0.55,1.56-1.88v-3.86h1.6v3.92
		c0,2.06-1.18,3.2-3.17,3.2C38.34,32.06,37.16,30.92,37.16,28.87z"/>
</g>
</svg>
