<?xml version="1.0" encoding="utf-8"?>
<!-- Generator: Adobe Illustrator 25.0.0, SVG Export Plug-In . SVG Version: 6.00 Build 0)  -->
<svg version="1.1" id="圖層_1" xmlns="http://www.w3.org/2000/svg" xmlns:xlink="http://www.w3.org/1999/xlink" x="0px" y="0px"
	 viewBox="0 0 131 77.33" style="enable-background:new 0 0 131 77.33;" xml:space="preserve">
<style type="text/css">
	.st0{fill:none;stroke:#1A1311;stroke-width:1.9178;stroke-miterlimit:10;}
	.st1{fill:#1A1311;}
	.st2{fill:#1A1311;stroke:#221613;stroke-width:0.2405;stroke-miterlimit:10;}
	.st3{fill:#1A1311;stroke:#1A1311;stroke-width:0.3698;stroke-miterlimit:10;}
</style>
<ellipse class="st0" cx="105.4" cy="9.04" rx="7.84" ry="7.69"/>
<path class="st1" d="M86.81,5.48h-5.75c-0.38,0-0.68-0.3-0.68-0.68V3.38c0-0.38,0.3-0.68,0.68-0.68h5.75c0.38,0,0.68,0.3,0.68,0.68
	V4.8C87.49,5.18,87.18,5.48,86.81,5.48z"/>
<polygon class="st2" points="86.34,5.42 97.24,9.48 97.14,8.1 86.67,4.27 "/>
<path class="st1" d="M123.84,5.48h5.75c0.38,0,0.68-0.3,0.68-0.68V3.38c0-0.38-0.3-0.68-0.68-0.68h-5.75c-0.38,0-0.68,0.3-0.68,0.68
	V4.8C123.16,5.18,123.46,5.48,123.84,5.48z"/>
<polygon class="st2" points="124.31,5.42 113.41,9.48 113.5,8.1 123.98,4.27 "/>
<path class="st1" d="M107.34,77.31h-3.66c-0.97,0-1.76-0.79-1.76-1.76V47.73c0-0.97,0.79-1.76,1.76-1.76h3.66
	c0.97,0,1.76,0.79,1.76,1.76v27.83C109.1,76.52,108.31,77.31,107.34,77.31z"/>
<path class="st1" d="M116.09,16.09H95.2c-2.76,0-4.99,2.23-4.99,4.99v35.71c0,2.76,2.23,4.99,4.99,4.99h5.2l0.1-12.39
	c0.02-2.73,2.24-4.93,4.97-4.93c2.75,0,4.97,2.23,4.97,4.97v12.35h5.63c2.76,0,4.99-2.23,4.99-4.99V21.08
	C121.07,18.33,118.84,16.09,116.09,16.09z M106.25,40.25c0,0.39-0.32,0.71-0.71,0.71c-0.39,0-0.71-0.32-0.71-0.71V22.08
	c0-0.39,0.32-0.71,0.71-0.71c0.39,0,0.71,0.32,0.71,0.71V40.25z"/>
<g>
	<path class="st1" d="M28.09,46.43h-7.78L10.6,32.35v14.08l-5.18,0v-34h5.15l0.03,10.5l9.39-10.5h7.32L14.53,27.12L28.09,46.43z"/>
</g>
<rect x="2.84" y="12.44" class="st1" width="1.07" height="34"/>
<g>
	<path class="st1" d="M75.49,46.43c-2.17,0-3.78-0.75-4.84-2.24c-0.88-1.25-1.32-2.91-1.32-4.97c0-1.96,0.45-3.58,1.34-4.86
		c1.06-1.53,2.62-2.3,4.69-2.3c1.12,0,2.1,0.26,2.93,0.78c1.11,0.7,2.22,2.32,1.98,4.03l-2.48-0.03c-0.06-1.58-1.27-2.38-2.53-2.37
		c-1.89,0.01-2.83,1.55-2.83,4.61c0,1.33,0.19,2.41,0.57,3.24c0.51,1.14,1.34,1.47,2.48,1.47c0.5,0,0.67,0.01,1.29-0.2
		c0.28-0.19,0.45-0.4,0.52-0.64V41.1h-2.76v-2.83h5.83v6.5C79.06,46.04,77.51,46.43,75.49,46.43z"/>
</g>
<g>
	<path class="st1" d="M55.58,46.39h-3.03l-1.42-3.58h-4.74l-1.37,3.58h-2.91l5.38-14.32h2.47L55.58,46.39z M50.29,39.95l-0.94-1.92
		c-0.27-0.56-0.48-1.04-0.65-1.43h-0.03c-0.1,0.36-0.28,0.8-0.53,1.31l-0.97,2.04H50.29z"/>
</g>
<g>
	<path class="st1" d="M55.26,19.24c0,2.14-0.56,3.87-1.67,5.18c-1.18,1.38-2.8,2.06-4.84,2.06c-1.98,0-3.55-0.69-4.73-2.06
		c-1.14-1.32-1.7-3.06-1.7-5.21c0-2.01,0.51-3.67,1.54-4.97c1.16-1.49,2.8-2.23,4.93-2.23c2.02,0,3.62,0.69,4.8,2.08
		C54.7,15.39,55.26,17.11,55.26,19.24z M52.32,19.21c0-1.36-0.31-2.43-0.94-3.23c-0.61-0.78-1.47-1.18-2.58-1.18
		c-0.98,0-1.78,0.32-2.4,0.97c-0.75,0.77-1.13,1.93-1.13,3.47c0,1.49,0.37,2.64,1.11,3.44c0.63,0.68,1.43,1.02,2.41,1.02
		c1.34,0,2.32-0.58,2.94-1.73C52.12,21.24,52.32,20.32,52.32,19.21z"/>
</g>
<g>
	<path class="st1" d="M40.58,20.04c0,1.94-0.21,3.34-0.64,4.18c-0.78,1.5-2.32,2.25-4.62,2.25c-2.31,0-3.86-0.74-4.64-2.23
		C30.23,23.4,30,22.02,30,20.1v-7.74h2.45v7.34c0,1.39,0.13,2.36,0.38,2.91c0.44,0.96,1.1,1.2,2.46,1.2c1.34,0,1.99-0.2,2.43-1.08
		c0.28-0.56,0.42-1.54,0.42-2.95v-7.41h2.43V20.04z"/>
</g>
<g>
	<path class="st1" d="M40.58,39.95c0,1.94-0.21,3.34-0.64,4.18c-0.78,1.5-2.32,2.25-4.62,2.25c-2.31,0-3.86-0.74-4.64-2.23
		C30.23,43.31,30,41.93,30,40.01v-7.74h2.45v7.34c0,1.39,0.13,2.36,0.38,2.91c0.44,0.96,1.1,1.2,2.46,1.2c1.34,0,1.99-0.2,2.43-1.08
		c0.28-0.56,0.42-1.54,0.42-2.95v-7.41h2.43V39.95z"/>
</g>
<g>
	<path class="st1" d="M67.52,46.39h-2.43v-7.41c0-1.41-0.14-2.4-0.42-2.95c-0.44-0.88-1.09-1.08-2.43-1.08
		c-1.36,0-2.02,0.24-2.46,1.2c-0.26,0.56-0.38,1.53-0.38,2.91v7.34h-2.45v-7.74c0-1.92,0.23-3.3,0.68-4.14
		c0.78-1.49,2.33-2.23,4.64-2.23c2.3,0,3.84,0.75,4.62,2.25c0.43,0.85,0.64,2.24,0.64,4.18V46.39z"/>
</g>
<g>
	<path class="st3" d="M4.12,69.56c-0.26-0.26-0.39-0.69-0.39-1.29V57.51c0-0.6,0.13-1.03,0.4-1.3s0.69-0.4,1.28-0.4h10.25
		c0.6,0,1.02,0.13,1.29,0.4c0.26,0.27,0.39,0.7,0.39,1.3v10.76c0,0.6-0.13,1.03-0.4,1.29c-0.27,0.26-0.69,0.39-1.28,0.39H5.4
		C4.81,69.95,4.38,69.82,4.12,69.56z M16.04,67.9V57.86c0-0.57-0.29-0.85-0.86-0.85H5.87c-0.57,0-0.86,0.28-0.86,0.85V67.9
		c0,0.58,0.29,0.87,0.86,0.87h9.31C15.76,68.76,16.04,68.47,16.04,67.9z M5.46,67.11c-0.08-0.1-0.12-0.26-0.12-0.47
		s0.08-0.37,0.23-0.46c0.14-0.09,0.6-0.18,1.38-0.29c0.23-0.02,0.5-0.07,0.81-0.14c0.31-0.07,0.53-0.12,0.65-0.14l0.81-0.18
		l0.76-0.16l0.37-0.08c0.15-0.03,0.27,0,0.34,0.1c0.08,0.1,0.11,0.23,0.11,0.41c0,0.11-0.03,0.2-0.1,0.28
		c-0.07,0.08-0.15,0.13-0.26,0.16l-0.24,0.08c-0.13,0.04-0.42,0.13-0.86,0.26c-0.13,0.04-0.32,0.09-0.57,0.15
		c-0.25,0.05-0.45,0.1-0.6,0.15l-0.83,0.18c-0.91,0.21-1.41,0.31-1.51,0.31C5.67,67.26,5.54,67.21,5.46,67.11z M9.19,67.7
		c0-0.11,0.07-0.23,0.21-0.37c0.14-0.14,0.31-0.26,0.52-0.37c0.77-0.39,1.41-0.89,1.94-1.49c-0.56-1.36-0.89-3.09-0.99-5.19H6.12
		c-0.25,0-0.43-0.04-0.55-0.13c-0.12-0.09-0.18-0.23-0.18-0.44c0-0.21,0.06-0.36,0.18-0.46c0.12-0.1,0.3-0.15,0.55-0.15h4.67v-0.87
		c0-0.49,0.2-0.74,0.6-0.74c0.2,0,0.34,0.08,0.44,0.23c0.1,0.15,0.15,0.37,0.15,0.65v0.72h2.88c0.25,0,0.43,0.05,0.55,0.15
		c0.12,0.1,0.18,0.25,0.18,0.46c0,0.21-0.06,0.35-0.18,0.44c-0.12,0.09-0.3,0.13-0.55,0.13h-2.81c0.02,1.02,0.08,1.84,0.19,2.46
		c0.1,0.62,0.25,1.13,0.45,1.54c0.31-0.52,0.67-1.35,1.07-2.48c0.13-0.38,0.33-0.57,0.59-0.57c0.23,0,0.4,0.04,0.5,0.12
		c0.11,0.08,0.16,0.22,0.16,0.42c0,0.15-0.2,0.66-0.59,1.52c-0.41,0.94-0.81,1.67-1.2,2.19v0.02c0.21,0.37,0.41,0.67,0.61,0.9
		c0.2,0.23,0.37,0.34,0.5,0.34c0.1,0,0.19-0.1,0.29-0.31c0.09-0.21,0.16-0.49,0.2-0.85c0.02-0.15,0.07-0.27,0.15-0.36
		c0.08-0.09,0.19-0.13,0.32-0.13c0.34,0,0.5,0.18,0.5,0.54c0,0.6-0.12,1.17-0.36,1.71c-0.25,0.59-0.56,0.88-0.94,0.88
		c-0.67,0-1.35-0.57-2.03-1.71H12.4c-0.21,0.26-0.42,0.48-0.65,0.67c-0.23,0.18-0.5,0.37-0.81,0.55c-0.36,0.21-0.62,0.35-0.78,0.43
		c-0.16,0.08-0.3,0.12-0.41,0.12C9.38,68.29,9.19,68.09,9.19,67.7z M5.94,63.59v-1.4c0-0.74,0.38-1.11,1.15-1.11h2
		c0.38,0,0.66,0.09,0.85,0.27c0.18,0.18,0.28,0.46,0.28,0.84v1.4c0,0.75-0.37,1.13-1.12,1.13h-2C6.32,64.71,5.94,64.34,5.94,63.59z
		 M9.11,63.31v-0.83c0-0.14-0.03-0.24-0.08-0.3c-0.05-0.06-0.15-0.09-0.29-0.09H7.47c-0.26,0-0.39,0.13-0.39,0.39v0.83
		c0,0.26,0.13,0.39,0.39,0.39h1.27C8.99,63.7,9.11,63.57,9.11,63.31z M13.8,58.78c-0.08-0.07-0.2-0.21-0.36-0.42
		c-0.22-0.27-0.33-0.48-0.33-0.62c0-0.15,0.05-0.27,0.15-0.34c0.1-0.08,0.23-0.11,0.39-0.11c0.16,0,0.37,0.15,0.63,0.44
		c0.26,0.29,0.39,0.52,0.39,0.67c0,0.33-0.2,0.49-0.59,0.49C13.97,58.88,13.87,58.85,13.8,58.78z"/>
	<path class="st3" d="M34.46,67c0,1.04-0.17,1.73-0.5,2.07c-0.38,0.38-1.41,0.57-3.09,0.57c-1.18,0-1.92-0.06-2.21-0.18
		c-0.46-0.18-0.68-0.64-0.68-1.36v-5.73h-2.28c-0.02,0.99-0.09,1.79-0.2,2.4c-0.11,0.61-0.28,1.2-0.5,1.76
		c-0.4,0.99-1.1,1.81-2.1,2.45c-0.92,0.6-1.69,0.9-2.31,0.9c-0.42,0-0.63-0.24-0.63-0.73c0-0.21,0.07-0.36,0.21-0.46
		c0.1-0.08,0.45-0.21,1.06-0.41c1.04-0.34,1.84-0.95,2.39-1.83c0.53-0.86,0.81-2.22,0.83-4.08h-3.56c-0.51,0-0.76-0.2-0.76-0.6
		c0-0.41,0.25-0.62,0.76-0.62h5.58v-4.93c0-0.6,0.23-0.9,0.7-0.9c0.47,0,0.7,0.3,0.7,0.9v4.93h5.56c0.26,0,0.45,0.05,0.58,0.15
		c0.12,0.1,0.19,0.26,0.19,0.47c0,0.4-0.25,0.6-0.76,0.6h-4.2v5.26c0,0.34,0.08,0.55,0.23,0.64c0.21,0.12,0.6,0.18,1.17,0.18
		c1.15,0,1.84-0.08,2.08-0.23c0.23-0.14,0.36-0.52,0.41-1.14c0.02-0.28,0.08-0.49,0.19-0.63c0.1-0.14,0.26-0.2,0.46-0.2
		C34.23,66.25,34.46,66.5,34.46,67z M21.82,57.76c-0.16-0.22-0.24-0.42-0.24-0.6c0-0.21,0.1-0.39,0.31-0.54
		c0.11-0.08,0.22-0.11,0.33-0.11c0.21,0,0.45,0.16,0.73,0.47c0.37,0.43,0.79,1.02,1.25,1.75c0.13,0.2,0.2,0.38,0.2,0.55
		c0,0.2-0.1,0.38-0.31,0.54c-0.13,0.1-0.27,0.15-0.42,0.15c-0.26,0-0.47-0.14-0.62-0.42C22.8,59.1,22.39,58.51,21.82,57.76z
		 M29.68,59.34c0-0.18,0.07-0.38,0.2-0.59c0.52-0.82,0.88-1.44,1.07-1.86c0.14-0.31,0.35-0.47,0.62-0.47c0.13,0,0.27,0.04,0.41,0.13
		c0.23,0.14,0.34,0.33,0.34,0.55c0,0.17-0.05,0.35-0.16,0.54c-0.44,0.82-0.81,1.42-1.11,1.81c-0.26,0.35-0.5,0.52-0.73,0.52
		c-0.1,0-0.21-0.03-0.33-0.1C29.78,59.75,29.68,59.57,29.68,59.34z"/>
	<path class="st3" d="M39.39,69.4v-6.32c-0.37,1.19-0.84,2.28-1.4,3.28c-0.41,0.71-0.74,1.06-0.98,1.06c-0.41,0-0.62-0.24-0.62-0.72
		c0-0.17,0.11-0.41,0.34-0.72c1.08-1.44,1.93-3.16,2.52-5.16h-2.13c-0.46,0-0.68-0.21-0.68-0.64s0.23-0.64,0.68-0.64h2.26v-2.22
		c-1.04,0.14-1.75,0.21-2.13,0.21c-0.43,0-0.65-0.21-0.65-0.62c0-0.18,0.07-0.32,0.21-0.42c0.14-0.09,0.36-0.15,0.67-0.17
		c1.96-0.18,3.3-0.42,4-0.7c0.29-0.12,0.54-0.18,0.73-0.18c0.43,0,0.65,0.23,0.65,0.69c0,0.32-0.33,0.56-0.99,0.74l-1.2,0.24v2.43
		h1.69c0.48,0,0.72,0.21,0.72,0.64s-0.24,0.64-0.72,0.64h-1.69v1.76c0.1-0.15,0.24-0.23,0.42-0.23c0.1,0,0.25,0.09,0.45,0.26
		s0.44,0.42,0.71,0.75c0.55,0.68,0.83,1.14,0.83,1.36c0,0.38-0.2,0.57-0.59,0.57c-0.18,0-0.39-0.18-0.62-0.54l-1.2-1.66v6.3
		c0,0.52-0.21,0.78-0.63,0.78C39.61,70.18,39.39,69.92,39.39,69.4z M41.76,69.46c-0.1-0.1-0.15-0.25-0.15-0.46
		c0-0.38,0.2-0.57,0.6-0.57h1.5V57.61c0-0.51,0.11-0.88,0.33-1.11c0.22-0.23,0.57-0.33,1.07-0.29h3.4c0.52,0,0.9,0.11,1.13,0.34
		c0.23,0.22,0.33,0.59,0.28,1.09v10.81h0.72c0.4,0,0.6,0.2,0.6,0.59c0,0.39-0.2,0.59-0.6,0.59h-8.43
		C42.01,69.61,41.86,69.56,41.76,69.46z M48.66,57.94c0-0.36-0.18-0.54-0.54-0.54h-2.64c-0.34,0-0.51,0.18-0.54,0.54v2.17h3.71
		V57.94z M48.66,64.09v-2.84h-3.71v2.84H48.66z M48.66,68.43v-3.2h-3.71v3.2H48.66z"/>
	<path class="st3" d="M67.91,67.42c0,0.39-0.25,0.59-0.75,0.59h-6.13v1.49c0,0.22-0.05,0.39-0.16,0.51
		c-0.11,0.12-0.27,0.19-0.49,0.19c-0.21,0-0.37-0.06-0.48-0.19c-0.11-0.13-0.17-0.3-0.17-0.51v-1.49h-5.89
		c-0.49,0-0.73-0.2-0.73-0.59c0-0.41,0.24-0.62,0.73-0.62h5.89v-1.27h-3.6c-0.53,0-0.92-0.12-1.15-0.34
		c-0.24-0.23-0.34-0.6-0.31-1.13v-3.51c0-0.54,0.12-0.94,0.35-1.18c0.23-0.24,0.6-0.35,1.11-0.32h3.6v-1.18h-5.47
		c-0.26,0-0.45-0.05-0.56-0.15c-0.11-0.1-0.17-0.24-0.17-0.44c0-0.4,0.24-0.6,0.73-0.6h5.47v-0.77c0-0.21,0.05-0.37,0.16-0.48
		c0.11-0.12,0.27-0.17,0.49-0.17s0.38,0.06,0.49,0.17c0.11,0.11,0.16,0.27,0.16,0.48v0.77h5.73c0.48,0,0.72,0.2,0.72,0.6
		c0,0.2-0.06,0.34-0.17,0.44c-0.11,0.1-0.3,0.15-0.55,0.15h-5.73v1.18h3.86c0.52,0,0.9,0.12,1.14,0.35
		c0.24,0.23,0.35,0.62,0.33,1.15v3.51c0,0.54-0.12,0.94-0.35,1.18c-0.23,0.24-0.6,0.34-1.11,0.29h-3.86v1.27h6.13
		C67.66,66.8,67.91,67.01,67.91,67.42z M55.97,61.64h3.76v-1.42h-2.96c-0.31,0-0.53,0.05-0.63,0.16c-0.11,0.11-0.16,0.32-0.16,0.64
		V61.64z M59.73,64.35v-1.53h-3.76v0.77c0,0.3,0.05,0.51,0.16,0.61c0.11,0.1,0.32,0.15,0.63,0.15H59.73z M61.03,61.64h4.02v-0.62
		c0-0.31-0.05-0.53-0.16-0.64c-0.11-0.11-0.32-0.16-0.63-0.16h-3.22V61.64z M61.03,64.35h3.22c0.31,0,0.53-0.05,0.63-0.15
		c0.11-0.1,0.16-0.31,0.16-0.61v-0.77h-4.02V64.35z"/>
</g>
</svg>
