<?xml version="1.0" encoding="utf-8"?>
<!-- Generator: Adobe Illustrator 25.0.0, SVG Export Plug-In . SVG Version: 6.00 Build 0)  -->
<svg version="1.1" id="圖層_1" xmlns="http://www.w3.org/2000/svg" xmlns:xlink="http://www.w3.org/1999/xlink" x="0px" y="0px"
	 viewBox="0 0 32.94 31.76" style="enable-background:new 0 0 32.94 31.76;" xml:space="preserve">
<style type="text/css">
	.st0{fill:#2CCF54;}
	.st1{fill:#FFFFFF;}
</style>
<path id="Path_419" class="st0" d="M32.94,13.52c0-7.46-7.39-13.52-16.47-13.52S0,6.06,0,13.52C0,20.2,5.86,25.8,13.77,26.86
	c0.54,0.12,1.27,0.36,1.45,0.82c0.13,0.49,0.15,1.01,0.05,1.51c0,0-0.19,1.18-0.24,1.43c-0.07,0.42-0.33,1.65,1.43,0.9
	c1.76-0.75,9.48-5.65,12.94-9.68C31.62,19.63,32.88,16.64,32.94,13.52z"/>
<path id="Path_420" class="st1" d="M13.12,9.9h-1.16c-0.18,0-0.32,0.15-0.32,0.32v7.25c0,0.18,0.14,0.32,0.32,0.32h1.15
	c0.18,0,0.32-0.14,0.32-0.32c0,0,0,0,0,0v-7.25C13.45,10.05,13.3,9.9,13.12,9.9C13.13,9.9,13.13,9.9,13.12,9.9z"/>
<path id="Path_421" class="st1" d="M21.07,9.9h-1.15c-0.18,0-0.32,0.15-0.32,0.32c0,0,0,0,0,0v4.31l-3.29-4.49
	c-0.06-0.09-0.16-0.14-0.27-0.14h-1.16c-0.18,0-0.32,0.15-0.32,0.32v7.25c0,0.18,0.14,0.32,0.32,0.32h1.15
	c0.18,0,0.32-0.14,0.32-0.32c0,0,0,0,0-0.01v-4.31l3.29,4.5c0.06,0.09,0.16,0.14,0.26,0.14h1.15c0.18,0,0.32-0.15,0.32-0.32
	c0,0,0-0.01,0-0.01v-7.25C21.4,10.05,21.25,9.9,21.07,9.9C21.08,9.9,21.08,9.9,21.07,9.9z"/>
<path id="Path_422" class="st1" d="M10.34,15.99H7.2v-5.76c0-0.18-0.14-0.32-0.32-0.32H5.72c-0.18,0-0.32,0.15-0.32,0.32v7.25
	c0,0.18,0.14,0.32,0.32,0.33h4.61c0.18,0,0.32-0.15,0.32-0.32c0,0,0,0,0,0v-1.17C10.66,16.13,10.52,15.99,10.34,15.99
	C10.34,15.99,10.34,15.99,10.34,15.99z"/>
<path id="Path_423" class="st1" d="M27.45,11.72c0.18,0,0.32-0.15,0.32-0.32c0,0,0,0,0,0v-1.17c0-0.18-0.14-0.32-0.32-0.32
	c0,0,0,0,0,0h-4.61c-0.18,0-0.32,0.15-0.32,0.32v7.25c0,0.18,0.14,0.32,0.32,0.32h4.61c0.18,0,0.32-0.14,0.32-0.32c0,0,0,0,0,0
	v-1.17c0-0.18-0.14-0.32-0.32-0.32c0,0,0,0,0,0h-3.14v-1.23h3.14c0.18,0,0.32-0.15,0.32-0.32c0,0,0,0,0,0v-1.17
	c0-0.18-0.14-0.32-0.32-0.32c0,0,0,0,0,0h-3.14v-1.23H27.45z"/>
</svg>
