<?xml version="1.0" encoding="utf-8"?>
<!-- Generator: Adobe Illustrator 25.0.0, SVG Export Plug-In . SVG Version: 6.00 Build 0)  -->
<svg version="1.1" id="圖層_1" xmlns="http://www.w3.org/2000/svg" xmlns:xlink="http://www.w3.org/1999/xlink" x="0px" y="0px"
	 viewBox="0 0 30.4 31.13" style="enable-background:new 0 0 30.4 31.13;" xml:space="preserve">
<style type="text/css">
	.st0{fill:#167EE6;}
	.st1{fill:#2860CC;}
	.st2{fill:#E6F3FF;}
	.st3{fill:#1470CC;}
	.st4{fill:#2354B3;}
	.st5{fill:#3199FF;}
</style>
<path id="Path_472" class="st0" d="M2.14,7.44v21.51c0,1.2,0.97,2.17,2.17,2.17c0,0,0,0,0,0h21.77c1.2,0,2.17-0.97,2.17-2.17
	c0,0,0,0,0-0.01V7.44c-0.28,0-6.55-7.42-6.55-7.42H8.97C8.97,0.03,2.42,7.44,2.14,7.44z"/>
<path id="Path_473" class="st1" d="M26.08,31.13c1.2,0,2.17-0.97,2.17-2.17c0,0,0,0,0-0.01V11.5H15.2v19.62H26.08z"/>
<path id="Path_474" class="st2" d="M21.97,29.1c-2.24,0-4.06-1.82-4.06-4.06s1.82-4.06,4.06-4.06c0.54,0,1.08,0.11,1.58,0.32
	c0.52,0.22,0.75,0.82,0.53,1.33c-0.22,0.52-0.82,0.75-1.33,0.53c-0.25-0.11-0.52-0.16-0.79-0.16c-1.12,0-2.03,0.91-2.03,2.03
	c0,1.12,0.91,2.03,2.03,2.03c0.72,0,1.39-0.39,1.76-1.01h-0.74c-0.56,0-1.01-0.46-1.01-1.02c0-0.56,0.45-1.01,1.01-1.01h2.03
	c0.56,0,1.01,0.45,1.02,1.01c0,0,0,0,0,0C26.03,27.28,24.21,29.1,21.97,29.1z"/>
<path id="Path_475" class="st3" d="M26.66,1.2l3.74,11.83l-3.6,0.14l-3.64-0.14L20.99,0h3.73C25.54,0,26.29,0.47,26.66,1.2z"/>
<path id="Path_476" class="st4" d="M23.16,13.03h7.24c-0.03,2-1.68,3.59-3.68,3.56C24.77,16.56,23.2,14.98,23.16,13.03z"/>
<path id="Path_477" class="st5" d="M20.99,0l2.17,13.03l-4.04,0.14l-3.92-0.14V0H20.99z"/>
<path id="Path_478" class="st0" d="M23.16,13.03c-0.21,2.2-2.17,3.81-4.37,3.6c-1.91-0.18-3.41-1.69-3.6-3.6H23.16z"/>
<path id="Path_479" class="st3" d="M15.2,0v13.03l-3.93,0.14l-4.04-0.14L9.41,0H15.2z"/>
<path id="Path_480" class="st4" d="M15.2,13.03c-0.21,2.2-2.17,3.81-4.37,3.6c-1.91-0.18-3.41-1.69-3.6-3.6H15.2z"/>
<path id="Path_481" class="st5" d="M9.41,0L7.24,13.03l-3.85,0.14L0,13.03L3.74,1.2C4.11,0.47,4.86,0,5.68,0H9.41z"/>
<path id="Path_482" class="st0" d="M7.24,13.03c0.03,2-1.56,3.65-3.56,3.68c-2,0.03-3.65-1.56-3.68-3.56c0-0.04,0-0.08,0-0.12H7.24z
	"/>
</svg>
