<?xml version="1.0" encoding="utf-8"?>
<!-- Generator: Adobe Illustrator 25.0.0, SVG Export Plug-In . SVG Version: 6.00 Build 0)  -->
<svg version="1.1" id="圖層_1" xmlns="http://www.w3.org/2000/svg" xmlns:xlink="http://www.w3.org/1999/xlink" x="0px" y="0px"
	 viewBox="0 0 14.62 14.62" style="enable-background:new 0 0 14.62 14.62;" xml:space="preserve">
<style type="text/css">
	.st0{fill:#F8B11B;}
</style>
<g id="tel" transform="translate(-36 -6351.091)">
	<path id="Icon_metro-phone" class="st0" d="M46.29,6360.1c-0.94,0.94-0.94,1.87-1.87,1.87c-0.93,0-1.87-0.94-2.81-1.87
		s-1.87-1.88-1.87-2.81c0-0.93,0.94-0.94,1.87-1.87s-1.87-3.74-2.81-3.74s-2.81,2.81-2.81,2.81c0,1.87,1.92,5.66,3.74,7.48
		c1.82,1.82,5.61,3.74,7.49,3.74c0,0,2.81-1.87,2.81-2.81S47.23,6359.16,46.29,6360.1z"/>
	<path id="Icon_metro-phone-in-talk" class="st0" d="M48.93,6358.69h1.69c0-4.2-3.41-7.6-7.6-7.6v1.69
		C46.28,6352.78,48.93,6355.43,48.93,6358.69z M45.55,6358.69h1.69c0-2.33-1.89-4.22-4.23-4.22v1.69
		C44.41,6356.16,45.55,6357.29,45.55,6358.69z"/>
</g>
</svg>
