<?xml version="1.0" encoding="utf-8"?>
<!-- Generator: Adobe Illustrator 25.0.0, SVG Export Plug-In . SVG Version: 6.00 Build 0)  -->
<svg version="1.1" id="圖層_1" xmlns="http://www.w3.org/2000/svg" xmlns:xlink="http://www.w3.org/1999/xlink" x="0px" y="0px"
	 viewBox="0 0 15.95 15.95" style="enable-background:new 0 0 15.95 15.95;" xml:space="preserve">
<style type="text/css">
	.st0{fill:#F8B11B;}
	.st1{fill:#FFFFFF;}
</style>
<path id="Path_397" class="st0" d="M7.97,0C3.57,0,0,3.57,0,7.97s3.57,7.97,7.97,7.97s7.97-3.57,7.97-7.97l0,0
	C15.95,3.57,12.38,0,7.97,0z"/>
<path id="Icon_weather-time-10" class="st1" d="M3.17,7.98C3.16,7.13,3.39,6.3,3.82,5.57c0.42-0.73,1.03-1.33,1.75-1.75
	c1.3-0.75,2.89-0.85,4.27-0.26c0.57,0.24,1.09,0.59,1.54,1.02c0.44,0.44,0.78,0.96,1.02,1.54c1.04,2.42-0.08,5.23-2.5,6.27
	c-0.02,0.01-0.04,0.02-0.05,0.02c-1.19,0.51-2.54,0.51-3.74,0c-1.16-0.48-2.08-1.4-2.56-2.55C3.29,9.26,3.16,8.62,3.17,7.98z
	 M4.23,7.98c-0.01,0.99,0.39,1.95,1.11,2.64c1.19,1.21,3.05,1.45,4.52,0.6c0.57-0.33,1.04-0.8,1.37-1.37c0.68-1.16,0.68-2.59,0-3.75
	c-0.33-0.57-0.8-1.04-1.37-1.37c-1.16-0.67-2.59-0.67-3.75,0C5.54,5.07,5.06,5.54,4.73,6.11C4.4,6.67,4.22,7.32,4.23,7.98z M5.9,7.1
	C5.87,7.01,5.88,6.92,5.93,6.84c0.05-0.08,0.13-0.15,0.22-0.17c0.09-0.03,0.19-0.02,0.27,0.03l1.19,0.67V5.14
	c0-0.2,0.16-0.35,0.35-0.35s0.35,0.16,0.35,0.35v2.85c0,0.19-0.16,0.35-0.35,0.35c-0.09,0-0.18-0.03-0.24-0.09L6.07,7.32
	C5.99,7.27,5.93,7.19,5.9,7.1z"/>
</svg>
